<svg width="148" height="116" viewBox="0 0 148 116" fill="none" xmlns="http://www.w3.org/2000/svg">
<path d="M72.6423 1.25527C73.4087 0.54665 74.5913 0.546648 75.3577 1.25527L134.334 55.7815C135.67 57.0169 134.796 59.25 132.977 59.25H15.0235C13.2036 59.25 12.3295 57.0169 13.6658 55.7815L72.6423 1.25527Z" fill="white"/>
<path fill-rule="evenodd" clip-rule="evenodd" d="M115 116H95.4349C94.4089 116 93.5525 115.22 93.4193 114.203C89.434 83.776 63.898 60.4541 33.4533 59H116C116.552 59 117 59.4477 117 60V114C117 115.105 116.105 116 115 116ZM80.3721 116C81.572 116 82.5047 114.949 82.3093 113.765C78.2993 89.4671 57.6085 71.0696 33.0173 69.9179C31.9075 69.8659 31 70.7679 31 71.8789V78.6822C31 79.7745 31.8774 80.6597 32.9675 80.7286C51.8131 81.9195 67.7179 95.841 71.4327 114.318C71.6266 115.283 72.4591 116 73.4428 116H80.3721ZM33.2976 102.387C32.0811 102.348 31 101.411 31 100.194V91.6389C31 91.6182 31.0172 91.6017 31.0379 91.602V91.602C44.5557 91.824 56.2415 100.985 60.0046 113.609C60.3677 114.827 59.4166 116 58.1456 116H51.4563C50.5883 116 49.8258 115.433 49.5139 114.623C45.8524 105.116 38.244 102.543 33.2976 102.387Z" fill="white"/>
</svg>
