<svg width="148" height="115" viewBox="0 0 148 115" fill="none" xmlns="http://www.w3.org/2000/svg">
<path d="M72.6423 1.25527C73.4087 0.54665 74.5913 0.546648 75.3577 1.25527L134.334 55.7815C135.671 57.0169 134.796 59.25 132.977 59.25H15.0235C13.2036 59.25 12.3295 57.0169 13.6658 55.7815L72.6423 1.25527Z" fill="white"/>
<path fill-rule="evenodd" clip-rule="evenodd" d="M115 115H95.4349C94.4089 115 93.5525 114.22 93.4193 113.203C89.434 82.776 63.898 59.4541 33.4533 58H116C116.552 58 117 58.4477 117 59V113C117 114.105 116.105 115 115 115ZM80.3721 115C81.572 115 82.5047 113.949 82.3093 112.765C78.2993 88.4671 57.6085 70.0696 33.0173 68.9179C31.9075 68.8659 31 69.7679 31 70.8789V77.6822C31 78.7745 31.8774 79.6597 32.9675 79.7286C51.8131 80.9195 67.7179 94.841 71.4327 113.318C71.6266 114.283 72.4591 115 73.4428 115H80.3721ZM33.2976 101.387C32.0811 101.348 31 100.411 31 99.194V90.6389C31 90.6182 31.0172 90.6017 31.0379 90.602C44.5557 90.824 56.2415 99.9848 60.0046 112.609C60.3677 113.827 59.4166 115 58.1456 115H51.4563C50.5883 115 49.8258 114.433 49.5139 113.623C45.8524 104.116 38.244 101.543 33.2976 101.387Z" fill="white"/>
</svg>
