<svg xmlns="http://www.w3.org/2000/svg" fill="none" viewBox="0 0 110 110" height="400" width="400"><path fill="#E6E7E8" d="M42.5755 66.4125C42.438 66.572 42.0255 67.056 41.3985 67.738C39.1985 70.1635 34.3145 75.1685 29.634 77.7425C26.6365 79.3925 23.7105 80.047 21.6095 78.3805C21.4022 78.2041 21.2174 78.0027 21.0595 77.781C22.979 78.881 25.971 77.935 28.2095 76.813L28.2975 76.7745C33.1705 74.4975 39.523 69.234 42.5755 66.4125Z"></path><path fill="#E6E7E8" d="M52.2885 91.1625C51.7476 92.9293 50.6612 94.4795 49.1851 95.591C47.7091 96.7026 45.919 97.3183 44.0715 97.35H15.4715C16.742 96.0465 17.1215 95.062 17.05 94.3195H40.3755C40.3755 94.3195 48.7905 95.0235 52.2885 91.1625Z"></path><path fill="#E6E7E8" d="M41.206 67.947C39.006 70.378 34.3145 75.1685 29.656 77.7425C29.656 77.7425 33.121 78.056 33.451 78.0945C37.961 75.3445 42.6415 70.1195 44.1705 68.332L43.307 67.727C42.5993 67.6818 41.889 67.7562 41.206 67.947Z"></path><path fill="#E6E7E8" d="M43.7195 80.1625L42.152 79.695L42.834 76.945L43.934 76.241C43.934 76.241 43.395 80.047 43.7195 80.1625Z"></path><path fill="#E6E7E8" d="M39.9795 88.275L38.7585 88.825C34.9855 87.373 30.3325 86.9 25.85 86.999C19.437 86.6635 17.9905 82.654 18.6285 79.299C18.018 83.9905 23.4685 83.666 28.974 84.139C35.4805 84.7 38.555 86.713 39.9795 88.275Z"></path><path fill="#FFD04D" d="M30.338 63.294C29.1843 62.8243 28.2475 61.9408 27.7111 60.8165C27.1746 59.6922 27.0773 58.4082 27.438 57.2159C27.7987 56.0236 28.5915 55.0089 29.6612 54.3705C30.7308 53.7321 32.0003 53.5161 33.2209 53.7646C34.4416 54.0132 35.5254 54.7085 36.2602 55.7144C36.9951 56.7202 37.3279 57.9642 37.1936 59.2026C37.0593 60.441 36.4675 61.5847 35.5342 62.4097C34.6008 63.2346 33.3931 63.6814 32.1475 63.6625C32.7622 63.9814 33.255 64.4935 33.55 65.12C35.039 64.8143 36.3769 64.0041 37.3376 62.8261C38.2983 61.6481 38.8229 60.1746 38.8229 58.6545C38.8228 57.1345 38.298 55.661 37.3372 54.4831C36.3764 53.3052 35.0385 52.495 33.5494 52.1895C32.0604 51.884 30.5115 52.1018 29.1645 52.8062C27.8175 53.5106 26.7549 54.6583 26.1563 56.0555C25.5576 57.4528 25.4596 59.0138 25.8788 60.4749C26.298 61.936 27.2087 63.2077 28.457 64.075C28.9976 63.6421 29.6498 63.3713 30.338 63.294V63.294Z"></path><path fill="#FFD04D" d="M58.949 64.9L52.8495 61.49L52.1345 62.92L54.7965 64.405L51.557 64.075L50.7925 65.5985L58.4925 66.3905C58.674 66.4057 58.8553 66.3584 59.0062 66.2563C59.1571 66.1542 59.2685 66.0035 59.3218 65.8293C59.3752 65.6551 59.3673 65.4679 59.2994 65.2989C59.2316 65.1298 59.1079 64.989 58.949 64.9V64.9Z"></path><path fill="#FFD04D" d="M16.126 70.4L22.5995 62.5075C22.6867 62.4005 22.7446 62.2728 22.7676 62.1368C22.7907 62.0007 22.778 61.861 22.7309 61.7313C22.6838 61.6016 22.6039 61.4864 22.4989 61.3969C22.3939 61.3073 22.2675 61.2465 22.132 61.2205L9.53699 58.8335L21.835 56.298C21.9753 56.2684 22.105 56.2015 22.2105 56.1044C22.3159 56.0073 22.3933 55.8836 22.4344 55.7462C22.4755 55.6089 22.4788 55.463 22.444 55.3239C22.4091 55.1849 22.3375 55.0578 22.2365 54.956L15.554 48.224L24.7115 50.6495C24.8349 50.6812 24.9641 50.6832 25.0884 50.6551C25.2127 50.6271 25.3285 50.5698 25.4263 50.4881C25.5242 50.4065 25.6011 50.3027 25.6509 50.1854C25.7006 50.068 25.7218 49.9406 25.7125 49.8135L25.1625 43.3675L30.162 47.5145C30.2493 47.5877 30.3513 47.6414 30.4611 47.6719C30.5709 47.7024 30.686 47.709 30.7985 47.6913C30.9111 47.6736 31.0186 47.6319 31.1137 47.5692C31.2088 47.5064 31.2894 47.424 31.35 47.3275L34.342 42.636L36.399 47.806C36.4441 47.9195 36.5147 48.0211 36.6053 48.103C36.6958 48.1849 36.804 48.2449 36.9215 48.2784C37.0389 48.3118 37.1625 48.3179 37.2826 48.2961C37.4028 48.2742 37.5163 48.2251 37.6145 48.1525L45.2265 42.493L41.5195 51.216C41.4688 51.3424 41.451 51.4796 41.4679 51.6147C41.4848 51.7499 41.5358 51.8785 41.6161 51.9885C41.6965 52.0985 41.8034 52.1863 41.927 52.2436C42.0505 52.3009 42.1866 52.3258 42.3225 52.316L52.6295 51.48L43.956 56.98C43.8384 57.0541 43.7422 57.1578 43.677 57.2806C43.6118 57.4034 43.5798 57.5411 43.5843 57.6801C43.5887 57.8191 43.6294 57.9544 43.7023 58.0728C43.7753 58.1912 43.8779 58.2885 44 58.355L46.0735 59.5155L46.7885 58.091L45.947 57.618L47.531 56.6115L48.576 54.527L50.0225 55.0275L50.38 54.802L50.5945 54.3675L50.9025 54.472L56.2155 51.095C56.363 50.9984 56.4743 50.8558 56.5321 50.6893C56.5899 50.5228 56.5909 50.3418 56.535 50.1747C56.4791 50.0076 56.3693 49.8636 56.223 49.7655C56.0766 49.6673 55.9019 49.6203 55.726 49.632L43.505 50.6L47.85 40.403C47.9184 40.2418 47.9318 40.0625 47.8883 39.8929C47.8447 39.7233 47.7465 39.5728 47.6088 39.4646C47.4712 39.3563 47.3017 39.2964 47.1266 39.294C46.9515 39.2917 46.7805 39.347 46.64 39.4515L37.51 46.255L35.2605 40.601C35.2066 40.4643 35.116 40.3452 34.9987 40.2568C34.8814 40.1683 34.742 40.114 34.5958 40.0998C34.4496 40.0856 34.3023 40.112 34.1702 40.1762C34.0381 40.2404 33.9262 40.3398 33.847 40.4635L30.503 45.7105L24.75 40.931C24.629 40.8307 24.481 40.7684 24.3247 40.7519C24.1684 40.7354 24.0107 40.7655 23.8714 40.8384C23.7321 40.9112 23.6175 41.0236 23.5419 41.1615C23.4663 41.2993 23.4331 41.4564 23.4465 41.613L24.0405 48.818L13.112 45.925C12.9424 45.8807 12.763 45.8935 12.6015 45.9614C12.4399 46.0293 12.3052 46.1485 12.2182 46.3006C12.1312 46.4527 12.0967 46.6293 12.1201 46.803C12.1434 46.9766 12.2234 47.1378 12.3475 47.2615L20.0475 55.0165L5.26349 58.069C5.0838 58.1061 4.92241 58.2041 4.80653 58.3463C4.69065 58.4886 4.62738 58.6665 4.62738 58.85C4.62738 59.0335 4.69065 59.2113 4.80653 59.3536C4.92241 59.4959 5.0838 59.5938 5.26349 59.631L20.504 62.5185L12.881 71.8245C12.766 71.9614 12.7004 72.133 12.6947 72.3117C12.689 72.4904 12.7435 72.6658 12.8494 72.8098C12.9554 72.9538 13.1066 73.0581 13.2789 73.1058C13.4512 73.1535 13.6346 73.142 13.7995 73.073L23.65 69.0085C24.3272 68.1275 25.0505 67.283 25.817 66.4785C25.531 66.462 26.3615 66.1595 16.126 70.4Z"></path><path fill="#7B80EE" d="M76.5655 25.5805C76.5022 24.1648 76.8642 22.7626 77.605 21.5545C76.175 20.4545 74.547 20.592 73.051 22.1045C72.9838 22.1968 72.8975 22.2736 72.798 22.3297C72.6985 22.3858 72.5882 22.4199 72.4744 22.4296C72.3606 22.4393 72.246 22.4245 72.1384 22.3861C72.0309 22.3478 71.9328 22.2867 71.8509 22.2072C71.7689 22.1276 71.705 22.0314 71.6635 21.925C71.622 21.8186 71.6038 21.7046 71.6101 21.5905C71.6165 21.4765 71.6473 21.3652 71.7004 21.2641C71.7535 21.163 71.8277 21.0744 71.918 21.0045C74.118 18.8045 76.582 18.8045 78.518 20.251C79.2837 19.2815 80.171 18.4145 81.158 17.6715C83.556 15.8345 86.3335 15.3835 88.781 17.1765C90.6895 14.0415 93.621 11.9405 97.152 12.8645C97.2535 12.8909 97.3488 12.937 97.4325 13.0002C97.5161 13.0633 97.5865 13.1424 97.6396 13.2328C97.6928 13.3232 97.7275 13.4232 97.742 13.527C97.7565 13.6309 97.7504 13.7365 97.724 13.838C97.6977 13.9395 97.6516 14.0348 97.5884 14.1184C97.5252 14.2021 97.4461 14.2725 97.3557 14.3256C97.2653 14.3787 97.1654 14.4135 97.0615 14.428C96.9577 14.4425 96.852 14.4364 96.7505 14.41C93.819 13.64 91.487 15.664 89.98 18.2875C91.3784 19.8843 92.1194 21.952 92.0535 24.0735C91.663 28.402 87.472 29.1555 86.735 25.6905C86.317 23.705 86.966 20.8505 88.022 18.6065C86.2785 17.193 84.249 17.314 82.126 18.942C81.1947 19.6386 80.3621 20.4582 79.651 21.3785C80.3641 22.2345 80.7758 23.3014 80.8225 24.4145C80.7895 28.4515 76.8845 29.117 76.5655 25.5805ZM78.716 22.8305C78.305 23.6315 78.1151 24.5277 78.166 25.4265C78.221 26.059 78.4245 26.257 78.463 26.2735C78.5369 26.2541 78.6036 26.214 78.6555 26.158C79.0644 25.6607 79.2619 25.0229 79.2055 24.3815C79.1741 23.8352 79.0058 23.3057 78.716 22.8415V22.8305ZM89.166 19.855C88.3245 21.868 87.978 23.9745 88.264 25.355C88.3135 25.575 88.506 26.3065 88.99 26.279C89.474 26.2515 90.2935 25.4815 90.431 23.925C90.4677 22.4705 90.0252 21.0443 89.1715 19.866L89.166 19.855Z"></path><path fill="#FFD04D" d="M69.949 90.453C69.9522 91.3019 70.2069 92.1307 70.6809 92.8349C71.1549 93.5392 71.8269 94.0871 72.6121 94.4097C73.3972 94.7323 74.2604 94.815 75.0926 94.6474C75.9247 94.4798 76.6886 94.0694 77.2876 93.468C77.8867 92.8667 78.2942 92.1012 78.4586 91.2685C78.623 90.4357 78.537 89.5728 78.2114 88.7889C77.8858 88.005 77.3352 87.3351 76.6292 86.8638C75.9232 86.3925 75.0933 86.141 74.2445 86.141C73.1033 86.1439 72.0099 86.5997 71.2045 87.4082C70.3991 88.2167 69.9475 89.3118 69.949 90.453V90.453Z"></path><path fill="#FF81B4" d="M28.8365 32.8295C28.7632 33.2659 28.5622 33.6707 28.2589 33.9929C27.9556 34.3151 27.5636 34.5401 27.1325 34.6397C26.7013 34.7392 26.2504 34.7087 25.8365 34.5521C25.4227 34.3955 25.0646 34.1197 24.8074 33.7596C24.5502 33.3996 24.4055 32.9714 24.3916 32.5291C24.3776 32.0869 24.495 31.6504 24.729 31.2748C24.963 30.8993 25.303 30.6015 25.7062 30.4191C26.1093 30.2367 26.5574 30.1778 26.994 30.25C27.2845 30.298 27.5627 30.4029 27.8126 30.5586C28.0626 30.7143 28.2793 30.9178 28.4505 31.1574C28.6216 31.397 28.7438 31.6681 28.8101 31.955C28.8763 32.2419 28.8853 32.5391 28.8365 32.8295V32.8295Z"></path><path fill="#550026" d="M26.631 32.736C26.5949 32.7421 26.5579 32.7411 26.5222 32.733C26.4865 32.7248 26.4527 32.7097 26.4228 32.6885C26.393 32.6673 26.3676 32.6404 26.3481 32.6094C26.3286 32.5784 26.3154 32.5439 26.3092 32.5078C26.3031 32.4716 26.3041 32.4347 26.3123 32.399C26.3204 32.3632 26.3355 32.3295 26.3567 32.2996C26.3779 32.2697 26.4048 32.2443 26.4358 32.2248C26.4668 32.2053 26.5014 32.1921 26.5375 32.186L41.6845 26.565C41.7539 26.5415 41.8296 26.5455 41.8962 26.5762C41.9627 26.6069 42.0149 26.6619 42.042 26.73C42.0668 26.7986 42.0633 26.8742 42.0324 26.9402C42.0014 27.0062 41.9455 27.0572 41.877 27.082C25.619 33.1265 26.708 32.736 26.631 32.736Z"></path><path fill="#550026" d="M40.9695 22.836C41.0851 22.6003 41.1126 22.3311 41.047 22.0769C40.9814 21.8227 40.8271 21.6004 40.612 21.45C40.6591 21.3082 40.6769 21.1583 40.6642 21.0094C40.6514 20.8605 40.6085 20.7157 40.538 20.584C40.4675 20.4522 40.3709 20.3362 40.254 20.243C40.1372 20.1498 40.0026 20.0814 39.8585 20.042C39.8583 19.8629 39.8163 19.6864 39.7358 19.5264C39.6553 19.3664 39.5385 19.2275 39.3948 19.1206C39.2511 19.0138 39.0844 18.942 38.9081 18.911C38.7317 18.88 38.5505 18.8906 38.379 18.942C38.1645 18.9915 36.4375 19.668 36.179 19.756C36.126 19.7899 36.0651 19.8093 36.0023 19.8121C35.9395 19.8149 35.877 19.8011 35.8212 19.7721C35.7655 19.7431 35.7183 19.6999 35.6846 19.6469C35.6508 19.5938 35.6316 19.5328 35.629 19.47C35.469 18.3457 34.968 17.2975 34.1935 16.467C33.209 15.5045 32.021 16.3185 32.472 17.567C33.187 19.525 32.9725 21.0485 30.998 21.758L29.348 22.363C29.2794 22.3878 29.2236 22.4388 29.1926 22.5048C29.1617 22.5709 29.1582 22.6464 29.183 22.715L31.0585 27.9015C31.0701 27.9359 31.0886 27.9676 31.1128 27.9946C31.137 28.0217 31.1665 28.0436 31.1993 28.059C31.2322 28.0744 31.2679 28.083 31.3041 28.0843C31.3404 28.0856 31.3766 28.0795 31.4105 28.0665L40.5405 24.7665C40.741 24.7185 40.924 24.6152 41.0686 24.4682C41.2132 24.3212 41.3136 24.1366 41.3583 23.9353C41.403 23.7341 41.3903 23.5243 41.3216 23.3299C41.2528 23.1355 41.1308 22.9644 40.9695 22.836V22.836ZM39.7155 22.737C38.3515 23.243 37.9445 23.331 37.587 23.694C36.8335 23.7325 36.6685 22.9295 37.587 22.594C37.8895 22.484 39.479 21.8735 39.743 21.813C40.4635 21.6315 40.689 22.363 40.4635 22.6215C40.2084 22.5965 39.9511 22.6362 39.7155 22.737V22.737ZM39.9905 20.746C40.09 20.8925 40.1276 21.0724 40.095 21.2465C39.6715 21.2025 39.4625 21.3235 37.389 22.088C37.189 22.1575 37.0028 22.2618 36.839 22.396C36.4045 22.209 36.443 21.626 37.18 21.362C37.4495 21.263 39.072 20.6415 39.336 20.581C39.4487 20.5372 39.5723 20.5296 39.6895 20.5591C39.8068 20.5887 39.912 20.654 39.9905 20.746ZM38.5 19.4645C38.5888 19.4331 38.6838 19.4232 38.7771 19.4358C38.8705 19.4483 38.9595 19.4829 39.0369 19.5366C39.1143 19.5903 39.1777 19.6617 39.2221 19.7448C39.2664 19.8279 39.2904 19.9203 39.292 20.0145C39.0115 20.064 38.104 20.4105 37.4 20.6745C37.0964 20.764 36.806 20.8934 36.5365 21.0595C36.179 20.8945 36.168 20.35 36.7785 20.097C38.2305 19.5525 38.467 19.4755 38.5 19.4645ZM33 17.358C32.7525 16.676 33.2475 16.291 33.825 16.8465C34.5193 17.6132 34.9659 18.5717 35.1065 19.5965C35.1327 19.7808 35.2156 19.9523 35.3437 20.0874C35.4719 20.2224 35.6388 20.3142 35.8215 20.35C35.7389 20.5521 35.7272 20.7763 35.7881 20.9859C35.849 21.1956 35.979 21.3785 36.157 21.505C36.0379 21.7072 35.9895 21.9433 36.0195 22.176C35.4499 23.16 34.5216 23.8854 33.429 24.2C33.3941 24.2115 33.3618 24.2299 33.3341 24.2541C33.3065 24.2783 33.2839 24.3078 33.2678 24.3409C33.2518 24.374 33.2425 24.4099 33.2406 24.4467C33.2386 24.4834 33.2441 24.5201 33.2566 24.5547C33.2691 24.5893 33.2884 24.621 33.3134 24.648C33.3383 24.6749 33.3685 24.6966 33.402 24.7118C33.4355 24.7269 33.4717 24.7352 33.5085 24.7361C33.5452 24.737 33.5818 24.7305 33.616 24.717C34.7215 24.3662 35.6779 23.6556 36.333 22.6985C36.3825 22.7418 36.4359 22.7805 36.4925 22.814C36.4293 22.956 36.4004 23.1109 36.4083 23.2662C36.4161 23.4214 36.4603 23.5726 36.5374 23.7076C36.6146 23.8426 36.7224 23.9575 36.8522 24.043C36.982 24.1285 37.1301 24.1823 37.2845 24.2C37.2379 24.3835 37.2488 24.5768 37.3157 24.7538C37.3826 24.9309 37.5023 25.0832 37.6585 25.19L33.165 26.8345L31.4765 22.1595C33.55 21.2795 33.7865 19.4755 33 17.358ZM29.8045 22.77L30.9595 22.352L32.648 27.0215L31.493 27.4395L29.8045 22.77ZM40.3755 24.2605C40.3755 24.2605 39.5835 24.508 38.8245 24.8105C37.7245 25.201 37.3835 24.2055 38.4505 23.8205C39.0005 23.6225 39.8035 23.32 39.9025 23.2705C40.92 22.8855 41.162 23.9745 40.3755 24.2605Z"></path><path fill="#7B80EE" d="M60.5715 70.8785C60.5218 71.1722 60.3861 71.4446 60.1816 71.6613C59.9771 71.8779 59.713 72.0291 59.4226 72.0957C59.1323 72.1623 58.8287 72.1414 58.5502 72.0355C58.2717 71.9297 58.0309 71.7436 57.8581 71.501C57.6853 71.2583 57.5883 70.9698 57.5794 70.672C57.5704 70.3743 57.65 70.0805 57.8079 69.8279C57.9658 69.5753 58.1951 69.3752 58.4667 69.2528C58.7384 69.1305 59.0402 69.0914 59.334 69.1405C59.5295 69.1731 59.7166 69.244 59.8846 69.3491C60.0527 69.4542 60.1983 69.5913 60.3133 69.7528C60.4282 69.9142 60.5102 70.0968 60.5545 70.2899C60.5988 70.4831 60.6046 70.6831 60.5715 70.8785Z"></path><path fill="#550026" d="M59.0535 70.906C58.9806 70.9192 58.9054 70.9028 58.8446 70.8605C58.7837 70.8182 58.7422 70.7535 58.729 70.6805C58.7159 70.6076 58.7323 70.5324 58.7746 70.4716C58.8169 70.4107 58.8816 70.3692 58.9545 70.356L70.565 66.0385C70.6306 66.022 70.6999 66.0301 70.7598 66.0614C70.8197 66.0928 70.866 66.145 70.8898 66.2083C70.9136 66.2715 70.9133 66.3414 70.8889 66.4044C70.8645 66.4674 70.8177 66.5193 70.7575 66.55C58.333 71.1865 59.1305 70.906 59.0535 70.906Z"></path><path fill="#550026" d="M72.4625 70.4275C72.3029 69.9958 72.0191 69.621 71.6468 69.3503C71.2746 69.0797 70.8305 68.9252 70.3707 68.9064C69.9108 68.8876 69.4556 69.0052 69.0625 69.2446C68.6694 69.484 68.3559 69.8343 68.1615 70.2515L67.9635 70.6805L67.54 70.4825C66.9799 70.2228 66.3396 70.1963 65.7599 70.4088C65.1802 70.6213 64.7087 71.0554 64.449 71.6155C64.1894 72.1756 64.1629 72.816 64.3754 73.3956C64.5878 73.9753 65.0219 74.4468 65.582 74.7065C70.323 76.9065 70.0095 76.769 70.103 76.769C70.155 76.768 70.2057 76.7525 70.2494 76.7243C70.2931 76.6962 70.3281 76.6564 70.3505 76.6095L72.3855 72.2095C72.5155 71.9323 72.5893 71.6321 72.6025 71.3262C72.6157 71.0203 72.5681 70.7149 72.4625 70.4275V70.4275ZM64.8945 73.1775C64.7803 72.849 64.765 72.4941 64.8506 72.157C64.9362 71.8198 65.1189 71.5152 65.376 71.281C65.6331 71.0467 65.9534 70.8931 66.297 70.8391C66.6406 70.7852 66.9925 70.8333 67.309 70.9775C68.057 71.324 68.0185 71.313 68.101 71.313C68.1535 71.314 68.205 71.2994 68.2491 71.2709C68.2932 71.2425 68.3278 71.2016 68.3485 71.1535L68.662 70.477C68.8597 70.0489 69.2193 69.7168 69.6618 69.5538C70.1043 69.3909 70.5934 69.4103 71.0215 69.608C71.4497 69.8056 71.7817 70.1653 71.9447 70.6078C72.1077 71.0503 72.0882 71.5394 71.8905 71.9675L69.9655 76.12L65.813 74.2005C65.6025 74.1034 65.4133 73.9653 65.2565 73.7944C65.0998 73.6235 64.9786 73.4232 64.9 73.205L64.8945 73.1775Z"></path><path fill="#550026" d="M32.032 62.1005C30.4865 62.1005 29.392 60.698 29.5625 59.0425C29.6152 58.271 29.9488 57.5457 30.5001 57.0035C31.0514 56.4613 31.7823 56.1399 32.5545 56.1C33.1431 56.114 33.7075 56.3369 34.1468 56.7289C34.5861 57.1208 34.8717 57.6563 34.9525 58.2395C35.1255 58.2797 35.2791 58.3788 35.387 58.52C35.4675 58.6278 35.5187 58.7547 35.5354 58.8882C35.552 59.0218 35.5336 59.1573 35.482 59.2816C35.4304 59.4059 35.3474 59.5146 35.241 59.5971C35.1347 59.6796 35.0087 59.7329 34.8755 59.752C34.7136 60.3953 34.3504 60.9702 33.8389 61.3926C33.3274 61.8151 32.6943 62.0631 32.032 62.1005V62.1005ZM32.5215 56.661C30.525 56.661 29.326 59.444 30.6515 60.929C31.8065 62.2325 33.9515 61.3745 34.3915 59.422C34.3993 59.3865 34.414 59.3529 34.4349 59.3232C34.4557 59.2935 34.4822 59.2681 34.5129 59.2487C34.5436 59.2293 34.5778 59.2161 34.6136 59.21C34.6494 59.2038 34.6861 59.2049 34.7215 59.213C34.7663 59.2246 34.8137 59.2217 34.8569 59.2047C34.9 59.1878 34.9367 59.1576 34.9617 59.1186C34.9867 59.0796 34.9987 59.0337 34.9961 58.9874C34.9934 58.9412 34.9763 58.8969 34.947 58.861C34.826 58.7015 34.705 58.861 34.5455 58.7235C34.5162 58.7011 34.4918 58.673 34.4738 58.6408C34.4559 58.6086 34.4447 58.5731 34.441 58.5365C34.4189 58.0376 34.2086 57.5656 33.8524 57.2155C33.4963 56.8655 33.0207 56.6634 32.5215 56.65V56.661Z"></path><path fill="#550026" d="M33.803 58.4375C33.935 58.8885 33.4125 59.2735 33.286 58.8335C33.1595 58.3935 33.6765 57.9975 33.803 58.4375Z"></path><path fill="#550026" d="M33.506 60.181C33.1635 60.1029 32.8477 59.9356 32.5908 59.6961C32.3338 59.4565 32.1448 59.1532 32.043 58.817C32.025 58.7832 32.0143 58.7459 32.0116 58.7077C32.0089 58.6694 32.0142 58.631 32.0272 58.595C32.0402 58.5589 32.0606 58.5259 32.087 58.4982C32.1135 58.4705 32.1455 58.4486 32.1809 58.434C32.2164 58.4193 32.2545 58.4123 32.2928 58.4132C32.3311 58.4142 32.3688 58.4232 32.4035 58.4395C32.4381 58.4559 32.469 58.4794 32.4941 58.5084C32.5191 58.5374 32.5378 58.5713 32.549 58.608C32.6189 58.8587 32.7539 59.0865 32.9404 59.2681C33.1268 59.4497 33.358 59.5787 33.6105 59.642C33.6457 59.6486 33.6792 59.6621 33.7091 59.6818C33.739 59.7014 33.7647 59.7269 33.7846 59.7566C33.8046 59.7863 33.8184 59.8196 33.8254 59.8547C33.8323 59.8898 33.8322 59.926 33.825 59.961C33.8116 60.0324 33.7706 60.0955 33.7108 60.1368C33.6511 60.178 33.5774 60.1939 33.506 60.181Z"></path><path fill="#7B80EE" d="M30.0025 57.585L34.9525 57.717C34.9525 57.717 34.672 55.473 32.5765 55.396C30.481 55.319 30.0025 57.585 30.0025 57.585Z"></path><path fill="#550026" d="M36.6905 58.0085L29.997 57.86C29.9607 57.86 29.9247 57.8527 29.8913 57.8385C29.8578 57.8243 29.8276 57.8034 29.8025 57.7772C29.7773 57.751 29.7577 57.72 29.7448 57.686C29.7319 57.652 29.726 57.6158 29.7275 57.5795C29.7304 57.507 29.7612 57.4385 29.8135 57.3882C29.8658 57.338 29.9355 57.3099 30.008 57.31L36.696 57.4585C36.7321 57.4592 36.7678 57.467 36.8008 57.4815C36.8339 57.496 36.8639 57.5169 36.8889 57.5429C36.9139 57.569 36.9336 57.5997 36.9467 57.6333C36.9599 57.667 36.9662 57.7029 36.9655 57.739C36.9627 57.8105 36.9327 57.8783 36.8816 57.9284C36.8304 57.9785 36.7621 58.0072 36.6905 58.0085Z"></path><path fill="#550026" d="M59.4 53.801C59.3527 53.8027 59.3058 53.7919 59.264 53.7697C59.2222 53.7475 59.1869 53.7146 59.1618 53.6745C59.1368 53.6343 59.1227 53.5883 59.121 53.541C59.1194 53.4937 59.1303 53.4468 59.1525 53.405L61.3525 49.005L55.5005 33.286C55.4873 33.2524 55.481 33.2166 55.482 33.1806C55.4829 33.1446 55.491 33.1091 55.5059 33.0763C55.5208 33.0435 55.5421 33.014 55.5685 32.9895C55.595 32.9651 55.6261 32.9462 55.66 32.934L83.8915 22.4125C83.9601 22.3877 84.0356 22.3912 84.1017 22.4221C84.1677 22.4531 84.2187 22.5089 84.2435 22.5775L91.3 41.5415C91.3132 41.575 91.3195 41.6109 91.3185 41.6469C91.3176 41.6829 91.3095 41.7184 91.2946 41.7512C91.2797 41.784 91.2584 41.8135 91.232 41.8379C91.2055 41.8624 91.1744 41.8813 91.1405 41.8935C58.0305 54.3345 59.4715 53.801 59.4 53.801ZM56.1 33.352L61.8915 48.9005C61.9063 48.9353 61.914 48.9727 61.914 49.0105C61.914 49.0483 61.9063 49.0857 61.8915 49.1205L59.95 53.0255L90.7005 41.4755L83.8255 23.0285L56.1 33.352Z"></path><path fill="#550026" d="M68.4365 41.679L67.8865 40.733C67.869 40.697 67.8599 40.6575 67.8599 40.6175C67.8599 40.5775 67.869 40.538 67.8865 40.502L68.354 39.512C68.4124 39.3782 68.4328 39.2308 68.4132 39.0861C68.3936 38.9414 68.3346 38.8048 68.2426 38.6914C68.1507 38.5779 68.0294 38.4918 67.8919 38.4426C67.7544 38.3933 67.6061 38.3827 67.463 38.412L66.913 38.533C66.8769 38.537 66.8419 38.548 66.8101 38.5655C66.7782 38.583 66.7501 38.6066 66.7274 38.635C66.7047 38.6633 66.6877 38.6959 66.6776 38.7307C66.6674 38.7656 66.6643 38.8022 66.6682 38.8383C66.6763 38.9112 66.7129 38.978 66.7702 39.0239C66.7985 39.0466 66.8311 39.0635 66.8659 39.0737C66.9008 39.0838 66.9374 39.087 66.9735 39.083C67.1852 39.0531 67.3947 39.009 67.6005 38.951C67.6454 38.9417 67.6921 38.945 67.7352 38.9606C67.7784 38.9762 67.8163 39.0035 67.8449 39.0395C67.8734 39.0754 67.8914 39.1186 67.8968 39.1642C67.9022 39.2097 67.8948 39.2559 67.8755 39.2975L67.4135 40.2875C67.3574 40.4044 67.331 40.5334 67.3367 40.6629C67.3425 40.7925 67.3802 40.9186 67.4465 41.03L67.9965 41.976C68.0214 42.0153 68.0344 42.061 68.034 42.1075C68.0336 42.154 68.0198 42.1994 67.9943 42.2383C67.9688 42.2772 67.9326 42.3079 67.89 42.3267C67.8475 42.3456 67.8004 42.3517 67.7545 42.3445L66.6545 42.207C66.5254 42.1907 66.3942 42.2062 66.2724 42.2522C66.1507 42.2982 66.042 42.3734 65.956 42.471L65.23 43.285C65.1995 43.3198 65.1599 43.3454 65.1156 43.3588C65.0713 43.3722 65.0242 43.3729 64.9795 43.3609C64.9349 43.3489 64.8945 43.3246 64.8629 43.2907C64.8313 43.2569 64.8099 43.2149 64.801 43.1695L64.5975 42.0695C64.5689 41.9481 64.5122 41.8351 64.4319 41.7396C64.3517 41.644 64.2501 41.5687 64.1355 41.5195L63.129 41.0795C63.0886 41.0587 63.0547 41.0272 63.031 40.9884C63.0074 40.9495 62.9949 40.905 62.9949 40.8595C62.9949 40.8141 63.0074 40.7695 63.031 40.7307C63.0547 40.6919 63.0886 40.6603 63.129 40.6395L64.086 40.0895C64.2001 40.0279 64.2971 39.9388 64.3681 39.8303C64.4392 39.7218 64.4821 39.5973 64.493 39.468L64.603 38.368C64.6075 38.3218 64.625 38.2777 64.6535 38.2409C64.6819 38.2042 64.7201 38.1761 64.7637 38.16C64.8074 38.144 64.8546 38.1405 64.9001 38.1501C64.9456 38.1596 64.9875 38.1818 65.021 38.214L65.1035 38.291C64.911 38.9895 64.999 39.3305 65.3345 39.5615C65.3868 39.6018 65.4465 39.6314 65.5103 39.6485C65.574 39.6656 65.6405 39.67 65.7059 39.6613C65.7714 39.6526 65.8344 39.631 65.8915 39.5979C65.9486 39.5647 65.9985 39.5206 66.0385 39.468C66.1601 39.2771 66.2092 39.0489 66.1769 38.8249C66.1446 38.6009 66.033 38.3958 65.8625 38.247L65.725 38.126C65.824 37.8345 65.967 37.4605 66.176 36.9765C66.1917 36.943 66.2006 36.9067 66.202 36.8697C66.2033 36.8327 66.1972 36.7959 66.184 36.7613C66.1708 36.7267 66.1508 36.6952 66.1251 36.6685C66.0994 36.6419 66.0686 36.6207 66.0345 36.6063C66.0004 36.5918 65.9638 36.5844 65.9268 36.5845C65.8897 36.5845 65.8531 36.592 65.8191 36.6066C65.7851 36.6211 65.7543 36.6424 65.7287 36.6691C65.7031 36.6958 65.6831 36.7274 65.67 36.762C65.5105 37.1305 65.384 37.4495 65.285 37.7245C65.1704 37.6504 65.0386 37.6069 64.9024 37.5983C64.7661 37.5896 64.6299 37.6161 64.5069 37.6751C64.3838 37.7342 64.2779 37.8239 64.1994 37.9356C64.1209 38.0472 64.0724 38.1772 64.0585 38.313L63.9485 39.413C63.9426 39.4546 63.9257 39.4938 63.8996 39.5266C63.8735 39.5595 63.8391 39.5848 63.8 39.6L62.843 40.15C62.7122 40.2214 62.604 40.3279 62.5306 40.4576C62.4573 40.5873 62.4218 40.735 62.4281 40.8839C62.4344 41.0327 62.4823 41.1769 62.5663 41.2999C62.6503 41.4229 62.7671 41.52 62.9035 41.58L63.91 42.02C63.9456 42.0366 63.977 42.061 64.0018 42.0915C64.0266 42.122 64.0441 42.1578 64.053 42.196L64.2565 43.296C64.2844 43.4425 64.3528 43.5782 64.4539 43.6877C64.555 43.7973 64.6848 43.8763 64.8285 43.9158C64.9723 43.9553 65.1242 43.9538 65.2671 43.9113C65.41 43.8688 65.5382 43.7871 65.637 43.6755L66.363 42.856C66.39 42.8269 66.4235 42.8048 66.4608 42.7914C66.4982 42.778 66.5382 42.7737 66.5775 42.779L67.6775 42.911C67.8285 42.9289 67.9816 42.9033 68.1185 42.8371C68.2554 42.7709 68.3706 42.6669 68.4504 42.5374C68.5302 42.4079 68.5712 42.2583 68.5688 42.1062C68.5663 41.9541 68.5204 41.8059 68.4365 41.679V41.679Z"></path><path fill="#550026" d="M76.34 38.72L75.79 37.774C75.7712 37.7394 75.7614 37.7006 75.7614 37.6612C75.7614 37.6219 75.7712 37.5831 75.79 37.5485L76.2575 36.553C76.3159 36.4191 76.3364 36.2718 76.3167 36.1271C76.2971 35.9823 76.2381 35.8458 76.1462 35.7323C76.0542 35.6188 75.9329 35.5328 75.7954 35.4835C75.658 35.4343 75.5096 35.4237 75.3665 35.453L74.8165 35.5795C74.7436 35.5875 74.6768 35.6242 74.6309 35.6814C74.585 35.7387 74.5637 35.8118 74.5718 35.8847C74.5798 35.9577 74.6165 36.0244 74.6737 36.0703C74.7309 36.1162 74.8041 36.1375 74.877 36.1295C75.0886 36.0988 75.298 36.0548 75.504 35.9975C75.5489 35.9881 75.5956 35.9914 75.6387 36.007C75.6819 36.0227 75.7199 36.05 75.7484 36.0859C75.7769 36.1219 75.7949 36.165 75.8003 36.2106C75.8057 36.2562 75.7983 36.3024 75.779 36.344L75.3115 37.334C75.2581 37.4518 75.2337 37.5807 75.2404 37.7099C75.2471 37.8391 75.2847 37.9648 75.35 38.0765L75.9 39.0225C75.9226 39.0621 75.9338 39.1072 75.9323 39.1528C75.9309 39.1984 75.9169 39.2427 75.8918 39.2808C75.8668 39.3189 75.8317 39.3494 75.7904 39.3688C75.7492 39.3883 75.7034 39.3959 75.658 39.391L74.558 39.2535C74.4302 39.2379 74.3006 39.2532 74.18 39.2982C74.0594 39.3432 73.9514 39.4165 73.865 39.512L73.139 40.3315C73.1085 40.3663 73.0689 40.3918 73.0246 40.4052C72.9804 40.4186 72.9332 40.4194 72.8885 40.4073C72.8439 40.3953 72.8035 40.371 72.7719 40.3372C72.7404 40.3034 72.7189 40.2614 72.71 40.216L72.5065 39.116C72.481 38.9899 72.4258 38.8718 72.3454 38.7713C72.2651 38.6709 72.1619 38.5911 72.0445 38.5385L71.038 38.0985C70.9959 38.0792 70.9602 38.0482 70.9352 38.0092C70.9101 37.9702 70.8968 37.9248 70.8968 37.8785C70.8968 37.8321 70.9101 37.7868 70.9352 37.7478C70.9602 37.7088 70.9959 37.6778 71.038 37.6585L71.995 37.1085C72.1084 37.0473 72.2049 36.9591 72.2759 36.8516C72.3469 36.7441 72.3902 36.6208 72.402 36.4925L72.512 35.3925C72.5153 35.3462 72.5318 35.3018 72.5596 35.2647C72.5874 35.2275 72.6253 35.1991 72.6688 35.1829C72.7122 35.1667 72.7595 35.1633 72.8048 35.1731C72.8501 35.183 72.8917 35.2057 72.9245 35.2385L73.007 35.3155C72.82 36.014 72.908 36.355 73.2435 36.5805C73.2951 36.6214 73.3543 36.6514 73.4177 36.6689C73.4811 36.6864 73.5474 36.6909 73.6126 36.6821C73.6778 36.6734 73.7406 36.6516 73.7972 36.6181C73.8538 36.5846 73.903 36.54 73.942 36.487C74.0667 36.298 74.1176 36.0698 74.0852 35.8458C74.0527 35.6217 73.9392 35.4173 73.766 35.2715L73.59 35.2C73.689 34.914 73.832 34.54 74.041 34.056C74.0702 33.9889 74.0715 33.9129 74.0447 33.8449C74.0179 33.7768 73.9651 33.7222 73.898 33.693C73.8309 33.6638 73.755 33.6625 73.6869 33.6893C73.6188 33.7161 73.5642 33.7689 73.535 33.836C73.3755 34.2045 73.249 34.5235 73.1445 34.804C73.0303 34.7295 72.8989 34.6858 72.7629 34.6771C72.6268 34.6683 72.4909 34.6948 72.3681 34.754C72.2453 34.8132 72.1399 34.903 72.062 35.0149C71.9841 35.1267 71.9364 35.2568 71.9235 35.3925L71.8135 36.4925C71.8092 36.5323 71.7954 36.5705 71.7734 36.604C71.7515 36.6374 71.7218 36.6652 71.687 36.685L70.7245 37.235C70.5939 37.3068 70.4861 37.4138 70.4132 37.5438C70.3403 37.6738 70.3053 37.8217 70.3122 37.9705C70.3191 38.1194 70.3675 38.2634 70.4521 38.3861C70.5366 38.5089 70.6539 38.6055 70.7905 38.665L71.797 39.0995C71.833 39.1169 71.8647 39.1423 71.8894 39.1738C71.9142 39.2052 71.9315 39.2419 71.94 39.281L72.1435 40.381C72.1722 40.5263 72.2407 40.6607 72.3414 40.7692C72.4421 40.8778 72.5711 40.9561 72.7138 40.9955C72.8565 41.0349 73.0074 41.0338 73.1495 40.9923C73.2916 40.9508 73.4194 40.8705 73.5185 40.7605L74.25 39.8585C74.277 39.8291 74.3104 39.8064 74.3476 39.7921C74.3848 39.7778 74.4248 39.7723 74.4645 39.776L75.5645 39.9135C75.7111 39.9294 75.8593 39.9043 75.9925 39.841C76.1258 39.7778 76.2388 39.6788 76.3192 39.5551C76.3995 39.4315 76.444 39.2879 76.4477 39.1405C76.4514 38.9931 76.4141 38.8475 76.34 38.72V38.72Z"></path><path fill="#550026" d="M84.447 35.75L83.897 34.804C83.8795 34.768 83.8704 34.7285 83.8704 34.6885C83.8704 34.6485 83.8795 34.609 83.897 34.573L84.3645 33.583C84.4229 33.4491 84.4433 33.3018 84.4237 33.1571C84.4041 33.0124 84.3451 32.8758 84.2532 32.7623C84.1612 32.6488 84.0399 32.5628 83.9024 32.5135C83.7649 32.4643 83.6166 32.4537 83.4735 32.483L82.9235 32.6095C82.8506 32.6175 82.7838 32.6542 82.7379 32.7114C82.692 32.7687 82.6707 32.8418 82.6787 32.9148C82.6868 32.9877 82.7234 33.0544 82.7807 33.1003C82.8379 33.1462 82.9111 33.1675 82.984 33.1595C83.1924 33.1191 83.3981 33.0658 83.6 33C83.6446 32.9891 83.6915 32.9911 83.735 33.0059C83.7785 33.0206 83.8169 33.0474 83.8458 33.0832C83.8746 33.1189 83.8927 33.1622 83.8979 33.2078C83.903 33.2535 83.8951 33.2997 83.875 33.341L83.413 34.3365C83.3573 34.4526 83.3312 34.5806 83.337 34.7091C83.3427 34.8377 83.3802 34.9629 83.446 35.0735L83.996 36.0195C84.0209 36.0588 84.0339 36.1044 84.0335 36.151C84.0331 36.1975 84.0193 36.2429 83.9938 36.2818C83.9683 36.3206 83.9321 36.3513 83.8895 36.3702C83.847 36.389 83.7999 36.3952 83.754 36.388L82.654 36.256C82.5262 36.2394 82.3962 36.2543 82.2755 36.2994C82.1547 36.3444 82.0468 36.4183 81.961 36.5145L81.235 37.334C81.2041 37.3688 81.1641 37.3943 81.1194 37.4074C81.0748 37.4205 81.0273 37.4207 80.9825 37.4081C80.9377 37.3955 80.8974 37.3705 80.8662 37.336C80.835 37.3014 80.8141 37.2588 80.806 37.213L80.6025 36.1405C80.5778 36.0134 80.5229 35.8942 80.4425 35.7927C80.3621 35.6913 80.2586 35.6106 80.1405 35.5575L79.1395 35.1175C79.0974 35.0982 79.0617 35.0672 79.0366 35.0282C79.0116 34.9892 78.9983 34.9438 78.9983 34.8975C78.9983 34.8512 79.0116 34.8058 79.0366 34.7668C79.0617 34.7278 79.0974 34.6968 79.1395 34.6775L80.102 34.1275C80.214 34.0653 80.3092 33.9767 80.3792 33.8693C80.4491 33.762 80.4918 33.6391 80.5035 33.5115L80.6135 32.4115C80.6188 32.3663 80.6365 32.3235 80.6646 32.2877C80.6927 32.2519 80.7301 32.2245 80.7727 32.2086C80.8154 32.1927 80.8616 32.1888 80.9062 32.1974C80.9509 32.2061 80.9924 32.2269 81.026 32.2575L81.1085 32.3345C80.9215 33.033 81.0095 33.374 81.345 33.605C81.4511 33.685 81.5844 33.72 81.7161 33.7025C81.8479 33.685 81.9674 33.6164 82.049 33.5115C82.1711 33.3203 82.2199 33.0914 82.1866 32.8671C82.1532 32.6427 82.0399 32.4379 81.8675 32.2905L81.7355 32.1695C81.8345 31.878 81.9775 31.5095 82.1865 31.02C82.2142 30.9536 82.2147 30.8789 82.188 30.812C82.1613 30.7452 82.1094 30.6915 82.0435 30.6625C82.0103 30.6479 81.9745 30.6401 81.9383 30.6394C81.902 30.6387 81.866 30.6452 81.8322 30.6585C81.7985 30.6718 81.7677 30.6916 81.7417 30.7168C81.7156 30.7421 81.6948 30.7722 81.6805 30.8055C81.521 31.174 81.3945 31.493 81.2955 31.768C81.1809 31.6939 81.0491 31.6504 80.9129 31.6417C80.7766 31.6331 80.6404 31.6596 80.5174 31.7186C80.3943 31.7777 80.2884 31.8673 80.2099 31.979C80.1314 32.0907 80.0829 32.2207 80.069 32.3565L79.959 33.4565C79.9552 33.4957 79.9416 33.5334 79.9195 33.5661C79.8974 33.5987 79.8675 33.6253 79.8325 33.6435L78.87 34.1935C78.7409 34.2658 78.6345 34.3727 78.5626 34.5021C78.4908 34.6315 78.4563 34.7783 78.4632 34.9261C78.47 35.074 78.5179 35.217 78.6014 35.3392C78.6849 35.4614 78.8008 35.5579 78.936 35.618L79.9425 36.058C79.979 36.0747 80.0111 36.0999 80.0359 36.1315C80.0608 36.163 80.0778 36.2001 80.0855 36.2395L80.289 37.312C80.3157 37.4585 80.3833 37.5945 80.4838 37.7044C80.5843 37.8143 80.7138 37.8936 80.8574 37.9332C81.001 37.9729 81.1528 37.9712 81.2955 37.9284C81.4382 37.8857 81.5659 37.8036 81.664 37.6915L82.357 36.85C82.3837 36.8205 82.4172 36.7981 82.4546 36.7847C82.492 36.7712 82.5322 36.7672 82.5715 36.773L83.6715 36.9105C83.8135 36.9224 83.9561 36.8961 84.0844 36.8343C84.2128 36.7725 84.3222 36.6774 84.4014 36.5589C84.4806 36.4404 84.5266 36.3029 84.5346 36.1607C84.5426 36.0184 84.5123 35.8766 84.447 35.75Z"></path><path fill="#FF9A3E" d="M93.8795 40.744C93.679 40.7432 93.4862 40.6669 93.3394 40.5303C93.1927 40.3937 93.1027 40.2069 93.0875 40.007C93.0785 39.9028 93.0904 39.7978 93.1224 39.6982C93.1545 39.5987 93.2061 39.5065 93.2742 39.4271C93.3423 39.3477 93.4256 39.2827 93.5192 39.2359C93.6127 39.1891 93.7146 39.1614 93.819 39.1545L96.8605 38.918C96.9663 38.907 97.0732 38.9172 97.175 38.9481C97.2768 38.9791 97.3713 39.03 97.4531 39.0981C97.5349 39.1661 97.6022 39.2498 97.6512 39.3442C97.7001 39.4386 97.7297 39.5419 97.7381 39.6479C97.7466 39.754 97.7337 39.8606 97.7003 39.9616C97.6669 40.0626 97.6137 40.1559 97.5437 40.236C97.4737 40.3161 97.3884 40.3813 97.2928 40.428C97.1972 40.4746 97.0932 40.5016 96.987 40.5075L93.8795 40.744Z"></path><path fill="#6BD5EC" d="M93.1205 48.037C92.9796 48.0383 92.841 48.0017 92.7191 47.9311C92.5972 47.8604 92.4965 47.7584 92.4275 47.6355L90.8215 44.781C90.761 44.6897 90.72 44.5869 90.701 44.479C90.682 44.3711 90.6855 44.2604 90.7111 44.1539C90.7368 44.0474 90.7841 43.9474 90.8502 43.86C90.9162 43.7726 90.9995 43.6997 91.095 43.6459C91.1904 43.5922 91.2959 43.5586 91.4049 43.5474C91.5138 43.5362 91.6239 43.5475 91.7283 43.5808C91.8327 43.614 91.9291 43.6684 92.0116 43.7405C92.094 43.8126 92.1607 43.901 92.2075 44L93.8135 46.849C93.8816 46.9702 93.9168 47.1071 93.9156 47.246C93.9145 47.385 93.8771 47.5213 93.807 47.6414C93.737 47.7614 93.6368 47.8611 93.5164 47.9305C93.396 47.9999 93.2595 48.0366 93.1205 48.037V48.037Z"></path><path fill="#FFD04D" d="M53.438 14.784C53.438 14.9428 53.3909 15.0981 53.3027 15.2301C53.2145 15.3622 53.0891 15.4651 52.9423 15.5259C52.7956 15.5867 52.6341 15.6026 52.4784 15.5716C52.3226 15.5406 52.1795 15.4641 52.0672 15.3518C51.9549 15.2395 51.8784 15.0964 51.8475 14.9407C51.8165 14.7849 51.8324 14.6235 51.8932 14.4767C51.9539 14.33 52.0569 14.2046 52.1889 14.1163C52.321 14.0281 52.4762 13.981 52.635 13.981C52.848 13.981 53.0522 14.0656 53.2028 14.2162C53.3534 14.3668 53.438 14.571 53.438 14.784V14.784Z"></path><path fill="#7B80EE" d="M97.724 87.8295C97.724 87.9886 97.6767 88.144 97.5883 88.2762C97.4998 88.4084 97.374 88.5113 97.227 88.5719C97.0799 88.6325 96.9182 88.6481 96.7623 88.6167C96.6064 88.5852 96.4633 88.5082 96.3512 88.3953C96.2391 88.2825 96.1631 88.1389 96.1327 87.9828C96.1024 87.8266 96.1191 87.665 96.1807 87.5184C96.2423 87.3718 96.3461 87.2467 96.4789 87.1592C96.6116 87.0716 96.7674 87.0254 96.9265 87.0265C97.0317 87.0265 97.1358 87.0473 97.2329 87.0877C97.3301 87.1282 97.4182 87.1874 97.4923 87.262C97.5665 87.3367 97.6251 87.4252 97.6649 87.5226C97.7046 87.62 97.7247 87.7243 97.724 87.8295V87.8295Z"></path><path fill="#FF81B4" d="M107.25 58.3C107.249 58.4575 107.201 58.6111 107.113 58.7416C107.025 58.872 106.9 58.9734 106.754 59.0329C106.608 59.0924 106.448 59.1074 106.294 59.076C106.139 59.0446 105.998 58.9682 105.887 58.8565C105.776 58.7447 105.7 58.6026 105.67 58.4481C105.64 58.2935 105.656 58.1335 105.716 57.9881C105.777 57.8427 105.879 57.7184 106.01 57.631C106.141 57.5436 106.295 57.497 106.453 57.497C106.665 57.4985 106.867 57.5837 107.017 57.7341C107.166 57.8846 107.25 58.088 107.25 58.3V58.3Z"></path><path fill="#6BD5EC" d="M13.464 35.299C13.4629 35.4558 13.4156 35.6088 13.328 35.7388C13.2404 35.8689 13.1165 35.9702 12.9716 36.0302C12.8267 36.0902 12.6674 36.1061 12.5135 36.076C12.3597 36.046 12.2181 35.9712 12.1065 35.8611C11.9948 35.751 11.9182 35.6104 11.886 35.457C11.8538 35.3035 11.8676 35.144 11.9256 34.9983C11.9836 34.8527 12.0832 34.7273 12.2121 34.638C12.3409 34.5486 12.4932 34.4993 12.65 34.496C12.7566 34.4938 12.8625 34.513 12.9615 34.5524C13.0606 34.5919 13.1507 34.6507 13.2266 34.7256C13.3025 34.8005 13.3626 34.8898 13.4034 34.9883C13.4441 35.0868 13.4648 35.1924 13.464 35.299V35.299Z"></path><path fill="#FF9A3E" d="M4.345 78.573C4.345 78.7307 4.29823 78.8849 4.2106 79.0161C4.12297 79.1472 3.99841 79.2494 3.85269 79.3098C3.70697 79.3702 3.54662 79.386 3.39192 79.3552C3.23722 79.3244 3.09512 79.2485 2.98358 79.1369C2.87205 79.0254 2.7961 78.8833 2.76532 78.7286C2.73455 78.5739 2.75035 78.4135 2.81071 78.2678C2.87107 78.1221 2.97328 77.9975 3.10443 77.9099C3.23558 77.8223 3.38977 77.7755 3.5475 77.7755C3.75901 77.7755 3.96186 77.8595 4.11142 78.0091C4.26098 78.1587 4.345 78.3615 4.345 78.573V78.573Z"></path><path fill="#6BD5EC" d="M89.8865 79.255C89.1055 79.255 88.2365 78.6335 88.0055 77.1925C87.8979 76.2489 88.064 75.2943 88.484 74.4425C87.5215 74.052 86.669 74.4865 85.9705 75.2455C85.8983 75.3224 85.8116 75.3844 85.7154 75.4278C85.6193 75.4712 85.5155 75.4953 85.41 75.4986C85.3045 75.5019 85.1995 75.4845 85.1008 75.4472C85.0021 75.4099 84.9117 75.3535 84.8347 75.2813C84.7578 75.209 84.6959 75.1224 84.6524 75.0262C84.609 74.93 84.585 74.8263 84.5816 74.7208C84.5783 74.6153 84.5958 74.5103 84.6331 74.4116C84.6704 74.3128 84.7268 74.2224 84.799 74.1455C86.5205 72.281 88.2805 72.567 89.2705 73.0455C89.7497 72.3435 90.356 71.7373 91.058 71.258C92.565 70.2735 94.1545 70.3725 95.1115 71.5055C95.2479 71.6674 95.3144 71.8769 95.2963 72.0878C95.2783 72.2988 95.1772 72.4939 95.0152 72.6303C94.8533 72.7667 94.6439 72.8331 94.4329 72.8151C94.222 72.797 94.0269 72.6959 93.8905 72.534C93.2745 71.8025 92.2405 72.3965 91.9325 72.5945C91.3886 72.9625 90.92 73.4311 90.552 73.975C92.708 76.23 91.6575 79.255 89.8865 79.255ZM89.7655 75.559C89.5481 75.9919 89.4155 76.4623 89.375 76.945C89.4037 77.0919 89.4638 77.2308 89.5511 77.3523C89.6384 77.4738 89.7509 77.575 89.881 77.649C90.0297 77.52 90.1457 77.3575 90.2193 77.1748C90.293 76.9922 90.3222 76.7947 90.3045 76.5985C90.2067 76.2154 90.0223 75.8597 89.7655 75.559V75.559Z"></path><path fill="#550026" d="M44.165 76.1145C44.1459 76.0838 44.1209 76.0571 44.0915 76.036C44.0621 76.0149 44.0288 75.9999 43.9935 75.9917C43.9583 75.9835 43.9217 75.9824 43.886 75.9884C43.8503 75.9943 43.8162 76.0073 43.7855 76.0265L42.933 76.5765L42.427 75.658C42.392 75.5938 42.3329 75.5462 42.2628 75.5255C42.1926 75.5049 42.1172 75.513 42.053 75.548C41.9888 75.583 41.9412 75.6421 41.9205 75.7122C41.8999 75.7824 41.908 75.8578 41.943 75.922L42.537 77.022L41.3765 81.7135C41.3675 81.7482 41.3654 81.7843 41.3705 81.8198C41.3756 81.8552 41.3878 81.8893 41.4062 81.9201C41.4246 81.9508 41.449 81.9776 41.4779 81.9987C41.5068 82.0199 41.5396 82.0352 41.5745 82.0435C41.6095 82.0526 41.646 82.0547 41.6819 82.0496C41.7177 82.0446 41.7522 82.0325 41.7834 82.0142C41.8145 81.9958 41.8418 81.9714 41.8635 81.9424C41.8852 81.9135 41.901 81.8806 41.91 81.8455L43.0705 77.1595L44.0825 76.5215C44.1168 76.5021 44.1465 76.4756 44.1696 76.4437C44.1927 76.4119 44.2087 76.3754 44.2166 76.3368C44.2244 76.2982 44.2238 76.2584 44.2149 76.2201C44.206 76.1817 44.189 76.1457 44.165 76.1145V76.1145Z"></path><path fill="#550026" d="M48.499 61.391C48.411 61.391 48.499 61.424 46.8875 60.6375C46.8542 60.6217 46.8245 60.5994 46.8 60.5719C46.7756 60.5443 46.7569 60.5122 46.7451 60.4773C46.7333 60.4424 46.7286 60.4055 46.7313 60.3688C46.7341 60.3321 46.7442 60.2963 46.761 60.2635L47.9765 57.838C48.0085 57.7751 48.0631 57.7265 48.1294 57.702C48.1956 57.6775 48.2687 57.679 48.334 57.706L49.863 58.355C49.8977 58.3692 49.9291 58.3904 49.9552 58.4174C49.9813 58.4443 50.0014 58.4765 50.0143 58.5117C50.0273 58.5469 50.0327 58.5844 50.0303 58.6218C50.028 58.6592 50.0178 58.6958 50.0005 58.729L48.7465 61.2425C48.7226 61.2874 48.6869 61.3249 48.6433 61.3511C48.5997 61.3772 48.5498 61.391 48.499 61.391ZM47.399 60.2635L48.3945 60.753L49.401 58.7455L48.356 58.3L47.399 60.2635Z"></path><path fill="#7B80EE" d="M50.952 57.596C50.9033 57.5418 50.8358 57.5082 50.7633 57.5021C50.6907 57.4959 50.6185 57.5177 50.5615 57.563L48.455 59.3505L48.499 57.7005C48.499 57.6275 48.47 57.5576 48.4184 57.506C48.3669 57.4544 48.2969 57.4255 48.224 57.4255C48.151 57.4255 48.0811 57.4544 48.0295 57.506C47.978 57.5576 47.949 57.6275 47.949 57.7005L47.8885 59.95C47.8878 59.9865 47.8943 60.0229 47.9078 60.0569C47.9213 60.0909 47.9414 60.1219 47.9671 60.148C47.9927 60.1741 48.0232 60.1949 48.057 60.209C48.0907 60.2232 48.1269 60.2305 48.1635 60.2305C48.312 60.2305 48.1195 60.3515 50.9135 57.9865C50.9697 57.9393 51.0052 57.8721 51.0124 57.7991C51.0196 57.7261 50.9979 57.6532 50.952 57.596V57.596Z"></path><path fill="#550026" d="M105.655 97.097H81.455C82.717 95.3644 83.4315 93.2937 83.5065 91.1515C83.5638 89.7959 83.3454 88.4428 82.8645 87.174C82.3836 85.9053 81.6501 84.7474 80.7086 83.7704C79.7671 82.7934 78.6371 82.0176 77.387 81.4901C76.1369 80.9626 74.7928 80.6943 73.436 80.7015C71.4739 80.7033 69.5508 81.2498 67.881 82.28C66.957 82.7475 58.916 86.6305 51.6835 84.018C52.0355 79.475 51.8045 73.568 48.7905 70.169L55.3905 56.969C55.4084 56.934 55.4186 56.8956 55.4204 56.8564C55.4223 56.8171 55.4157 56.778 55.4011 56.7415C55.3865 56.705 55.3642 56.6721 55.3358 56.6449C55.3074 56.6177 55.2736 56.597 55.2365 56.584L48.6365 54.3015C48.5735 54.2786 48.5042 54.28 48.4421 54.3054C48.3801 54.3308 48.3298 54.3785 48.301 54.439L45.1165 60.786C45.0289 60.6756 44.9186 60.5853 44.7931 60.5212C44.6676 60.4571 44.5298 60.4207 44.389 60.4145C44.2482 60.4082 44.1078 60.4323 43.9771 60.485C43.8464 60.5377 43.7285 60.6178 43.6315 60.72L40.249 59.1855C40.1931 59.1554 40.1316 59.1372 40.0684 59.1322C40.0052 59.1271 39.9416 59.1353 39.8817 59.1562C39.8218 59.1771 39.7669 59.2103 39.7205 59.2536C39.6742 59.2969 39.6373 59.3494 39.6124 59.4077C39.5874 59.4661 39.5749 59.529 39.5757 59.5924C39.5764 59.6558 39.5903 59.7184 39.6166 59.7762C39.6428 59.8339 39.6808 59.8856 39.7282 59.9278C39.7755 59.9701 39.8311 60.002 39.8915 60.0215L43.043 61.281C42.5994 61.754 42.0922 62.1631 41.536 62.4965C39.141 64.019 36.8481 65.6964 34.672 67.518C34.5046 66.5921 34.1771 65.7024 33.704 64.889C33.4742 64.4605 33.158 64.0844 32.7754 63.7844C32.3928 63.4844 31.952 63.267 31.4811 63.1461C31.0102 63.0251 30.5193 63.0032 30.0395 63.0817C29.5596 63.1601 29.1013 63.3373 28.6935 63.602C26.0095 65.219 19.1895 72.71 20.284 76.912C16.434 79.189 14.784 83.919 16.511 87.703C16.5385 87.758 12.606 88.704 12.661 88.6875C12.562 88.7205 13.0845 88.1925 4.63097 97.13H3.04697C2.97448 97.1314 2.90535 97.1609 2.85408 97.2121C2.80281 97.2634 2.77338 97.3325 2.77197 97.405C2.77197 97.478 2.80095 97.5479 2.85252 97.5995C2.90409 97.651 2.97404 97.68 3.04697 97.68H105.655C105.728 97.68 105.798 97.651 105.849 97.5995C105.901 97.5479 105.93 97.478 105.93 97.405C105.934 97.3664 105.93 97.3274 105.918 97.2905C105.905 97.2536 105.886 97.2196 105.86 97.1907C105.834 97.1617 105.803 97.1385 105.767 97.1223C105.732 97.1062 105.694 97.0976 105.655 97.097V97.097ZM51.15 83.7815C50.3525 83.457 47.1295 78.892 30.558 77.539C34.958 74.8825 39.358 70.389 41.558 67.9855C42.026 67.8632 42.5116 67.8222 42.9935 67.8645L47.85 71.3405C47.8822 71.3639 47.9192 71.38 47.9583 71.3877C47.9973 71.3954 48.0376 71.3945 48.0763 71.3851C48.1151 71.3756 48.1513 71.3579 48.1824 71.3331C48.2136 71.3084 48.2391 71.2771 48.257 71.2415L48.543 70.6915C51.2765 73.9475 51.4855 79.541 51.15 83.7815ZM48.708 54.868L54.802 56.969L47.916 70.719L42.647 66.957L42.757 66.7425C43.4225 66.8855 45.573 67.188 46.1615 66.858C46.343 66.7581 46.489 66.6044 46.5795 66.418C46.7931 66.3847 46.9874 66.2748 47.126 66.1089C47.2647 65.9429 47.3382 65.7322 47.333 65.516C47.4904 65.5035 47.6423 65.4526 47.7755 65.3679C47.9087 65.2832 48.0192 65.1671 48.0973 65.0299C48.1754 64.8927 48.2188 64.7385 48.2236 64.5806C48.2284 64.4228 48.1945 64.2662 48.125 64.1245C48.5092 64.1237 48.8918 64.0738 49.2635 63.976C49.3593 63.9455 49.4501 63.901 49.533 63.844L50.666 64.3005C50.7111 64.3133 50.7594 64.3091 50.8017 64.2887C50.844 64.2684 50.8774 64.2333 50.8956 64.1901C50.9139 64.1468 50.9157 64.0984 50.9008 64.0539C50.8858 64.0095 50.8551 63.972 50.8145 63.9485L49.8245 63.4975C49.8681 63.3928 49.8897 63.2803 49.8879 63.1669C49.886 63.0535 49.8609 62.9417 49.8139 62.8385C49.7669 62.7352 49.6992 62.6428 49.6149 62.5669C49.5306 62.4911 49.4316 62.4334 49.324 62.3975C48.3679 62.1554 47.3925 61.9972 46.409 61.9245C45.859 61.6825 46.2385 61.9245 45.5455 61.1545L48.708 54.868ZM43.6205 61.468L44.605 61.8585C44.0986 61.8624 43.5931 61.9028 43.0925 61.9795C43.2905 61.8035 43.45 61.6495 43.6205 61.4735V61.468ZM20.746 75.603C21.0155 71.434 26.994 65.252 28.996 64.053C29.3412 63.8288 29.7293 63.679 30.1356 63.6131C30.5419 63.5471 30.9574 63.5665 31.3558 63.67C31.7542 63.7734 32.1267 63.9587 32.4495 64.2141C32.7724 64.4694 33.0385 64.7892 33.231 65.153C33.7302 65.9962 34.0539 66.9316 34.1825 67.903C33.011 68.6675 31.4325 69.751 29.898 70.851C29.6065 70.796 29.293 70.1195 29.436 69.9105L29.986 69.1735C30.0272 69.1133 30.0433 69.0395 30.031 68.9676C30.0187 68.8958 29.9789 68.8315 29.92 68.7885C29.8904 68.7674 29.857 68.7524 29.8216 68.7443C29.7862 68.7362 29.7495 68.7351 29.7137 68.7413C29.6779 68.7474 29.6437 68.7606 29.613 68.78C29.5823 68.7995 29.5558 68.8248 29.535 68.8545L26.235 73.502L24.1395 75.031C24.0804 75.0748 24.0411 75.1402 24.0303 75.2129C24.0195 75.2856 24.038 75.3597 24.0817 75.4188C24.1255 75.4778 24.1909 75.5171 24.2636 75.528C24.3364 75.5388 24.4104 75.5203 24.4695 75.4765C24.5245 75.383 31.35 70.4 34.65 68.2385C35.2495 67.848 39.468 64.2125 41.888 62.931C43.6095 62.0125 48.18 62.5625 49.1535 62.931C49.3735 63.008 49.489 63.3215 49.1095 63.481C47.9668 63.617 46.8172 63.6868 45.6665 63.69C45.5935 63.69 45.5236 63.719 45.472 63.7706C45.4204 63.8221 45.3915 63.8921 45.3915 63.965C45.3915 64.038 45.4204 64.1079 45.472 64.1595C45.5236 64.211 45.5935 64.24 45.6665 64.24C45.6665 64.24 46.6675 64.24 47.3165 64.1905C47.4142 64.202 47.5042 64.249 47.5696 64.3225C47.635 64.396 47.6711 64.4909 47.6711 64.5893C47.6711 64.6876 47.635 64.7826 47.5696 64.8561C47.5042 64.9296 47.4142 64.9765 47.3165 64.988C46.7949 65.0585 46.2697 65.0989 45.7435 65.109C45.7074 65.1097 45.6717 65.1176 45.6386 65.132C45.6056 65.1465 45.5756 65.1674 45.5506 65.1934C45.5256 65.2195 45.5059 65.2502 45.4928 65.2839C45.4796 65.3175 45.4732 65.3534 45.474 65.3895C45.474 65.4254 45.4811 65.4609 45.495 65.4939C45.5089 65.527 45.5292 65.557 45.5548 65.5821C45.5805 65.6072 45.6108 65.6269 45.6441 65.6401C45.6775 65.6533 45.7131 65.6597 45.749 65.659C45.749 65.659 46.266 65.659 46.805 65.604C46.7955 65.6614 46.772 65.7156 46.7365 65.7616C46.7009 65.8077 46.6546 65.8443 46.6015 65.868C46.1846 65.9457 45.7592 65.9678 45.3365 65.934C45.2635 65.926 45.1904 65.9473 45.1332 65.9932C45.0759 66.0391 45.0392 66.1058 45.0312 66.1788C45.0232 66.2517 45.0445 66.3248 45.0904 66.3821C45.1363 66.4393 45.203 66.476 45.276 66.484C44.9432 66.4924 44.6103 66.474 44.2805 66.429C43.7379 66.3839 43.1993 66.2994 42.669 66.176C42.6195 66.1637 42.5676 66.1655 42.519 66.181C42.4704 66.1966 42.4271 66.2253 42.394 66.264C38.082 71.3295 26.994 82.313 21.802 78.2045C21.4175 77.8979 21.1185 77.4976 20.9335 77.042C20.7486 76.5863 20.684 76.0908 20.746 75.603V75.603ZM51.843 91.619C51.2556 93.1592 50.2365 94.4972 48.9078 95.4727C47.5792 96.4482 45.9973 97.0199 44.352 97.119H16.0875C17.1875 95.8705 17.5395 94.7925 17.1875 93.896C16.698 92.5925 14.8445 92.114 13.8875 91.9545L17.523 88.1045C23.683 87.0045 32.2465 86.6635 38.566 89.0505L39.6 90.0075C39.6256 90.0332 39.6561 90.0535 39.6896 90.0674C39.7231 90.0813 39.759 90.0884 39.7952 90.0884C39.8315 90.0884 39.8674 90.0813 39.9009 90.0674C39.9344 90.0535 39.9648 90.0332 39.9905 90.0075C40.0161 89.9819 40.0365 89.9514 40.0503 89.9179C40.0642 89.8844 40.0713 89.8485 40.0713 89.8123C40.0713 89.776 40.0642 89.7401 40.0503 89.7066C40.0365 89.6731 40.0161 89.6427 39.9905 89.617L39.2535 88.8965L40.1005 88.528C40.1373 88.5164 40.1713 88.4972 40.2003 88.4716C40.2292 88.4459 40.2524 88.4145 40.2684 88.3793C40.2843 88.3441 40.2927 88.306 40.2929 88.2673C40.2932 88.2287 40.2852 88.1904 40.2697 88.155C40.2541 88.1197 40.2313 88.088 40.2027 88.062C40.1741 88.036 40.1403 88.0164 40.1036 88.0044C40.0668 87.9923 40.028 87.9882 39.9895 87.9922C39.9511 87.9962 39.9139 88.0082 39.8805 88.0275L38.7805 88.5115C34.958 87.0815 30.338 86.6305 25.916 86.735H25.8665C22.9735 86.581 20.845 85.635 19.712 83.985C19.2021 83.1733 18.8841 82.2561 18.7822 81.303C18.6802 80.3499 18.7969 79.3862 19.1235 78.485C19.5525 78.087 20.0205 77.7332 20.5205 77.429C20.7124 77.8389 20.9877 78.2042 21.329 78.5015C23.6665 80.5475 27.016 79.541 29.7495 78.0505C32.4665 78.2925 33.352 78.3585 35.3375 78.6335C40.1445 79.3155 45.6445 80.4705 49.599 83.2865C52.217 85.1455 52.954 88.7205 51.843 91.619V91.619ZM58.0415 97.119C57.4735 95.9393 56.6368 94.9093 55.5985 94.1117C54.5602 93.3141 53.3492 92.7711 52.063 92.5265C52.6898 91.2855 52.9792 89.9013 52.9019 88.5131C52.8247 87.1249 52.3836 85.7814 51.623 84.6175C51.623 84.6175 51.623 84.5845 51.623 84.568C57.2605 86.537 63.9485 84.887 68.167 82.753C69.7573 81.7709 71.5889 81.2493 73.458 81.246C74.7424 81.2387 76.0148 81.4928 77.1979 81.9927C78.3811 82.4926 79.4502 83.2279 80.3402 84.1539C81.2302 85.08 81.9226 86.1774 82.3752 87.3794C82.8278 88.5814 83.0312 89.8629 82.973 91.146C82.8954 93.3173 82.1244 95.4067 80.773 97.108L58.0415 97.119Z"></path><path fill="#FF81B4" d="M53.009 57.2935L49.731 56.0835L50.589 54.3675L53.9275 55.462L53.009 57.2935Z"></path><path fill="#550026" d="M54.0485 55.2145C53.9835 55.1819 53.9083 55.1763 53.8393 55.199C53.7702 55.2216 53.7129 55.2707 53.68 55.3355L52.8715 56.947L49.8245 55.847C49.7909 55.8338 49.7551 55.8275 49.7191 55.8285C49.6831 55.8294 49.6476 55.8375 49.6148 55.8524C49.582 55.8673 49.5525 55.8886 49.528 55.915C49.5036 55.9415 49.4847 55.9726 49.4725 56.0065C49.4477 56.0751 49.4512 56.1506 49.4821 56.2166C49.5131 56.2827 49.5689 56.3337 49.6375 56.3585C53.0255 57.6125 52.9375 57.5795 52.976 57.585C53.0123 57.591 53.0495 57.5887 53.0847 57.5782C53.12 57.5678 53.1524 57.5494 53.1795 57.5245C53.24 57.475 53.1795 57.607 54.1695 55.605C54.1901 55.5721 54.2034 55.5352 54.2084 55.4967C54.2135 55.4582 54.2101 55.419 54.1986 55.382C54.1871 55.3449 54.1678 55.3107 54.1419 55.2818C54.1159 55.2529 54.0841 55.2299 54.0485 55.2145V55.2145Z"></path></svg>