<svg xmlns="http://www.w3.org/2000/svg" fill="none" viewBox="0 0 110 110" height="400" width="400"><path fill="#E6E7E8" d="M62.6065 74.5635L53.933 66L58.223 61.7485C56.9525 60.566 56.232 59.9225 55.22 58.9985L18.601 95.0455L19.613 96.734H30.393C30.195 95.271 28.193 93.0325 26.092 92.939C34.2595 85.0685 49.4395 70.279 51.1225 68.5135L59.598 77.429C55.9294 83.5381 52.8959 90.0069 50.545 96.734H54.6645C57.0346 90.6315 59.8623 84.7169 63.1235 79.0405C63.5376 78.34 63.7112 77.5234 63.6179 76.715C63.5245 75.9067 63.1693 75.1511 62.6065 74.5635V74.5635Z"></path><path fill="#E6E7E8" d="M83.5065 29.5405C82.4734 29.5791 81.4478 29.7322 80.4485 29.997C81.7446 28.4423 82.8677 26.7512 83.798 24.9535C84.348 23.7875 83.347 23.3035 82.544 24.431C81.8608 25.2853 81.1261 26.0972 80.344 26.862C77.7645 29.832 74.415 32.7855 72.8035 34.5015L58.3 49.445L60.0655 51.249L61.457 49.797C60.423 48.147 62.084 45.595 64.251 45.595C64.5993 45.5922 64.9437 45.6693 65.2575 45.8205L75.8505 34.749C76.6141 33.9084 77.5528 33.2457 78.6005 32.8075C80.1185 32.2575 83.138 30.954 83.6275 30.6845C84.117 30.415 84.6065 29.579 83.5065 29.5405Z"></path><path fill="#E6E7E8" d="M90.9755 45.7545C90.563 45.3145 89.7545 45.6115 88.55 45.815C87.89 45.9305 86.7515 46.0295 86.1795 46.0845C86.1795 46.0185 75.8505 62.5515 68.618 65.8845C69.2335 66.1345 69.8854 66.2831 70.5485 66.3245C76.2355 66.583 83.006 54.648 84.4635 51.7495C85.1345 51.7055 85.5195 51.6615 85.5195 51.6615C86.6195 51.6065 89.078 51.304 89.3255 50.2425C89.3561 50.0925 89.3265 49.9364 89.243 49.808C90.42 49.4285 90.2275 48.378 89.8315 48.4715C90.728 48.0755 90.9315 47.0855 90.1615 47.1075C91.234 46.6565 91.234 46.035 90.9755 45.7545Z"></path><path fill="#550026" d="M20.834 84.898L12.7765 76.802C12.7242 76.7513 12.6542 76.7229 12.5813 76.7229C12.5084 76.7229 12.4384 76.7513 12.386 76.802L2.55752 86.702C2.53121 86.7267 2.51024 86.7565 2.49591 86.7896C2.48158 86.8227 2.47418 86.8584 2.47418 86.8945C2.47418 86.9306 2.48158 86.9663 2.49591 86.9994C2.51024 87.0325 2.53121 87.0623 2.55752 87.087L12.386 96.987C12.4384 97.0377 12.5084 97.0661 12.5813 97.0661C12.6542 97.0661 12.7242 97.0377 12.7765 96.987L17.1765 92.587C17.2269 92.5356 17.2551 92.4665 17.2551 92.3945C17.2551 92.3225 17.2269 92.2534 17.1765 92.202C17.151 92.1762 17.1205 92.1558 17.087 92.1418C17.0535 92.1278 17.0176 92.1207 16.9813 92.1207C16.945 92.1207 16.909 92.1278 16.8755 92.1418C16.842 92.1558 16.8116 92.1762 16.786 92.202L12.584 96.4205L3.14052 86.867L12.5785 77.385L20.4435 85.283C20.4691 85.3088 20.4995 85.3292 20.533 85.3432C20.5665 85.3572 20.6025 85.3644 20.6388 85.3644C20.6751 85.3644 20.711 85.3572 20.7445 85.3432C20.778 85.3292 20.8085 85.3088 20.834 85.283C20.8844 85.2316 20.9126 85.1625 20.9126 85.0905C20.9126 85.0185 20.8844 84.9494 20.834 84.898V84.898Z"></path><path fill="#550026" d="M39.1435 30.7175C29.1335 30.7175 19.9925 38.9015 18.7935 48.9555C17.248 61.6055 28.666 70.345 40.8925 66.2475C40.9607 66.2238 41.0169 66.1741 41.0488 66.1092C41.0807 66.0444 41.0858 65.9696 41.063 65.901C41.0524 65.8663 41.0349 65.8341 41.0116 65.8063C40.9883 65.7785 40.9596 65.7557 40.9272 65.7392C40.8948 65.7228 40.8595 65.7131 40.8233 65.7106C40.7871 65.7082 40.7507 65.7131 40.7165 65.725C28.8035 69.7235 17.853 61.226 19.338 49.0215C20.5315 39.2315 29.425 31.2675 39.1655 31.2675C48.906 31.2675 55.792 39.138 54.5985 48.95C54.5897 49.023 54.6103 49.0964 54.6557 49.1541C54.7011 49.2119 54.7675 49.2493 54.8405 49.258C54.9134 49.2668 54.9868 49.2462 55.0446 49.2008C55.1023 49.1554 55.1397 49.089 55.1485 49.016C56.3805 38.8465 49.1425 30.7175 39.1435 30.7175Z"></path><path fill="#FFD04D" d="M54.1695 58.19L55.0825 57.64C54.222 56.7387 53.6827 55.5789 53.548 54.34L51.832 57.2825C52.6603 57.4388 53.4528 57.7465 54.1695 58.19V58.19Z"></path><path fill="#FFD04D" d="M59.1745 62.6505L60.8245 59.5595C60.5935 59.2955 60.379 59.0425 60.1755 58.8005C59.3735 59.1013 58.5054 59.1811 57.662 59.0315V61.2315C58.179 61.699 58.674 62.15 59.1745 62.6505Z"></path><path fill="#FFD04D" d="M62.5845 53.812L66.5995 57.827L66.55 55.9185L72.138 59.2185L73.1335 58.1625L69.7565 52.6625H78.2815L78.584 52.3655L70.884 48.18L79.079 43.4885L69.652 43.747L73.3865 37.3395L65.274 45.8205C65.6311 46.0036 65.926 46.2883 66.1217 46.6386C66.3175 46.989 66.4052 47.3894 66.374 47.7895C66.445 47.7783 66.5177 47.786 66.5848 47.8116C66.652 47.8372 66.7113 47.8799 66.7569 47.9354C66.8024 47.991 66.8327 48.0575 66.8446 48.1284C66.8566 48.1993 66.8498 48.272 66.825 48.3395C66.782 48.4997 66.6866 48.6409 66.5541 48.7406C66.4215 48.8403 66.2593 48.8927 66.0935 48.8895C66.0376 49.0529 65.9538 49.2055 65.846 49.3405C65.714 49.5055 64.5645 48.664 64.2675 48.7355C63.6185 48.8895 64.2675 49.8355 64.6525 50.2205C65.0375 50.6055 63.745 50.7705 63.272 50.7705C62.9136 50.7834 62.5581 50.7024 62.2407 50.5354C61.9233 50.3685 61.655 50.1216 61.4625 49.819L60.071 51.271C53.944 44.968 56.4025 47.487 62.5845 53.812Z"></path><path fill="#FFD04D" d="M61.952 39.38L57.2825 31.13L57.541 40.601L49.401 35.816L54.351 43.8625H44.902L53.196 48.345L45.001 53.0365L53.592 52.8C53.7297 51.9567 54.0569 51.1555 54.549 50.457L56.5455 47.619C61.589 41.9595 63.2995 39.006 66.4455 36.2065V31.0475L61.952 39.38Z"></path><path fill="#E9E139" d="M16.225 56.562C16.0955 56.5605 15.9683 56.5269 15.855 56.464C15.7418 56.4012 15.6459 56.3112 15.576 56.2021C15.5062 56.0929 15.4646 55.9682 15.455 55.839C15.4454 55.7098 15.4681 55.5803 15.521 55.462C15.9115 54.637 14.971 53.9715 14.7015 53.812C14.1703 53.4891 13.5822 53.2707 12.969 53.1685C12.6518 54.0467 12.0264 54.7797 11.209 55.231C8.459 56.595 6.6935 53.889 9.1685 52.1895C9.93931 51.7253 10.8265 51.4907 11.726 51.513C11.6875 50.6385 11.121 50.017 10.0485 49.6595C9.95172 49.6274 9.86221 49.5765 9.7851 49.5097C9.70798 49.443 9.64476 49.3617 9.59905 49.2706C9.50674 49.0865 9.49134 48.8732 9.55625 48.6778C9.62117 48.4823 9.76107 48.3206 9.94518 48.2283C10.0363 48.1826 10.1356 48.1553 10.2373 48.148C10.3391 48.1406 10.4412 48.1534 10.538 48.1855C12.848 48.95 13.288 50.6 13.288 51.6505C14.0865 51.7908 14.8514 52.08 15.543 52.503C16.995 53.427 17.545 54.857 16.9345 56.1495C16.8667 56.2777 16.7642 56.3844 16.6388 56.4573C16.5134 56.5302 16.37 56.5665 16.225 56.562V56.562ZM9.5425 53.977C9.70027 54.0599 9.8758 54.1032 10.054 54.1032C10.2322 54.1032 10.4077 54.0599 10.5655 53.977C10.9458 53.6701 11.2681 53.2976 11.517 52.877C10.9838 52.9288 10.4632 53.0701 9.977 53.295C9.75083 53.4589 9.59549 53.7028 9.5425 53.977V53.977Z"></path><path fill="#FF81B4" d="M51.8265 16.159C51.5874 15.921 51.2993 15.738 50.9823 15.6226C50.6653 15.5073 50.3269 15.4625 49.9908 15.4913C49.6547 15.5201 49.3289 15.6218 49.0361 15.7894C48.7433 15.9569 48.4906 16.1863 48.2955 16.4615L44.55 15.6035C44.5511 15.1413 44.4148 14.6893 44.1585 14.3047C43.9022 13.9201 43.5373 13.6204 43.1104 13.4436C42.6834 13.2667 42.2135 13.2207 41.7603 13.3114C41.3071 13.4021 40.8911 13.6254 40.5651 13.953C40.2391 14.2806 40.0178 14.6976 39.9292 15.1512C39.8406 15.6048 39.8889 16.0745 40.0677 16.5006C40.2466 16.9268 40.5481 17.2902 40.9339 17.5446C41.3196 17.7991 41.7723 17.9333 42.2345 17.93L43.032 21.824C42.5842 22.1434 42.2636 22.6107 42.127 23.1435C41.9904 23.6763 42.0466 24.2403 42.2855 24.7357C42.5244 25.2311 42.9308 25.6261 43.4328 25.851C43.9348 26.0758 44.5001 26.1159 45.0288 25.9643C45.5575 25.8127 46.0156 25.4791 46.3222 25.0224C46.6287 24.5657 46.764 24.0154 46.7041 23.4686C46.6442 22.9218 46.3929 22.4139 45.9947 22.0344C45.5965 21.655 45.077 21.4285 44.528 21.395L43.714 17.391L44.022 17.0775L47.872 17.9575C47.8957 18.3336 48.0104 18.6982 48.2063 19.0202C48.4021 19.3421 48.6732 19.6116 48.9963 19.8056C49.3193 19.9996 49.6846 20.1122 50.0608 20.1337C50.437 20.1553 50.8128 20.0851 51.1559 19.9293C51.499 19.7735 51.7991 19.5366 52.0304 19.2392C52.2617 18.9417 52.4173 18.5925 52.4838 18.2216C52.5504 17.8507 52.5258 17.4692 52.4122 17.11C52.2987 16.7507 52.0996 16.4243 51.832 16.159H51.8265ZM41.668 15.059C41.7393 14.9851 41.8247 14.9264 41.9192 14.8863C42.0137 14.8462 42.1153 14.8255 42.218 14.8255C42.3206 14.8255 42.4222 14.8462 42.5167 14.8863C42.6112 14.9264 42.6967 14.9851 42.768 15.059C42.876 15.1676 42.9494 15.3058 42.9789 15.4561C43.0085 15.6064 42.9928 15.7621 42.934 15.9036C42.8752 16.045 42.7758 16.1658 42.6483 16.2508C42.5209 16.3358 42.3712 16.3812 42.218 16.3812C42.0648 16.3812 41.9151 16.3358 41.7876 16.2508C41.6602 16.1658 41.5608 16.045 41.502 15.9036C41.4431 15.7621 41.4275 15.6064 41.457 15.4561C41.4866 15.3058 41.56 15.1676 41.668 15.059V15.059ZM44.924 24.288C44.8523 24.3612 44.7667 24.4193 44.6723 24.459C44.5778 24.4987 44.4764 24.5191 44.374 24.5191C44.2715 24.5191 44.1701 24.4987 44.0757 24.459C43.9812 24.4193 43.8957 24.3612 43.824 24.288C43.716 24.1794 43.6426 24.0412 43.613 23.8909C43.5835 23.7406 43.5991 23.5849 43.658 23.4434C43.7168 23.302 43.8162 23.1812 43.9436 23.0962C44.071 23.0111 44.2208 22.9658 44.374 22.9658C44.5272 22.9658 44.6769 23.0111 44.8043 23.0962C44.9318 23.1812 45.0312 23.302 45.09 23.4434C45.1488 23.5849 45.1645 23.7406 45.1349 23.8909C45.1054 24.0412 45.032 24.1794 44.924 24.288V24.288ZM50.7375 18.3645C50.6662 18.4383 50.5807 18.4971 50.4862 18.5372C50.3917 18.5773 50.2901 18.598 50.1875 18.598C50.0848 18.598 49.9832 18.5773 49.8887 18.5372C49.7942 18.4971 49.7088 18.4383 49.6375 18.3645C49.5295 18.2559 49.4561 18.1177 49.4265 17.9674C49.397 17.8171 49.4126 17.6614 49.4715 17.5199C49.5303 17.3785 49.6297 17.2577 49.7571 17.1727C49.8845 17.0876 50.0343 17.0423 50.1875 17.0423C50.3407 17.0423 50.4904 17.0876 50.6178 17.1727C50.7453 17.2577 50.8447 17.3785 50.9035 17.5199C50.9623 17.6614 50.978 17.8171 50.9484 17.9674C50.9189 18.1177 50.8455 18.2559 50.7375 18.3645V18.3645Z"></path><path fill="#7B80EE" d="M88.55 45.1275V53.5645C88.5611 53.727 88.5386 53.8899 88.4841 54.0433C88.4295 54.1968 88.344 54.3373 88.2329 54.4563C88.1217 54.5753 87.9873 54.6701 87.838 54.735C87.6887 54.7998 87.5276 54.8333 87.3648 54.8333C87.2019 54.8333 87.0409 54.7998 86.8915 54.735C86.7422 54.6701 86.6078 54.5753 86.4966 54.4563C86.3855 54.3373 86.3 54.1968 86.2454 54.0433C86.1909 53.8899 86.1684 53.727 86.1795 53.5645V44.374C86.9992 44.5207 87.7961 44.774 88.55 45.1275V45.1275Z"></path><path fill="#550026" d="M104.291 96.459H5.65952C5.58659 96.459 5.51664 96.488 5.46507 96.5395C5.41349 96.5911 5.38452 96.661 5.38452 96.734C5.38452 96.8069 5.41349 96.8769 5.46507 96.9284C5.51664 96.98 5.58659 97.009 5.65952 97.009H104.291C104.364 97.009 104.434 96.98 104.485 96.9284C104.537 96.8769 104.566 96.8069 104.566 96.734C104.565 96.6615 104.535 96.5924 104.484 96.5411C104.433 96.4898 104.364 96.4604 104.291 96.459V96.459Z"></path><path fill="#550026" d="M43.0595 52.5635L40.7385 44.748C40.7236 44.6984 40.6949 44.6541 40.6559 44.6201C40.6169 44.5861 40.5691 44.5637 40.5179 44.5557C40.4668 44.5477 40.4144 44.5542 40.3669 44.5746C40.3193 44.595 40.2784 44.6284 40.249 44.671L38.599 47.014C37.6695 46.464 33.9625 44.011 34.0175 40.1225C34.0192 40.0633 34.0017 40.0052 33.9677 39.9567C33.9337 39.9083 33.8849 39.8721 33.8287 39.8535C33.7725 39.835 33.7118 39.8351 33.6556 39.8538C33.5995 39.8726 33.5509 39.9089 33.517 39.9575C32.1365 41.877 31.6415 43.8075 32.043 45.6445C32.659 48.455 35.1285 50.259 35.9645 50.8035L34.4465 53.0035C34.4162 53.0459 34.3985 53.096 34.3955 53.148C34.3926 53.2001 34.4045 53.2519 34.4298 53.2974C34.4552 53.3429 34.493 53.3803 34.5388 53.4052C34.5846 53.4301 34.6365 53.4415 34.6885 53.438L42.79 52.932C42.8351 52.9338 42.8799 52.9245 42.9205 52.9049C42.9611 52.8852 42.9963 52.8559 43.0229 52.8195C43.0496 52.7831 43.0668 52.7407 43.0732 52.6961C43.0796 52.6514 43.0749 52.6059 43.0595 52.5635ZM35.244 52.8385L36.4815 51.051C36.965 51.1811 37.4764 51.1639 37.95 51.0015C38.709 50.7155 38.786 50.0445 38.247 49.742C37.851 49.522 37.0425 49.533 36.311 50.3635C35.6015 49.9015 33.165 48.1635 32.593 45.5235C32.3025 43.9387 32.6462 42.3033 33.55 40.9695C34.034 45.1935 38.401 47.52 38.599 47.6245C38.6588 47.6528 38.7266 47.6595 38.7907 47.6434C38.8549 47.6274 38.9116 47.5896 38.951 47.5365L40.3975 45.452L42.4545 52.3875L35.244 52.8385ZM36.894 50.578C37.0136 50.4412 37.1632 50.3338 37.3311 50.2641C37.499 50.1945 37.6806 50.1645 37.862 50.1765C37.9022 50.1782 37.9416 50.1884 37.9777 50.2064C38.0137 50.2244 38.0455 50.2498 38.071 50.281C38.0045 50.3822 37.9024 50.4548 37.785 50.4845C37.4954 50.5921 37.1849 50.6316 36.8775 50.6L36.894 50.578Z"></path><path fill="#550026" d="M67.056 37.7025L61.226 31.6085C61.2019 31.5793 61.1721 31.5554 61.1384 31.5383C61.1046 31.5212 61.0677 31.5112 61.0299 31.509C60.9922 31.5068 60.9544 31.5124 60.9189 31.5255C60.8834 31.5386 60.8509 31.5588 60.8236 31.585C60.7963 31.6112 60.7747 31.6427 60.7601 31.6776C60.7455 31.7125 60.7383 31.7501 60.7389 31.7879C60.7395 31.8257 60.7479 31.863 60.7636 31.8975C60.7793 31.9319 60.8019 31.9627 60.83 31.988L66.6545 38.082C66.6801 38.1078 66.7105 38.1283 66.744 38.1422C66.7775 38.1562 66.8135 38.1634 66.8498 38.1634C66.8861 38.1634 66.922 38.1562 66.9555 38.1422C66.989 38.1283 67.0194 38.1078 67.045 38.082C67.0965 38.033 67.1266 37.9656 67.1287 37.8945C67.1307 37.8234 67.1046 37.7544 67.056 37.7025Z"></path><path fill="#550026" d="M88.4345 85.316L82.9345 79.7665C82.8822 79.7157 82.8121 79.6874 82.7393 79.6874C82.6664 79.6874 82.5963 79.7157 82.544 79.7665L77.044 85.316C76.9936 85.3674 76.9654 85.4365 76.9654 85.5085C76.9654 85.5805 76.9936 85.6496 77.044 85.701L82.544 91.245C82.5696 91.2708 82.6 91.2912 82.6335 91.3052C82.667 91.3191 82.7029 91.3263 82.7393 91.3263C82.7756 91.3263 82.8115 91.3191 82.845 91.3052C82.8785 91.2912 82.9089 91.2708 82.9345 91.245L88.4345 85.701C88.4849 85.6496 88.5131 85.5805 88.5131 85.5085C88.5131 85.4365 88.4849 85.3674 88.4345 85.316V85.316ZM82.7145 90.662L77.583 85.5085L82.7145 80.3495L87.8515 85.5085L82.7145 90.662Z"></path><path fill="#FF81B4" d="M28.05 74.514C28.0478 74.9748 27.9092 75.4246 27.6517 75.8066C27.3941 76.1886 27.0291 76.4858 26.6028 76.6607C26.1765 76.8355 25.708 76.8801 25.2564 76.7889C24.8047 76.6976 24.3902 76.4747 24.0652 76.1481C23.7402 75.8215 23.5192 75.406 23.4301 74.9539C23.341 74.5019 23.3878 74.0336 23.5646 73.6081C23.7414 73.1826 24.0403 72.819 24.4236 72.5633C24.8068 72.3075 25.2573 72.171 25.718 72.171C26.025 72.1717 26.3288 72.2329 26.6121 72.3511C26.8955 72.4692 27.1527 72.642 27.3693 72.8595C27.5858 73.0771 27.7574 73.3352 27.8742 73.6191C27.991 73.903 28.0507 74.2071 28.05 74.514V74.514Z"></path><path fill="#7B80EE" d="M104.329 76.9505C104.327 77.4101 104.189 77.8589 103.932 78.24C103.675 78.6211 103.311 78.9176 102.886 79.092C102.46 79.2664 101.993 79.3109 101.542 79.2199C101.092 79.1289 100.678 78.9065 100.354 78.5807C100.03 78.2549 99.8093 77.8403 99.7204 77.3893C99.6315 76.9383 99.6782 76.4711 99.8547 76.0466C100.031 75.6222 100.329 75.2595 100.712 75.0043C101.094 74.7492 101.543 74.613 102.003 74.613C102.309 74.6137 102.612 74.6747 102.895 74.7926C103.178 74.9104 103.434 75.0828 103.65 75.2999C103.866 75.5169 104.038 75.7744 104.154 76.0576C104.271 76.3408 104.33 76.6442 104.329 76.9505V76.9505Z"></path><path fill="#550026" d="M25.8885 74.0685L21.252 69.223C21.2269 69.1974 21.1969 69.177 21.1639 69.1631C21.1308 69.1492 21.0953 69.1421 21.0595 69.1421C21.0236 69.1421 20.9881 69.1492 20.9551 69.1631C20.922 69.177 20.8921 69.1974 20.867 69.223C20.8412 69.2485 20.8208 69.279 20.8068 69.3125C20.7928 69.346 20.7856 69.3819 20.7856 69.4182C20.7856 69.4545 20.7928 69.4905 20.8068 69.524C20.8208 69.5575 20.8412 69.5879 20.867 69.6135L25.5035 74.4645C25.556 74.5155 25.6266 74.5436 25.6999 74.5426C25.7731 74.5416 25.8429 74.5115 25.894 74.459C25.945 74.4065 25.9731 74.3358 25.9721 74.2626C25.9711 74.1894 25.941 74.1195 25.8885 74.0685V74.0685Z"></path><path fill="#550026" d="M88.737 91.256L84.1005 86.4105C84.0502 86.3573 83.9808 86.3262 83.9075 86.3241C83.8343 86.3221 83.7633 86.3492 83.71 86.3995C83.6568 86.4498 83.6257 86.5193 83.6236 86.5925C83.6216 86.6657 83.6487 86.7368 83.699 86.79L88.3355 91.641C88.3886 91.6836 88.4554 91.7055 88.5234 91.7025C88.5915 91.6995 88.6561 91.6718 88.7052 91.6247C88.7544 91.5776 88.7847 91.5142 88.7906 91.4464C88.7964 91.3785 88.7774 91.3109 88.737 91.256Z"></path><path fill="#550026" d="M65.5545 48.0315C65.626 48.455 65.0045 48.631 64.9385 48.2075C64.8725 47.784 65.4885 47.608 65.5545 48.0315Z"></path><path fill="#FF9A3E" d="M100.128 53.8395C100.014 53.8389 99.9013 53.8134 99.7984 53.7648C99.6954 53.7162 99.6043 53.6457 99.5315 53.5582C99.4587 53.4707 99.4059 53.3683 99.3768 53.2582C99.3477 53.1482 99.343 53.0331 99.363 52.921C99.913 49.918 97.075 47.6465 97.0475 47.6245C96.9118 47.5151 96.8165 47.3635 96.7769 47.1937C96.7373 47.0239 96.7557 46.8458 96.8291 46.6877C96.9024 46.5295 97.0266 46.4005 97.1818 46.3211C97.337 46.2417 97.5143 46.2165 97.6855 46.2495L102.889 47.3L99.2805 44.814C99.1707 44.7374 99.0825 44.6338 99.0243 44.5132C98.9661 44.3926 98.9398 44.259 98.9481 44.1254C98.9564 43.9917 98.9989 43.8624 99.0716 43.7499C99.1442 43.6375 99.2446 43.5455 99.363 43.483L101.943 42.1245L99.4015 41.5745C99.2794 41.5485 99.1653 41.4934 99.0691 41.4139C98.9728 41.3344 98.8971 41.2329 98.8485 41.1178C98.7999 41.0028 98.7798 40.8778 98.7899 40.7533C98.8 40.6289 98.84 40.5087 98.9065 40.403L100.265 38.203L97.6085 38.896C97.4672 38.9316 97.3187 38.9269 97.1799 38.8824C97.0411 38.838 96.9175 38.7556 96.8231 38.6446C96.7287 38.5336 96.6672 38.3984 96.6456 38.2542C96.6241 38.1101 96.6432 37.9628 96.701 37.829C96.701 37.796 98.219 34.265 97.515 31.3885C97.4844 31.1949 97.5277 30.9968 97.6363 30.8336C97.745 30.6704 97.9111 30.5541 98.1015 30.5077C98.292 30.4613 98.493 30.4882 98.6645 30.5831C98.8361 30.678 98.9656 30.834 99.0275 31.02C99.5775 33.187 99.0715 35.552 98.6315 37.0205L101.75 36.245C101.9 36.2028 102.06 36.2069 102.208 36.2569C102.356 36.307 102.486 36.4005 102.579 36.5254C102.673 36.6502 102.727 36.8005 102.734 36.9566C102.742 37.1126 102.701 37.2672 102.619 37.4L100.809 40.293L104.362 41.052C104.518 41.0865 104.66 41.168 104.768 41.2855C104.876 41.403 104.946 41.5508 104.967 41.709C104.989 41.8673 104.962 42.0283 104.889 42.1704C104.816 42.3126 104.701 42.429 104.561 42.504L101.2 44.275L106.893 48.1965C107.037 48.3001 107.142 48.4499 107.19 48.6212C107.238 48.7925 107.226 48.975 107.156 49.1386C107.086 49.3021 106.962 49.4369 106.806 49.5206C106.649 49.6044 106.468 49.632 106.293 49.599L99.6655 48.246C100.184 48.9502 100.558 49.7504 100.765 50.6001C100.971 51.4499 101.007 52.3323 100.87 53.196C100.84 53.3725 100.749 53.5331 100.614 53.6504C100.478 53.7677 100.307 53.8345 100.128 53.8395V53.8395Z"></path><path fill="#550026" d="M16.6155 76.1805L13.002 72.457C12.9769 72.4314 12.9469 72.411 12.9139 72.3971C12.8808 72.3833 12.8453 72.3761 12.8095 72.3761C12.7736 72.3761 12.7381 72.3833 12.7051 72.3971C12.672 72.411 12.6421 72.4314 12.617 72.457C12.5912 72.4826 12.5708 72.513 12.5568 72.5465C12.5428 72.58 12.5356 72.6159 12.5356 72.6522C12.5356 72.6885 12.5428 72.7245 12.5568 72.758C12.5708 72.7915 12.5912 72.8219 12.617 72.8475L16.236 76.571C16.2604 76.5999 16.2906 76.6235 16.3246 76.6403C16.3586 76.657 16.3957 76.6665 16.4336 76.6682C16.4714 76.67 16.5092 76.6639 16.5446 76.6503C16.58 76.6367 16.6122 76.616 16.6391 76.5894C16.6661 76.5628 16.6873 76.5309 16.7014 76.4957C16.7155 76.4605 16.7221 76.4228 16.7209 76.3849C16.7197 76.347 16.7107 76.3098 16.6945 76.2756C16.6782 76.2414 16.6551 76.2109 16.6265 76.186L16.6155 76.1805Z"></path><path fill="#550026" d="M102.327 76.758L97.3775 71.61C97.3524 71.5844 97.3224 71.564 97.2894 71.5502C97.2563 71.5363 97.2208 71.5291 97.185 71.5291C97.1491 71.5291 97.1136 71.5363 97.0806 71.5502C97.0475 71.564 97.0176 71.5844 96.9925 71.61C96.9667 71.6356 96.9462 71.666 96.9323 71.6995C96.9183 71.733 96.9111 71.7689 96.9111 71.8052C96.9111 71.8415 96.9183 71.8775 96.9323 71.911C96.9462 71.9445 96.9667 71.9749 96.9925 72.0005L101.942 77.1485C101.968 77.1741 101.998 77.1945 102.031 77.2083C102.064 77.2222 102.099 77.2294 102.135 77.2294C102.171 77.2294 102.206 77.2222 102.239 77.2083C102.272 77.1945 102.302 77.1741 102.327 77.1485C102.353 77.1229 102.374 77.0925 102.388 77.059C102.402 77.0255 102.409 76.9895 102.409 76.9532C102.409 76.9169 102.402 76.881 102.388 76.8475C102.374 76.814 102.353 76.7836 102.327 76.758V76.758Z"></path><path fill="#6BD5EC" d="M7.46898 74.712C7.46898 74.925 7.38437 75.1292 7.23378 75.2798C7.08319 75.4304 6.87894 75.515 6.66598 75.515C6.45301 75.515 6.24876 75.4304 6.09817 75.2798C5.94758 75.1292 5.86298 74.925 5.86298 74.712C5.86298 74.499 5.94758 74.2948 6.09817 74.1442C6.24876 73.9936 6.45301 73.909 6.66598 73.909C6.87894 73.909 7.08319 73.9936 7.23378 74.1442C7.38437 74.2948 7.46898 74.499 7.46898 74.712V74.712Z"></path><path fill="#FF81B4" d="M16.3295 26.0535C16.3295 26.2123 16.2824 26.3676 16.1942 26.4996C16.1059 26.6317 15.9805 26.7346 15.8338 26.7954C15.6871 26.8561 15.5256 26.872 15.3699 26.8411C15.2141 26.8101 15.071 26.7336 14.9587 26.6213C14.8464 26.509 14.7699 26.3659 14.7389 26.2101C14.708 26.0544 14.7239 25.8929 14.7846 25.7462C14.8454 25.5995 14.9483 25.4741 15.0804 25.3858C15.2124 25.2976 15.3677 25.2505 15.5265 25.2505C15.7395 25.2505 15.9437 25.3351 16.0943 25.4857C16.2449 25.6363 16.3295 25.8405 16.3295 26.0535V26.0535Z"></path><path fill="#550026" d="M69.003 96.591C68.7995 94.743 65.978 92.444 63.041 92.6805L68.7005 79.013C69.2342 77.8441 69.4284 76.5488 69.2612 75.2748C69.0939 74.0008 68.5718 72.7995 67.7545 71.808C65.098 67.7545 59.5045 62.458 55.2805 58.7125C53.944 57.4836 52.1901 56.8091 50.3745 56.826C49.2692 56.827 48.1758 57.0554 47.1625 57.497L51.5625 53.262C51.6089 53.2104 51.6341 53.1431 51.633 53.0737C51.6319 53.0043 51.6046 52.9379 51.5566 52.8878C51.5086 52.8377 51.4434 52.8076 51.3741 52.8036C51.3048 52.7995 51.2366 52.8218 51.183 52.866L45.1935 58.6355C44.9185 58.971 42.3335 60.8355 41.965 64.493C37.8015 68.4145 20.2565 85.0905 15.3395 89.716C15.2937 89.7587 15.2637 89.8158 15.2547 89.8778C15.2457 89.9398 15.2582 90.003 15.29 90.057L19.382 96.877C19.4054 96.9175 19.4391 96.951 19.4797 96.9742C19.5203 96.9974 19.5663 97.0094 19.613 97.009H30.393C30.569 97.009 30.7065 96.8825 30.6515 96.5855C30.382 95.161 28.6495 93.159 26.6915 92.7355C31.614 88 50.215 69.85 51.15 68.9095L59.279 77.4675C55.6544 83.53 52.6543 89.9447 50.325 96.613C50.3045 96.655 50.2949 96.7015 50.2973 96.7482C50.2997 96.7948 50.314 96.8401 50.3388 96.8797C50.3635 96.9194 50.398 96.952 50.4389 96.9747C50.4798 96.9973 50.5258 97.0091 50.5725 97.009H68.75C68.904 97.009 69.036 96.899 69.003 96.591ZM59.796 77.2365L55.6545 72.886C53.3995 70.4165 53.7515 66.209 53.757 66.165C53.7622 66.1081 53.7495 66.0511 53.7208 66.0018C53.6921 65.9525 53.6487 65.9133 53.5967 65.8897C53.5447 65.8661 53.4867 65.8593 53.4307 65.8702C53.3746 65.8811 53.3234 65.9092 53.284 65.9505C52.3655 66.913 28.9135 89.837 25.8995 92.741C25.8608 92.7781 25.8338 92.8258 25.8219 92.8781C25.8099 92.9304 25.8135 92.985 25.8322 93.0353C25.8509 93.0855 25.8839 93.1292 25.9272 93.161C25.9704 93.1928 26.022 93.2112 26.0755 93.214C26.6717 93.2551 27.2482 93.4442 27.753 93.764C25.4182 95.4121 22.6558 96.3482 19.8 96.459L15.906 89.9635C20.7625 85.393 37.939 69.0635 41.9705 65.2685C41.9747 66.1534 42.1619 67.0279 42.5205 67.837C42.5532 67.8989 42.6082 67.9461 42.6744 67.9688C42.7406 67.9916 42.813 67.9883 42.8768 67.9595C42.9406 67.9308 42.9911 67.8787 43.0179 67.8141C43.0447 67.7494 43.0458 67.677 43.021 67.6115C41.118 63.2995 44.8965 57.376 50.4185 57.376C52.1013 57.3538 53.7281 57.9801 54.9615 59.125C59.1635 62.8375 64.7185 68.1065 67.3475 72.1215C68.102 73.0422 68.582 74.1568 68.7328 75.3375C68.8836 76.5183 68.6989 77.7177 68.2 78.7985L62.359 92.906C62.3408 92.9523 62.3351 93.0025 62.3427 93.0517C62.3503 93.1009 62.3708 93.1471 62.4021 93.1857C62.4335 93.2244 62.4745 93.2539 62.5211 93.2715C62.5676 93.289 62.618 93.2938 62.667 93.2855C63.8591 93.1057 65.077 93.3303 66.1265 93.9235C64.0695 94.9465 59.609 96.415 50.9465 96.459C53.2642 89.8734 56.2401 83.5384 59.829 77.55C59.8556 77.5004 59.8666 77.4441 59.8607 77.3882C59.8548 77.3323 59.8323 77.2794 59.796 77.2365Z"></path><path fill="#E9E139" d="M88 67.232C87.8246 67.0578 87.6152 66.9215 87.3849 66.8317C87.1546 66.7418 86.9083 66.7002 86.6613 66.7095C86.4142 66.7188 86.1717 66.7787 85.9488 66.8856C85.7259 66.9925 85.5274 67.1441 85.3655 67.331L83.215 66.8415C83.1766 66.5032 83.0435 66.1825 82.8311 65.9165C82.6186 65.6504 82.3354 65.4497 82.014 65.3373C81.6926 65.225 81.346 65.2056 81.014 65.2815C80.6821 65.3573 80.3783 65.5252 80.1375 65.766C79.8968 66.0068 79.7288 66.3106 79.653 66.6425C79.5772 66.9745 79.5965 67.3211 79.7088 67.6425C79.8212 67.9639 80.0219 68.2471 80.288 68.4596C80.5541 68.672 80.8747 68.8051 81.213 68.8435L81.6695 71.0875C81.394 71.3269 81.197 71.6437 81.1044 71.9967C81.0117 72.3498 81.0276 72.7225 81.15 73.0664C81.2724 73.4102 81.4957 73.7091 81.7906 73.9242C82.0855 74.1392 82.4384 74.2603 82.8032 74.2717C83.168 74.2831 83.5278 74.1843 83.8355 73.9881C84.1433 73.7919 84.3848 73.5075 84.5284 73.1719C84.6721 72.8364 84.7112 72.4654 84.6408 72.1073C84.5703 71.7492 84.3935 71.4206 84.1335 71.1645C83.8715 70.904 83.5353 70.7311 83.171 70.6695L82.6925 68.332L84.931 68.8435C84.9801 69.1241 85.0947 69.3892 85.2656 69.6172C85.4364 69.8452 85.6587 70.0296 85.9143 70.1554C86.17 70.2812 86.4517 70.3449 86.7366 70.3413C87.0214 70.3376 87.3014 70.2668 87.5537 70.1345C87.8061 70.0022 88.0236 69.8122 88.1886 69.5799C88.3536 69.3477 88.4614 69.0797 88.5033 68.7979C88.5452 68.5161 88.5199 68.2284 88.4296 67.9582C88.3393 67.688 88.1864 67.4429 87.9835 67.243L88 67.232Z"></path><path fill="#550026" d="M63.1455 42.9C63.0158 42.0334 62.6751 41.212 62.1534 40.5081C61.6316 39.8041 60.9449 39.2392 60.1535 38.863C57.519 37.6475 56.8865 40.1885 58.6685 42.6085C59.62 43.901 61.16 44.5885 61.93 44.5885C62.8815 44.55 63.2885 43.8185 63.1455 42.9ZM62.15 44C61.6438 44.0321 61.1407 43.901 60.7145 43.626C58.6465 42.559 57.805 40.0345 58.3935 39.3085C58.463 39.2328 58.5483 39.1733 58.6433 39.1343C58.7384 39.0954 58.8409 39.0778 58.9435 39.083C59.4799 39.1648 59.9946 39.3528 60.4574 39.6362C60.9202 39.9195 61.3218 40.2924 61.6385 40.733C62.142 41.384 62.4713 42.1525 62.5955 42.966C62.645 43.2245 62.7 43.8735 62.15 44Z"></path><path fill="#550026" d="M63.899 44.759C63.8934 44.687 63.8596 44.6201 63.8051 44.5727C63.7505 44.5254 63.6796 44.5014 63.6075 44.506C63.0954 44.5447 62.6068 44.7363 62.205 45.056C62.1641 45.0931 62.1354 45.1417 62.1225 45.1954C62.1096 45.2491 62.1132 45.3054 62.1328 45.357C62.1524 45.4087 62.1871 45.4532 62.2323 45.4848C62.2775 45.5165 62.3313 45.5338 62.3865 45.5345C62.4528 45.5342 62.517 45.5109 62.568 45.4685C62.8888 45.2348 63.2714 45.1009 63.668 45.0835C63.7052 45.079 63.7411 45.0667 63.7733 45.0476C63.8055 45.0284 63.8334 45.0028 63.8551 44.9722C63.8769 44.9417 63.892 44.907 63.8995 44.8702C63.9071 44.8335 63.9069 44.7956 63.899 44.759Z"></path><path fill="#FF9A3E" d="M93.8465 45.166C93.7365 43.6445 93.7365 42.117 93.8465 40.5955C94.4364 41.2101 94.7658 42.0289 94.7658 42.8808C94.7658 43.7326 94.4364 44.5515 93.8465 45.166Z"></path><path fill="#7B80EE" d="M94.6 48.158C90.75 48.158 90.5245 44.165 83.6605 44.165C83.4848 44.1765 83.3086 44.1518 83.1428 44.0925C82.977 44.0332 82.8251 43.9405 82.6966 43.8201C82.5681 43.6997 82.4656 43.5542 82.3956 43.3926C82.3256 43.2311 82.2894 43.0569 82.2894 42.8808C82.2894 42.7047 82.3256 42.5304 82.3956 42.3689C82.4656 42.2073 82.5681 42.0618 82.6966 41.9415C82.8251 41.8211 82.977 41.7284 83.1428 41.669C83.3086 41.6097 83.4848 41.585 83.6605 41.5965C90.5465 41.5965 90.7225 37.6035 94.589 37.6035C94.2535 37.6035 93.962 38.8245 93.8245 40.5955C93.7145 42.117 93.7145 43.6445 93.8245 45.166C93.984 46.937 94.2755 48.158 94.6 48.158Z"></path><path fill="#550026" d="M94.6 37.3285C90.585 37.3285 90.486 41.3215 83.6605 41.3215C83.4554 41.3236 83.2527 41.3662 83.064 41.4467C82.8753 41.5272 82.7043 41.6441 82.5608 41.7906C82.4173 41.9372 82.3041 42.1106 82.2276 42.301C82.1511 42.4913 82.1128 42.6949 82.115 42.9C82.1164 42.9725 82.1458 43.0416 82.1971 43.0929C82.2484 43.1442 82.3175 43.1736 82.39 43.175C82.463 43.175 82.5329 43.146 82.5845 43.0944C82.636 43.0429 82.665 42.9729 82.665 42.9C82.665 42.7666 82.6914 42.6346 82.7426 42.5114C82.7938 42.3883 82.8688 42.2765 82.9634 42.1824C83.0579 42.0884 83.1701 42.014 83.2936 41.9634C83.417 41.9129 83.5492 41.8873 83.6825 41.888C90.211 41.888 90.8985 38.313 94.028 37.928C93.423 39.479 93.434 43.395 93.5715 45.199C93.8245 48.4495 94.3965 48.4495 94.611 48.4495C95.6835 48.4495 95.711 43.824 95.711 42.9C95.711 41.976 95.7 37.3285 94.6 37.3285ZM94.0885 40.898C94.5195 41.4702 94.7526 42.1671 94.7526 42.8835C94.7526 43.5999 94.5195 44.2968 94.0885 44.869C94.0097 43.5464 94.0134 42.2201 94.0995 40.898H94.0885Z"></path><path fill="#550026" d="M91.1185 46.7885L90.673 46.4585C90.4972 46.6249 90.2895 46.754 90.0625 46.838C89.6276 46.9781 89.1826 47.0848 88.7315 47.157C88.6593 47.1666 88.5939 47.2044 88.5496 47.2621C88.5052 47.3199 88.4856 47.3928 88.495 47.465C88.5059 47.5366 88.544 47.6011 88.6014 47.6452C88.6588 47.6893 88.731 47.7094 88.803 47.7015C89.2368 47.6366 89.6652 47.5392 90.0845 47.41C90.6345 47.245 90.343 47.927 89.738 48.202C89.1949 48.335 88.6437 48.4324 88.088 48.4935C88.0164 48.5044 87.9519 48.5426 87.9078 48.6C87.8637 48.6574 87.8435 48.7296 87.8515 48.8015C87.8624 48.8735 87.9003 48.9386 87.9575 48.9835C88.0148 49.0285 88.087 49.0499 88.1595 49.0435C88.8855 48.95 89.3695 48.8565 89.6445 48.796C90.156 48.6805 89.8095 49.346 89.1825 49.533C88.6271 49.6719 88.063 49.773 87.494 49.8355C87.4579 49.8402 87.423 49.852 87.3915 49.8701C87.3599 49.8883 87.3322 49.9125 87.31 49.9413C87.2878 49.9702 87.2715 50.0032 87.262 50.0383C87.2525 50.0735 87.25 50.1102 87.2547 50.1463C87.2594 50.1824 87.2712 50.2172 87.2893 50.2488C87.3075 50.2804 87.3317 50.308 87.3605 50.3303C87.3894 50.3525 87.4224 50.3688 87.4575 50.3783C87.4927 50.3878 87.5294 50.3902 87.5655 50.3855C88.1155 50.3195 88.506 50.248 88.7975 50.193C89.3805 50.0775 88.9075 50.5505 88.4455 50.7815C87.5127 51.1636 86.5164 51.3669 85.5085 51.381C85.4425 51.381 84.9145 51.458 83.8585 51.502C83.7855 51.502 83.7156 51.531 83.664 51.5826C83.6124 51.6341 83.5835 51.7041 83.5835 51.777C83.5835 51.85 83.6124 51.9199 83.664 51.9715C83.7156 52.023 83.7855 52.052 83.8585 52.052H84.029C81.763 56.397 75.548 66.2695 70.587 66.0495C66.6545 65.8735 61.017 59.6805 58.85 56.628C58.8052 56.5758 58.7425 56.5422 58.6742 56.5339C58.6059 56.5256 58.5369 56.5432 58.481 56.5833C58.425 56.6234 58.3861 56.6829 58.372 56.7503C58.3578 56.8176 58.3694 56.8878 58.4045 56.947L58.6465 57.277C57.3252 57.2596 56.0565 56.7565 55.0825 55.8635C53.779 54.604 53.46 52.5635 54.802 50.6385L56.606 48.0755C63.9375 55.572 60.7695 52.371 70.62 62.2105C70.6729 62.2552 70.7407 62.2783 70.8099 62.2752C70.8792 62.272 70.9446 62.2428 70.9933 62.1935C71.0419 62.1442 71.0701 62.0783 71.0723 62.0091C71.0745 61.9398 71.0504 61.8723 71.005 61.82L70.5375 61.3525L81.081 50.105C82.2512 48.9508 83.1853 47.5796 83.831 46.068C83.9828 45.7606 84.218 45.5022 84.5098 45.3222C84.8016 45.1423 85.1382 45.0481 85.481 45.0505H85.9485V46.0845C85.9485 46.1575 85.9774 46.2274 86.029 46.279C86.0806 46.3305 86.1505 46.3595 86.2235 46.3595C87.4482 46.2829 88.6653 46.1138 89.8645 45.8535C89.65 45.7105 89.419 45.5675 89.1715 45.43C88.2889 45.6054 87.3961 45.7248 86.4985 45.7875V44.6875C87.18 44.8327 87.8426 45.056 88.473 45.353C88.5058 45.3688 88.5414 45.3779 88.5778 45.3798C88.6141 45.3817 88.6505 45.3763 88.6848 45.364C88.7191 45.3518 88.7506 45.3328 88.7775 45.3082C88.8044 45.2837 88.8261 45.254 88.8415 45.221C88.8716 45.1553 88.8746 45.0804 88.8499 45.0124C88.8252 44.9445 88.7748 44.889 88.7095 44.858C87.9347 44.4941 87.1155 44.2334 86.273 44.0825C86.2334 44.0753 86.1927 44.0768 86.1538 44.087C86.1149 44.0972 86.0787 44.1158 86.0478 44.1415C86.0168 44.1672 85.9919 44.1993 85.9747 44.2357C85.9576 44.2721 85.9486 44.3118 85.9485 44.352V44.4785H85.481C85.039 44.4807 84.6063 44.6058 84.2313 44.8399C83.8564 45.074 83.554 45.4078 83.358 45.804C82.7451 47.2633 81.8519 48.5881 80.729 49.7035L70.1635 60.929L60.467 51.249L61.446 50.226C61.6761 50.4841 61.9596 50.689 62.2768 50.8267C62.594 50.9644 62.9373 51.0316 63.283 51.0235C63.283 51.0235 64.746 50.9905 64.966 50.4735C64.9961 50.3957 65.0023 50.3106 64.9837 50.2293C64.965 50.1479 64.9225 50.074 64.8615 50.017C64.6415 49.7915 64.108 49.0655 64.3115 48.994C64.5479 49.0709 64.7748 49.1742 64.988 49.302C65.538 49.577 65.857 49.764 66.088 49.5C66.1805 49.3938 66.2548 49.273 66.308 49.1425C66.9845 49.0325 67.408 48.224 66.99 47.751C66.9076 47.6528 66.7988 47.5803 66.6765 47.542C66.6631 47.1929 66.571 46.8514 66.4072 46.5429C66.2434 46.2343 66.0121 45.9667 65.7305 45.76L76.065 34.9415C76.7985 34.1273 77.704 33.4866 78.716 33.066C80.267 32.483 83.2755 31.196 83.776 30.921C83.9849 30.8257 84.1605 30.6699 84.2801 30.4739C84.3997 30.2778 84.4578 30.0504 84.447 29.821C84.392 29.5845 84.183 29.304 83.5175 29.271C82.7387 29.2896 81.9634 29.3817 81.202 29.546C82.2741 28.1372 83.227 26.6415 84.051 25.0745C84.711 23.6225 83.3305 22.8745 82.324 24.277C81.8331 24.8946 81.3099 25.4858 80.7565 26.048C80.8489 25.5381 80.8949 25.0208 80.894 24.5025C80.8555 23.0835 79.4805 22.8195 79.0735 24.2055C78.903 24.7995 78.727 25.3605 78.562 25.8555C78.5384 25.4852 78.4851 25.1173 78.4025 24.7555C78.0945 23.507 76.8185 23.573 76.7525 24.849C76.714 25.399 76.67 25.949 76.6205 26.4495C76.0705 24.915 74.668 25.2505 74.7835 26.6475C74.9265 28.424 75.405 29.986 73.623 30.976C63.9375 36.443 64.35 38.434 56.518 47.256C56.0945 47.729 56.6995 46.992 54.318 50.314C53.5141 51.4533 53.1379 52.8397 53.2557 54.229C53.3734 55.6184 53.9774 56.9217 54.9615 57.9095C55.6201 58.5696 56.4497 59.033 57.3571 59.2477C58.2646 59.4624 59.2139 59.4199 60.0985 59.125L60.148 59.18C59.598 59.7575 58.685 60.6485 55.748 63.547C55.719 63.5715 55.6954 63.6016 55.6787 63.6356C55.662 63.6696 55.6524 63.7067 55.6507 63.7446C55.649 63.7824 55.6551 63.8202 55.6687 63.8556C55.6823 63.891 55.703 63.9232 55.7296 63.9502C55.7562 63.9772 55.7881 63.9983 55.8233 64.0124C55.8585 64.0265 55.8962 64.0332 55.9341 64.032C55.9719 64.0308 56.0091 64.0218 56.0434 64.0055C56.0776 63.9893 56.1081 63.9661 56.133 63.9375C59.026 61.0995 59.95 60.1865 60.533 59.6035C62.953 62.392 67.0395 66.429 70.5485 66.5885C75.922 66.836 82.192 56.7435 84.6505 52.0025C85.2005 51.9695 85.085 51.964 85.921 51.9035V53.5535C85.921 53.9406 86.0744 54.3119 86.3475 54.5861C86.6207 54.8603 86.9914 55.0151 87.3785 55.0165C87.4514 55.0165 87.5214 54.9875 87.5729 54.936C87.6245 54.8844 87.6535 54.8145 87.6535 54.7415C87.6535 54.6686 87.6245 54.5986 87.5729 54.5471C87.5214 54.4955 87.4514 54.4665 87.3785 54.4665C87.1373 54.4651 86.9065 54.3682 86.7364 54.1972C86.5664 54.0261 86.471 53.7947 86.471 53.5535V51.8485C87.2312 51.7755 87.9743 51.5785 88.671 51.2655C89.221 50.996 89.716 50.545 89.595 49.9565C89.8878 49.8597 90.1303 49.6508 90.2695 49.3756C90.4086 49.1004 90.4331 48.7812 90.3375 48.488C90.5764 48.3521 90.7558 48.1316 90.8403 47.87C90.9248 47.6083 90.9083 47.3246 90.794 47.0745C90.9139 46.9934 91.023 46.8973 91.1185 46.7885V46.7885ZM66.11 47.7785C66.1083 47.8175 66.1149 47.8563 66.1294 47.8925C66.1439 47.9288 66.1659 47.9615 66.194 47.9885C66.222 48.0156 66.2556 48.0363 66.2923 48.0494C66.329 48.0625 66.3681 48.0677 66.407 48.0645C66.781 48.0315 66.4895 48.6145 66.1265 48.6145C65.7635 48.6145 65.824 48.9005 65.725 49.0545C65.296 48.884 64.581 48.3725 64.2125 48.466C64.1049 48.4834 64.0045 48.5308 63.9227 48.6028C63.841 48.6748 63.7812 48.7685 63.7505 48.873C63.6075 49.368 64.13 50.028 64.3665 50.2975C64.011 50.413 63.6402 50.4742 63.2665 50.479C62.9943 50.4877 62.7237 50.4354 62.4743 50.326C62.225 50.2165 62.0033 50.0527 61.8255 49.8465C60.6595 48.433 62.161 45.8755 64.251 45.8755C64.5026 45.8614 64.7543 45.9013 64.9893 45.9925C65.2242 46.0838 65.4369 46.2242 65.613 46.4045C65.7891 46.5848 65.9246 46.8007 66.0103 47.0377C66.096 47.2747 66.13 47.5273 66.11 47.7785V47.7785ZM73.876 31.504C75.9935 30.3215 75.4545 28.3855 75.317 26.6475C75.284 26.268 75.394 26.07 75.515 26.037C75.636 26.004 75.8835 26.169 76.032 26.5375C76.2085 27.0049 76.3429 27.4872 76.4335 27.9785L76.3565 28.5285C76.351 28.5643 76.3526 28.6008 76.3613 28.6359C76.37 28.671 76.3855 28.7041 76.4069 28.7332C76.4284 28.7623 76.4554 28.7869 76.4864 28.8056C76.5173 28.8243 76.5517 28.8366 76.5875 28.842C76.6603 28.8515 76.7339 28.832 76.7925 28.7878C76.8511 28.7436 76.8901 28.6781 76.901 28.6055C77.0385 27.599 77.165 26.7575 77.286 24.9315C77.286 24.6235 77.4125 24.4585 77.5115 24.4475C77.6105 24.4365 77.7865 24.585 77.8745 24.9315C78.0118 25.7288 78.0744 26.5371 78.0615 27.346L77.9405 27.9675C77.9341 28.0074 77.9365 28.0482 77.9474 28.0871C77.9582 28.126 77.9774 28.1621 78.0035 28.1929C78.0296 28.2237 78.0621 28.2485 78.0987 28.2656C78.1352 28.2827 78.1751 28.2917 78.2155 28.292C78.2789 28.292 78.3403 28.2701 78.3894 28.2301C78.4385 28.19 78.4723 28.1341 78.485 28.072L78.606 27.445C78.925 26.565 79.2605 25.5255 79.6015 24.3485C79.7115 23.9745 79.8985 23.7985 80.0195 23.837C80.1405 23.8755 80.333 24.101 80.344 24.5135C80.3261 25.2539 80.2358 25.9907 80.0745 26.7135L79.563 27.17C79.5337 27.1935 79.5096 27.2227 79.4921 27.2558C79.4746 27.2889 79.464 27.3253 79.461 27.3627C79.4581 27.4 79.4628 27.4376 79.4748 27.4731C79.4869 27.5086 79.5061 27.5412 79.5313 27.569C79.5565 27.5968 79.587 27.6191 79.6211 27.6347C79.6553 27.6502 79.6922 27.6586 79.7297 27.6594C79.7671 27.6601 79.8044 27.6532 79.8391 27.6391C79.8738 27.6249 79.9052 27.6038 79.9315 27.577C80.9614 26.6588 81.9108 25.6541 82.7695 24.574C83.105 24.1065 83.446 24.024 83.578 24.079C83.71 24.134 83.732 24.431 83.5505 24.8215C82.645 26.5609 81.5612 28.2013 80.3165 29.7165L79.398 29.821C79.325 29.821 79.2551 29.85 79.2035 29.9016C79.1519 29.9531 79.123 30.0231 79.123 30.096C79.123 30.169 79.1519 30.2389 79.2035 30.2905C79.2551 30.342 79.325 30.371 79.398 30.371C80.256 30.371 82.247 29.7605 83.468 29.821C84.2325 29.821 83.7155 30.316 83.468 30.448C82.9895 30.7065 79.9755 31.9935 78.4795 32.56C77.3896 33.007 76.4141 33.693 75.625 34.5675L65.175 45.496C62.744 44.5445 59.9775 47.5145 61.094 49.7585L60.0435 50.8585L56.8865 47.63C64.7515 38.808 64.35 36.85 73.876 31.504V31.504Z"></path></svg>