<svg xmlns="http://www.w3.org/2000/svg" fill="none" viewBox="0 0 110 110" height="400" width="400"><path fill="#6BD5EC" d="M70.3505 29.8265V42.108H72.0005C71.9779 41.7929 72.0114 41.4763 72.0995 41.173C72.1966 40.9879 72.3551 40.8422 72.5477 40.7609C72.7403 40.6797 72.9551 40.6679 73.1555 40.7275C73.2112 40.6206 73.2874 40.5258 73.3798 40.4486C73.4723 40.3713 73.5791 40.3131 73.6941 40.2773C73.8091 40.2415 73.9301 40.2289 74.0501 40.24C74.17 40.2512 74.2866 40.286 74.393 40.3425C74.482 40.2033 74.608 40.0916 74.7569 40.0199C74.9057 39.9482 75.0716 39.9193 75.2359 39.9364C75.4003 39.9535 75.5566 40.016 75.6875 40.1168C75.8183 40.2177 75.9186 40.3529 75.977 40.5075C76.1506 40.4083 76.3516 40.3682 76.5499 40.3929C76.7483 40.4177 76.9332 40.5062 77.077 40.645C77.1788 40.1273 77.4274 39.6497 77.7931 39.2694C78.1588 38.8891 78.6262 38.622 79.1395 38.5C79.5881 38.3462 80.0644 38.29 80.5365 38.335C80.6232 38.1638 80.7645 38.0264 80.938 37.9445C80.9012 37.8151 80.895 37.6789 80.9202 37.5467C80.9453 37.4146 81.0009 37.2901 81.0827 37.1832C81.1644 37.0764 81.27 36.9901 81.391 36.9313C81.5119 36.8725 81.645 36.8428 81.7795 36.8445H82.632V29.8265H70.3505ZM77.55 37.84C77.0171 38.2004 76.3747 38.3625 75.7346 38.2982C75.0944 38.2339 74.4971 37.9472 74.0465 37.488C73.9784 37.5641 73.8885 37.6173 73.789 37.6403C73.6895 37.6633 73.5853 37.655 73.4907 37.6164C73.3961 37.5778 73.3158 37.511 73.2607 37.425C73.2056 37.339 73.1785 37.238 73.183 37.136C73.1818 37.0488 73.2042 36.9629 73.2477 36.8874C73.2913 36.8119 73.3545 36.7496 73.4305 36.707C73.1281 36.2234 73.011 35.6467 73.101 35.0835C73.191 34.5203 73.4819 34.0087 73.92 33.6435C74.3309 33.3569 74.8147 33.1929 75.3152 33.1705C75.8156 33.1481 76.3122 33.2682 76.747 33.517C78.4465 34.408 79.013 36.7125 77.55 37.84Z"></path><path fill="#E6E7E8" d="M81.2735 42.108C81.1322 42.0835 80.9992 42.0245 80.8863 41.9361C80.7734 41.8478 80.6841 41.7328 80.6264 41.6016C80.5687 41.4704 80.5444 41.3269 80.5555 41.184C80.5667 41.0411 80.6131 40.9031 80.6905 40.7825C80.5351 40.7245 80.3991 40.624 80.298 40.4925C80.1969 40.3609 80.1348 40.2037 80.1188 40.0386C80.1027 39.8735 80.1334 39.7072 80.2072 39.5587C80.2811 39.4101 80.3952 39.2853 80.5365 39.1985C80.4715 39.0668 80.4377 38.9219 80.4377 38.775C80.4377 38.6281 80.4715 38.4832 80.5365 38.3515C80.0644 38.309 79.5887 38.3651 79.1395 38.5165C78.6263 38.6354 78.1581 38.8992 77.7905 39.2766C77.4229 39.6539 77.1714 40.1289 77.066 40.645C77.2272 40.8221 77.3139 41.0546 77.308 41.294C77.308 41.437 77.308 41.734 77.308 42.108H81.2735Z"></path><path fill="#E6E7E8" d="M50.8365 53.768C50.116 53.768 49.6375 54.0485 49.918 54.4995H49.8245C51.5955 54.802 53.3445 55.4675 54.307 56.573C57.2385 59.939 64.482 68.4145 64.482 68.4145L66.264 68.1285L56.0615 56.0285C55.3559 55.1272 54.4746 54.3788 53.471 53.8285C50.9245 52.3655 48.928 50.776 48.158 51.0125C47.025 51.3535 49.258 52.8 50.8365 53.768Z"></path><path fill="#E6E7E8" d="M66.671 82.8905C67.1116 82.2837 67.621 81.73 68.189 81.2405C67.4245 80.828 66.297 80.223 65.021 79.563L62.4085 80.883C63.7939 81.6249 65.2167 82.2949 66.671 82.8905V82.8905Z"></path><path fill="#E6E7E8" d="M72.864 75.768C73.7209 76.9642 75.012 77.7776 76.461 78.034C76.8578 78.1087 77.2628 78.1308 77.6655 78.1C78.2188 78.0285 78.7436 77.8124 79.1868 77.4735C79.63 77.1346 79.976 76.6848 80.19 76.1695C78.815 78.826 72.8695 76.593 73.524 71.962H73.293C72.4295 72.0775 71.6045 73.975 72.864 75.768Z"></path><path fill="#E6E7E8" d="M28.1655 58.212H35.398V54.912C34.617 54.3235 30.8385 52.8495 27.9785 54.571C27.9338 55.7878 27.9964 57.0062 28.1655 58.212V58.212Z"></path><path fill="#E6E7E8" d="M47.5695 86.471C47.619 86.5975 51.04 94.2755 57.9315 97.2345H68.1285C57.486 96.9485 52.25 88.968 47.5695 86.471Z"></path><path fill="#550026" d="M76.098 38.588C75.3464 38.5801 74.6196 38.3185 74.0355 37.8455C73.9211 37.9082 73.7918 37.9386 73.6615 37.9335C73.5161 37.9229 73.3765 37.8724 73.258 37.7876C73.1394 37.7027 73.0466 37.5868 72.9898 37.4526C72.9329 37.3184 72.9142 37.1711 72.9357 37.0269C72.9571 36.8828 73.018 36.7473 73.1115 36.6355C72.8341 36.1062 72.7483 35.4972 72.8686 34.9118C72.9889 34.3264 73.3078 33.8006 73.7715 33.4235C74.954 32.516 76.8075 32.802 77.902 34.067C79.5135 35.959 78.4465 38.588 76.098 38.588ZM74.25 37.2845C74.6541 37.6983 75.1895 37.9586 75.7645 38.0208C76.3395 38.0831 76.9182 37.9433 77.4015 37.6255C78.375 36.872 78.3475 35.4255 77.4785 34.43C76.6095 33.4345 75.0585 33.1265 74.1015 33.88C73.7163 34.2056 73.4623 34.6598 73.3865 35.1584C73.3106 35.657 73.4181 36.1661 73.689 36.5915C73.7232 36.6553 73.7314 36.7298 73.7119 36.7995C73.6924 36.8692 73.6468 36.9287 73.5845 36.9655C73.5408 36.9923 73.507 37.0325 73.4882 37.0801C73.4694 37.1277 73.4665 37.1801 73.48 37.2295C73.4855 37.2698 73.5026 37.3076 73.5292 37.3383C73.5559 37.369 73.5909 37.3912 73.63 37.4023C73.6691 37.4134 73.7106 37.4129 73.7494 37.4007C73.7882 37.3886 73.8227 37.3654 73.8485 37.334C73.8711 37.3038 73.8996 37.2784 73.9323 37.2595C73.965 37.2405 74.0012 37.2284 74.0387 37.2238C74.0762 37.2191 74.1142 37.2221 74.1505 37.2326C74.1868 37.243 74.2207 37.2607 74.25 37.2845Z"></path><path fill="#FF81B4" d="M27.9785 54.582C30.8385 52.8605 34.617 54.3345 35.398 54.923V53.207L33 53.3775L34.0505 51.2215L35.398 53.207V51.315C34.6956 50.5574 34.3054 49.5624 34.3054 48.5292C34.3054 47.4961 34.6956 46.5011 35.398 45.7435V44.3575H31.4435C31.009 44.8085 29.139 46.805 28.798 47.3055C28.6649 47.4174 28.558 47.5572 28.4848 47.7149C28.4116 47.8727 28.374 48.0446 28.3745 48.2185C28.5615 49.555 33.165 47.6685 33.286 49.5C33.3465 50.4625 30.1235 50.424 29.0675 51.2325C28.4747 51.7535 28.1095 52.486 28.05 53.273C28.05 53.493 27.995 53.977 27.9785 54.582Z"></path><path fill="#FF81B4" d="M21.538 44.3575V49.7365L21.6865 48.8235C21.9861 47.3108 22.3829 45.8191 22.8745 44.3575H21.538Z"></path><path fill="#FFD04D" d="M88.3135 70.4935L102.031 68.6235L89.045 63.8L99.99 55.319L86.35 57.662L91.5805 44.847L80.9215 53.68L79.8215 45.595H76.9725L74.2225 52.9485L68.541 45.595H66.374L68.0845 55.6545L55.275 50.4185L64.108 61.05L60.7035 61.5175L66.264 68.1175L75.8505 66.55C76.6122 66.4889 77.3705 66.7027 77.9881 67.1528C78.6056 67.6028 79.0414 68.2592 79.2165 69.003L80.4155 74.0795C80.4921 74.4204 80.5107 74.7719 80.4705 75.119C80.4044 75.8571 80.0917 76.5514 79.5828 77.0902C79.074 77.629 78.3987 77.9808 77.6655 78.089C77.2629 78.1198 76.8579 78.0977 76.461 78.023C75.1064 77.7609 73.8872 77.0303 73.0173 75.9592C72.1474 74.8882 71.6823 73.5451 71.7035 72.1655C69.4265 72.4955 67.1165 72.7155 65.6535 72.4185C64.0035 72.105 62.3535 71.0655 60.8575 69.6685L56.287 73.216L57.662 74.14C59.356 72.446 62.062 72.9575 64.0585 73.755L64.845 74.096L66.7975 72.996L65.791 74.536C67.4905 75.383 69.432 76.527 71.3955 77.407C72.9793 78.1387 74.6395 78.6921 76.3455 79.057C76.86 79.1437 77.3687 79.2612 77.869 79.409L78.1055 77.979L79.2055 79.8875L79.728 80.124C82.1962 81.2952 84.2642 83.1681 85.6735 85.5085L86.1355 86.3775L84.337 75.9L97.152 81.1305L88.3135 70.4935ZM76.945 62.733C76.483 64.1465 75.119 64.8725 73.898 64.35C73.3328 64.0629 72.8812 63.5932 72.6166 63.0171C72.352 62.441 72.2899 61.7923 72.4405 61.1765C72.3704 61.1631 72.3039 61.1346 72.246 61.0928C72.188 61.0511 72.1399 60.9972 72.105 60.9349C72.07 60.8725 72.0492 60.8033 72.0439 60.7321C72.0385 60.6609 72.0489 60.5893 72.0741 60.5225C72.0994 60.4557 72.139 60.3952 72.1901 60.3453C72.2412 60.2954 72.3026 60.2573 72.37 60.2337C72.4374 60.21 72.5092 60.2014 72.5803 60.2085C72.6514 60.2155 72.7201 60.2381 72.7815 60.2745C73.0308 59.7812 73.4567 59.3998 73.9744 59.2061C74.4921 59.0125 75.0637 59.0208 75.5755 59.2295C76.1905 59.5474 76.6687 60.0783 76.9207 60.7231C77.1727 61.3678 77.1814 62.0823 76.945 62.733V62.733Z"></path><path fill="#550026" d="M39.1765 51.2985V49.4285C39.1765 49.28 39.7265 49.28 39.7265 49.4285V51.2985C39.7265 51.4525 39.1765 51.4525 39.1765 51.2985Z"></path><path fill="#550026" d="M39.4515 62.4195H7.45249C7.37956 62.4195 7.30961 62.3906 7.25804 62.339C7.20646 62.2874 7.17749 62.2175 7.17749 62.1445V39.2975C7.17749 39.2246 7.20646 39.1546 7.25804 39.1031C7.30961 39.0515 7.37956 39.0225 7.45249 39.0225H39.4515C39.5244 39.0225 39.5944 39.0515 39.6459 39.1031C39.6975 39.1546 39.7265 39.2246 39.7265 39.2975V45.177C39.7265 45.25 39.6975 45.3199 39.6459 45.3715C39.5944 45.4231 39.5244 45.452 39.4515 45.452C39.379 45.4506 39.3099 45.4212 39.2586 45.3699C39.2073 45.3187 39.1779 45.2495 39.1765 45.177V39.6H7.72749V61.897H39.1765V51.7825C39.1765 51.6285 39.7265 51.6285 39.7265 51.7825V62.15C39.7251 62.222 39.6954 62.2905 39.644 62.3409C39.5926 62.3913 39.5235 62.4195 39.4515 62.4195V62.4195Z"></path><path fill="#FFD04D" d="M50.3965 62.9475L57.2 65.45C56.4025 64.35 55.6985 63.25 55.1045 62.2875L50.3965 62.9475Z"></path><path fill="#FF9A3E" d="M90.1065 20.801C90.0481 21.0249 90.0573 21.2611 90.1329 21.4799C90.2086 21.6986 90.3473 21.89 90.5316 22.0299C90.716 22.1699 90.9376 22.2521 91.1686 22.2662C91.3996 22.2803 91.6296 22.2257 91.8296 22.1092C92.0296 21.9928 92.1906 21.8197 92.2923 21.6118C92.394 21.4039 92.4319 21.1705 92.4011 20.9412C92.3704 20.7118 92.2724 20.4967 92.1195 20.3229C91.9666 20.1492 91.7656 20.0246 91.542 19.965C91.3929 19.9244 91.2371 19.9139 91.0839 19.9341C90.9306 19.9543 90.7829 20.0048 90.6493 20.0825C90.5157 20.1603 90.399 20.2639 90.3058 20.3873C90.2126 20.5106 90.1449 20.6512 90.1065 20.801V20.801Z"></path><path fill="#550026" d="M91.2395 21.3785C91.168 21.3785 91.564 21.5105 84.7495 19.0575C84.6829 19.0313 84.6292 18.9801 84.5997 18.9149C84.5702 18.8496 84.5674 18.7755 84.5917 18.7081C84.6161 18.6408 84.6657 18.5856 84.7301 18.5543C84.7945 18.523 84.8685 18.5181 84.9365 18.5405L91.333 20.845C91.3938 20.8671 91.4448 20.9098 91.4772 20.9658C91.5096 21.0218 91.5212 21.0873 91.5101 21.151C91.4989 21.2147 91.4657 21.2724 91.4162 21.314C91.3667 21.3556 91.3041 21.3785 91.2395 21.3785Z"></path><path fill="#550026" d="M74.7175 64.79C73.0675 64.79 71.8795 63.14 72.1325 61.347C72.0189 61.2768 71.9256 61.178 71.862 61.0606C71.7984 60.9431 71.7667 60.8111 71.7701 60.6775C71.7734 60.544 71.8117 60.4137 71.881 60.2995C71.9504 60.1854 72.0485 60.0914 72.1655 60.027C72.317 59.9402 72.4947 59.9109 72.666 59.9445C72.9731 59.4532 73.4443 59.0864 73.9959 58.9092C74.5476 58.7321 75.1442 58.7559 75.68 58.9765C76.3595 59.3225 76.8895 59.9043 77.171 60.613C77.4524 61.3216 77.4659 62.1086 77.209 62.8265C77.0532 63.3744 76.7285 63.8591 76.2811 64.2116C75.8338 64.5642 75.2866 64.7666 74.7175 64.79ZM72.5175 60.4835C72.4621 60.4777 72.4066 60.4941 72.3633 60.5292C72.3199 60.5642 72.2923 60.6151 72.2865 60.6705C72.2806 60.7259 72.2971 60.7814 72.3321 60.8247C72.3672 60.8681 72.4181 60.8957 72.4735 60.9015C72.5464 60.9161 72.6106 60.9591 72.6518 61.021C72.6931 61.0828 72.7081 61.1586 72.6935 61.2315C72.5552 61.7849 72.6075 62.3688 72.8421 62.8887C73.0766 63.4087 73.4796 63.8344 73.986 64.097C75.086 64.5645 76.263 63.8825 76.67 62.6505C76.8855 62.0642 76.8805 61.4195 76.6559 60.8367C76.4312 60.2538 76.0023 59.7725 75.449 59.4825C74.9979 59.3046 74.4967 59.3019 74.0437 59.4749C73.5908 59.648 73.219 59.9842 73.0015 60.4175C72.9834 60.4485 72.9592 60.4756 72.9305 60.4971C72.9018 60.5187 72.869 60.5343 72.8342 60.543C72.7993 60.5517 72.7631 60.5533 72.7276 60.5479C72.6921 60.5424 72.6581 60.5298 72.6275 60.511C72.5975 60.5005 72.5656 60.4967 72.534 60.5L72.5175 60.4835Z"></path><path fill="#550026" d="M73.425 60.764C73.128 61.116 73.425 61.677 73.733 61.314C74.041 60.951 73.7 60.4175 73.425 60.764Z"></path><path fill="#550026" d="M75.1245 61.303L74.5745 61.0225C74.5133 60.9961 74.4446 60.9927 74.3812 61.0131C74.3177 61.0335 74.2638 61.0763 74.2295 61.1335C74.1952 61.1906 74.1829 61.2583 74.1947 61.3239C74.2066 61.3894 74.2419 61.4485 74.294 61.49C74.0163 61.7901 73.6431 61.9845 73.238 62.04C73.202 62.0441 73.1671 62.0553 73.1355 62.0731C73.104 62.091 73.0763 62.115 73.0542 62.1437C73.0321 62.1725 73.0161 62.2054 73.007 62.2405C72.998 62.2756 72.9961 62.3122 73.0015 62.348C73.0111 62.4202 73.0489 62.4856 73.1066 62.5299C73.1643 62.5743 73.2373 62.5939 73.3095 62.5845C73.8898 62.5043 74.4183 62.2077 74.789 61.754C74.8425 61.7911 74.9055 61.8121 74.9705 61.8145C75.0319 61.8177 75.0927 61.8002 75.143 61.7648C75.1934 61.7294 75.2304 61.6781 75.2481 61.6192C75.2659 61.5602 75.2633 61.4971 75.2409 61.4397C75.2185 61.3824 75.1775 61.3343 75.1245 61.303V61.303Z"></path><path fill="#FFD04D" d="M25.894 41.03H26.1415C26.1965 40.9475 26.257 40.8705 26.312 40.799C27.203 39.622 28.3635 39.963 28.259 41.03H28.512L28.6165 40.909C29.4085 40.051 30.2995 40.315 30.393 41.03H30.833V37.565H16.071V41.03H24.321C24.86 40.1995 25.7015 40.3535 25.894 41.03Z"></path><path fill="#550026" d="M16.071 41.305C15.9981 41.305 15.9281 41.276 15.8766 41.2244C15.825 41.1729 15.796 41.1029 15.796 41.03V37.565C15.796 37.492 15.825 37.4221 15.8766 37.3705C15.9281 37.319 15.9981 37.29 16.071 37.29C16.1435 37.2914 16.2126 37.3208 16.2639 37.3721C16.3152 37.4234 16.3446 37.4925 16.346 37.565V40.755H24.3155C24.388 40.7564 24.4571 40.7858 24.5084 40.8371C24.5597 40.8884 24.5891 40.9575 24.5905 41.03C24.5905 41.1029 24.5615 41.1729 24.51 41.2244C24.4584 41.276 24.3885 41.305 24.3155 41.305H16.071Z"></path><path fill="#550026" d="M19.6735 47.3275H11.506C11.4331 47.3275 11.3631 47.2985 11.3116 47.247C11.26 47.1954 11.231 47.1255 11.231 47.0525V44.3575C11.231 44.2846 11.26 44.2146 11.3116 44.1631C11.3631 44.1115 11.4331 44.0825 11.506 44.0825H19.6735C19.7465 44.0825 19.8164 44.1115 19.868 44.1631C19.9195 44.2146 19.9485 44.2846 19.9485 44.3575V47.0525C19.9485 47.1255 19.9195 47.1954 19.868 47.247C19.8164 47.2985 19.7465 47.3275 19.6735 47.3275ZM11.781 46.7775H19.3985V44.6325H11.781V46.7775Z"></path><path fill="#550026" d="M19.6735 58.487H11.506C11.4331 58.487 11.3631 58.458 11.3116 58.4064C11.26 58.3549 11.231 58.2849 11.231 58.212V48.95C11.231 48.8771 11.26 48.8071 11.3116 48.7555C11.3631 48.704 11.4331 48.675 11.506 48.675H19.6735C19.7465 48.675 19.8164 48.704 19.868 48.7555C19.9195 48.8071 19.9485 48.8771 19.9485 48.95V58.212C19.9485 58.2849 19.9195 58.3549 19.868 58.4064C19.8164 58.458 19.7465 58.487 19.6735 58.487ZM11.781 57.937H19.3985V49.225H11.781V57.937Z"></path><path fill="#550026" d="M39.457 48.5045C39.1325 47.9545 39.6605 47.2725 40.007 47.8005C40.3535 48.3285 39.7705 49.0325 39.457 48.5045Z"></path><path fill="#550026" d="M41.6955 46.2825C41.6572 46.2835 41.6191 46.2763 41.5839 46.2614C41.5486 46.2465 41.5168 46.2243 41.4908 46.1962C41.4648 46.1681 41.4451 46.1347 41.4329 46.0984C41.4208 46.0621 41.4166 46.0236 41.4205 45.9855C41.4706 45.415 41.3742 44.8413 41.1403 44.3186C40.9063 43.7959 40.5428 43.3417 40.084 42.999C39.7815 42.801 39.534 42.768 39.446 42.8175C39.358 42.867 39.325 43.0485 39.325 43.1475C39.3218 43.2029 39.3023 43.2561 39.2689 43.3004C39.2354 43.3447 39.1896 43.3781 39.1372 43.3963C39.0848 43.4146 39.0282 43.4169 38.9745 43.4029C38.9208 43.389 38.8724 43.3594 38.8355 43.318C37.4715 41.668 36.1955 41.9595 36.6355 42.9275C36.6604 42.9777 36.669 43.0345 36.6602 43.0898C36.6513 43.1452 36.6254 43.1964 36.5861 43.2364C36.5467 43.2763 36.4959 43.303 36.4407 43.3127C36.3855 43.3224 36.3286 43.3146 36.278 43.2905C34.925 42.691 34.254 42.7955 34.078 43.098C33.902 43.4005 34.1165 44.143 34.7215 44.6215C34.7502 44.6435 34.7741 44.6711 34.7919 44.7025C34.8097 44.734 34.821 44.7687 34.8251 44.8047C34.8292 44.8406 34.8261 44.877 34.8158 44.9116C34.8056 44.9463 34.7885 44.9786 34.7655 45.0065C34.7209 45.064 34.6554 45.1015 34.5832 45.1108C34.5111 45.12 34.4382 45.1003 34.3805 45.056C33.5885 44.429 33.2365 43.406 33.605 42.812C33.8195 42.46 34.408 41.998 36.003 42.5865C36.003 41.569 37.345 41.008 38.918 42.5865C39.6165 41.4865 42.1905 43.3015 41.965 46.0295C41.9595 46.0976 41.9289 46.1612 41.8791 46.208C41.8293 46.2548 41.7638 46.2813 41.6955 46.2825V46.2825Z"></path><path fill="#550026" d="M41.9815 48.0425C41.8256 47.9135 41.6333 47.8365 41.4315 47.8225C41.0135 44.891 37.961 43.4225 35.695 45.133V44.3575C35.695 44.2846 35.666 44.2146 35.6144 44.163C35.5629 44.1115 35.4929 44.0825 35.42 44.0825H32.054C32.945 42.7955 31.724 41.5525 30.217 42.7405C29.975 42.9275 29.722 43.1475 29.458 43.3895C29.843 42.8395 30.151 42.4215 30.217 42.3335C31.482 40.6835 29.8705 39.2975 28.512 40.623C28.325 39.6605 27.0435 39.3415 26.048 40.6945C25.6685 40.029 24.684 39.9465 24.0845 40.8815C23.4981 41.8931 23.0259 42.9667 22.6765 44.0825H21.538C21.465 44.0825 21.3951 44.1115 21.3435 44.163C21.2919 44.2146 21.263 44.2846 21.263 44.3575C21.263 50.567 21.3015 49.544 21.186 50.303C20.702 53.416 20.7185 56.1 21.274 58.278C21.2877 58.3376 21.3213 58.3908 21.3693 58.4288C21.4173 58.4668 21.4768 58.4873 21.538 58.487H35.398C35.4709 58.487 35.5409 58.458 35.5924 58.4064C35.644 58.3549 35.673 58.2849 35.673 58.212V54.109L36.5145 55.352C36.5405 55.393 36.5771 55.4262 36.6205 55.4482C36.6639 55.4701 36.7123 55.4799 36.7608 55.4765C36.8093 55.4731 36.8559 55.4567 36.8958 55.429C36.9357 55.4012 36.9674 55.3632 36.9875 55.319L38.038 53.1575C38.0582 53.114 38.0668 53.066 38.0628 53.0182C38.0588 52.9704 38.0423 52.9245 38.0151 52.885C37.9878 52.8456 37.9507 52.8139 37.9075 52.7932C37.8642 52.7725 37.8163 52.7635 37.7685 52.767L35.6675 52.9155V51.92C36.2917 52.3769 37.0513 52.6107 37.8244 52.5837C38.5975 52.5568 39.3391 52.2707 39.93 51.7715C39.9621 51.7457 39.988 51.7131 40.0058 51.6759C40.0236 51.6388 40.0329 51.5982 40.0329 51.557C40.0329 51.5158 40.0236 51.4752 40.0058 51.438C39.988 51.4009 39.9621 51.3683 39.93 51.3425C39.2604 50.8666 38.8026 50.1484 38.654 49.3405C39.0445 49.445 40.007 50.127 40.733 50.391C40.7987 50.4164 40.8717 50.4152 40.9365 50.3874C41.0013 50.3596 41.0526 50.3076 41.0795 50.2425C41.1514 50.0838 41.212 49.9202 41.261 49.753C41.4684 49.776 41.6777 49.7313 41.8576 49.6256C42.0376 49.5199 42.1786 49.359 42.2596 49.1666C42.3406 48.9743 42.3573 48.761 42.3072 48.5584C42.2571 48.3558 42.1428 48.1748 41.9815 48.0425ZM37.334 53.35L36.7015 54.648L35.8875 53.449L37.334 53.35ZM35.134 44.6325V45.65C34.4331 46.4518 34.0468 47.4807 34.0468 48.5457C34.0468 49.6108 34.4331 50.6396 35.134 51.4415V52.327L34.2925 51.084C34.2664 51.043 34.2298 51.0097 34.1864 50.9878C34.1431 50.9659 34.0946 50.9561 34.0461 50.9595C33.9977 50.9629 33.951 50.9793 33.9111 51.007C33.8712 51.0347 33.8395 51.0727 33.8195 51.117L32.769 53.2785C32.7487 53.322 32.7401 53.37 32.7442 53.4178C32.7482 53.4656 32.7646 53.5115 32.7919 53.5509C32.8191 53.5904 32.8562 53.6221 32.8995 53.6428C32.9427 53.6635 32.9906 53.6725 33.0385 53.669L35.134 53.5205V54.45C33.8855 53.812 30.844 52.877 28.281 54.1255C28.281 53.823 28.3195 53.5425 28.347 53.317C28.396 52.6028 28.7215 51.9359 29.2545 51.458C30.305 50.655 33.6545 50.8035 33.572 49.4945C33.4895 48.1855 31.779 48.3395 30.5635 48.4C29.733 48.455 28.699 48.5265 28.6495 48.1635C28.6495 48.081 28.6495 47.85 29.0235 47.443C29.315 47.0195 30.921 45.2815 31.5645 44.616L35.134 44.6325ZM34.9195 52.9705L33.473 53.0695L34.1 51.7715L34.9195 52.9705ZM28.82 41.096C29.722 40.117 30.6515 40.876 29.7825 41.998C29.6725 42.141 28.8915 43.1915 28.226 44.198C27.379 45.496 27.676 45.1055 27.126 45.7215C26.7003 45.5171 26.2541 45.3586 25.795 45.2485C26.696 43.7893 27.7073 42.4011 28.82 41.096V41.096ZM26.532 40.964C27.302 39.952 28.2535 40.227 27.929 41.2885C26.9381 42.5172 26.0199 43.8027 25.179 45.1385C24.882 45.0945 24.673 45.0725 24.475 45.056C24.996 43.6153 25.6865 42.2416 26.532 40.964ZM21.813 44.6325H22.4895C22.231 45.441 22 46.2825 21.813 46.992V44.6325ZM21.758 57.937C21.0155 54.8075 21.472 51.755 21.956 48.873C22.242 47.1405 23.3915 42.988 24.5465 41.173C24.9755 40.5075 25.6135 40.623 25.6465 41.2665C24.9615 42.4659 24.3783 43.7206 23.903 45.0175C23.8352 45.0227 23.7717 45.0524 23.7241 45.1009C23.6766 45.1495 23.6483 45.2136 23.6445 45.2815C23.643 45.3176 23.6487 45.3537 23.6611 45.3876C23.6736 45.4215 23.6926 45.4527 23.7172 45.4792C23.7417 45.5058 23.7712 45.5273 23.804 45.5424C23.8369 45.5575 23.8723 45.5661 23.9085 45.5675C25.4174 45.5618 26.8862 46.0527 28.0885 46.9645C28.1355 46.9965 28.1911 47.0137 28.248 47.014C28.3052 47.0129 28.3607 46.9939 28.4066 46.9597C28.4526 46.9255 28.4867 46.8779 28.5043 46.8234C28.5219 46.7689 28.522 46.7103 28.5046 46.6557C28.4872 46.6011 28.4533 46.5533 28.4075 46.519C28.1325 46.321 27.8575 46.1505 27.6045 45.969C28.5248 44.9639 29.5076 44.0179 30.547 43.1365C31.647 42.2785 32.3015 43.1035 31.328 44.033C31.13 44.2255 28.93 46.574 28.578 47.0855C28.3917 47.2773 28.2442 47.5033 28.1435 47.751C26.3725 46.915 24.0735 47.828 23.5675 50.6715C23.5562 50.7435 23.5735 50.8171 23.6156 50.8767C23.6577 50.9362 23.7213 50.9771 23.793 50.9905C23.8644 51.0033 23.938 50.9874 23.9978 50.9462C24.0576 50.905 24.0986 50.8418 24.112 50.7705C24.5685 48.1855 26.653 47.4705 28.116 48.356C28.336 49.0875 29.4305 49.0105 30.5855 48.906C31.4655 48.8455 32.461 48.7795 32.835 49.1095C32.8916 49.1567 32.9362 49.2168 32.9649 49.2847C32.9936 49.3526 33.0056 49.4265 33 49.5C33 49.808 31.9 50.05 31.152 50.2205C30.3558 50.3321 29.5885 50.5953 28.8915 50.996C28.255 51.5602 27.8609 52.3483 27.7915 53.196C27.6487 54.7614 27.669 56.3373 27.852 57.8985L21.758 57.937ZM28.402 57.937C28.2755 56.8786 28.2258 55.8125 28.2535 54.747C30.855 53.284 34.232 54.5105 35.123 55.066V57.937H28.402ZM41.8 48.8345C41.7926 48.9019 41.7692 48.9665 41.7317 49.023C41.6942 49.0794 41.6436 49.126 41.5844 49.1589C41.5251 49.1918 41.4588 49.2099 41.391 49.2119C41.3233 49.2138 41.256 49.1994 41.195 49.17C41.158 49.1515 41.1172 49.1415 41.0758 49.1409C41.0345 49.1403 40.9935 49.1491 40.9559 49.1665C40.9184 49.1839 40.8853 49.2096 40.859 49.2417C40.8328 49.2737 40.8142 49.3112 40.8045 49.3515C40.7725 49.4949 40.7321 49.6363 40.6835 49.775C39.5835 49.269 38.4835 48.2845 38.159 49.082C37.961 49.577 38.434 50.732 39.325 51.546C38.7221 51.9351 37.9977 52.0901 37.2884 51.9817C36.5791 51.8733 35.934 51.5089 35.475 50.9575C34.8944 50.2397 34.5911 49.3371 34.6204 48.4143C34.6497 47.4916 35.0096 46.6101 35.6345 45.9305C37.565 43.9065 40.6945 45.232 40.9255 48.1305C40.9246 48.171 40.9329 48.2112 40.9498 48.2481C40.9666 48.285 40.9915 48.3176 41.0227 48.3435C41.0539 48.3694 41.0905 48.3879 41.1299 48.3977C41.1692 48.4075 41.2103 48.4083 41.25 48.4C41.3159 48.3792 41.3859 48.3748 41.4539 48.3872C41.5219 48.3997 41.5859 48.4286 41.6401 48.4715C41.6944 48.5144 41.7373 48.5698 41.7652 48.6331C41.793 48.6964 41.805 48.7655 41.8 48.8345Z"></path><path fill="#550026" d="M68.695 32.4885H61.457C61.3841 32.4885 61.3141 32.4595 61.2626 32.408C61.211 32.3564 61.182 32.2864 61.182 32.2135V29.8265C61.182 29.7536 61.211 29.6836 61.2626 29.6321C61.3141 29.5805 61.3841 29.5515 61.457 29.5515H68.695C68.7679 29.5515 68.8379 29.5805 68.8895 29.6321C68.941 29.6836 68.97 29.7536 68.97 29.8265V32.2135C68.97 32.2864 68.941 32.3564 68.8895 32.408C68.8379 32.4595 68.7679 32.4885 68.695 32.4885V32.4885ZM61.732 31.9385H68.42V30.1015H61.732V31.9385Z"></path><path fill="#550026" d="M68.695 42.383H61.457C61.3841 42.383 61.3141 42.354 61.2626 42.3025C61.211 42.2509 61.182 42.181 61.182 42.108V33.8965C61.1834 33.824 61.2128 33.7549 61.2641 33.7036C61.3154 33.6524 61.3845 33.6229 61.457 33.6215H68.695C68.7679 33.6215 68.8379 33.6505 68.8895 33.7021C68.941 33.7536 68.97 33.8236 68.97 33.8965V42.108C68.97 42.181 68.941 42.2509 68.8895 42.3025C68.8379 42.354 68.7679 42.383 68.695 42.383ZM61.732 41.833H68.42V34.1715H61.732V41.833Z"></path><path fill="#550026" d="M86.229 45.87H57.86C57.7871 45.87 57.7171 45.841 57.6656 45.7894C57.614 45.7379 57.585 45.6679 57.585 45.595V25.344C57.585 25.271 57.614 25.2011 57.6656 25.1495C57.7171 25.0979 57.7871 25.069 57.86 25.069H86.229C86.302 25.069 86.3719 25.0979 86.4235 25.1495C86.4751 25.2011 86.504 25.271 86.504 25.344V45.595C86.504 45.6679 86.4751 45.7379 86.4235 45.7894C86.3719 45.841 86.302 45.87 86.229 45.87ZM58.135 45.32H85.954V25.619H58.135V45.32Z"></path><path fill="#550026" d="M71.995 42.383H70.345C70.2721 42.383 70.2021 42.354 70.1506 42.3025C70.099 42.2509 70.07 42.1809 70.07 42.108V29.8265C70.07 29.7536 70.099 29.6836 70.1506 29.6321C70.2021 29.5805 70.2721 29.5515 70.345 29.5515H82.6265C82.6994 29.5515 82.7694 29.5805 82.821 29.6321C82.8725 29.6836 82.9015 29.7536 82.9015 29.8265V36.85C82.9015 36.9229 82.8725 36.9929 82.821 37.0445C82.7694 37.096 82.6994 37.125 82.6265 37.125C82.5536 37.125 82.4836 37.096 82.4321 37.0445C82.3805 36.9929 82.3515 36.9229 82.3515 36.85V30.1015H70.6255V41.833H71.995C72.0679 41.833 72.1379 41.862 72.1895 41.9136C72.241 41.9651 72.27 42.0351 72.27 42.108C72.27 42.1809 72.241 42.2509 72.1895 42.3025C72.1379 42.354 72.0679 42.383 71.995 42.383Z"></path><path fill="#7B80EE" d="M78.5895 26.8785H65.4995V23.8095H78.5895V26.8785Z"></path><path fill="#550026" d="M78.5895 27.1535H65.4995C65.4266 27.1535 65.3566 27.1245 65.305 27.0729C65.2535 27.0214 65.2245 26.9514 65.2245 26.8785V23.8095C65.2245 23.7366 65.2535 23.6666 65.305 23.615C65.3566 23.5635 65.4266 23.5345 65.4995 23.5345C65.5724 23.5345 65.6424 23.5635 65.6939 23.615C65.7455 23.6666 65.7745 23.7366 65.7745 23.8095V26.6035H78.5895C78.6624 26.6035 78.7324 26.6325 78.7839 26.684C78.8355 26.7356 78.8645 26.8055 78.8645 26.8785C78.8645 26.9514 78.8355 27.0214 78.7839 27.0729C78.7324 27.1245 78.6624 27.1535 78.5895 27.1535Z"></path><path fill="#550026" d="M74.096 36.1295C74.2665 36.575 74.921 36.5695 74.756 36.1295C74.591 35.6895 73.931 35.7005 74.096 36.1295Z"></path><path fill="#550026" d="M74.987 37.114C74.9354 37.0106 74.9123 36.8954 74.9201 36.7801C74.9279 36.6648 74.9663 36.5537 75.0314 36.4582C75.0965 36.3628 75.1859 36.2864 75.2904 36.2371C75.3949 36.1877 75.5107 36.1672 75.6258 36.1775C75.7408 36.1879 75.8511 36.2288 75.9451 36.296C76.0391 36.3632 76.1134 36.4543 76.1604 36.5598C76.2074 36.6654 76.2254 36.7816 76.2125 36.8964C76.1996 37.0112 76.1563 37.1205 76.087 37.213C76.0207 37.3016 75.9328 37.3717 75.8317 37.4168C75.7306 37.4618 75.6196 37.4802 75.5094 37.4703C75.3992 37.4604 75.2933 37.4224 75.2019 37.3601C75.1105 37.2977 75.0365 37.213 74.987 37.114V37.114Z"></path><path fill="#550026" d="M81.8455 36.0195C81.345 36.014 80.8529 35.8896 80.41 35.6565C79.625 35.2844 78.9419 34.7277 78.419 34.034C78.3992 34.004 78.3857 33.9702 78.3794 33.9348C78.373 33.8994 78.374 33.863 78.3823 33.828C78.3905 33.793 78.4058 33.76 78.4273 33.7311C78.4487 33.7022 78.4759 33.678 78.507 33.66C78.5683 33.6207 78.6427 33.6074 78.7138 33.6228C78.7849 33.6383 78.847 33.6813 78.8865 33.7425C79.3608 34.3516 79.9711 34.8413 80.6685 35.1725C81.334 35.53 82.28 35.5685 82.5825 35.2495C82.885 34.9305 82.5825 34.4355 82.3735 34.1495C82.0714 33.6718 81.6836 33.2541 81.2295 32.9175C80.4595 33.0055 79.2495 33.066 78.87 32.6095C78.8006 32.522 78.7581 32.4162 78.7476 32.305C78.7372 32.1938 78.7592 32.0819 78.811 31.983C78.8628 31.884 78.9422 31.8022 79.0395 31.7475C79.1369 31.6927 79.248 31.6674 79.3595 31.6745C80.0835 31.6757 80.7878 31.9111 81.367 32.3455H81.5265C82.4835 32.197 84.183 31.1795 84.315 30.294C84.3755 29.887 84.0785 29.524 83.4295 29.194C82.5804 28.7657 81.6233 28.5992 80.6795 28.7155C80.2725 29.7605 78.7105 31.4325 77.781 30.767C77.6413 30.6681 77.5451 30.5192 77.5123 30.3513C77.4795 30.1833 77.5127 30.0091 77.605 29.865C78.2366 28.9896 79.1865 28.3972 80.2505 28.215C80.4045 27.3955 79.739 27.192 78.9855 27.621C77.2117 28.728 75.8571 30.3941 75.1355 32.3565C75.1221 32.3901 75.1023 32.4207 75.0771 32.4466C75.0519 32.4725 75.0218 32.4932 74.9886 32.5075C74.9216 32.5364 74.8458 32.5375 74.778 32.5105C74.7102 32.4835 74.6558 32.4307 74.627 32.3637C74.5981 32.2966 74.597 32.2208 74.624 32.153C75.3879 30.0763 76.8219 28.3133 78.6995 27.1425C79.926 26.444 80.8995 27.082 80.8005 28.138C81.7786 28.065 82.7585 28.2549 83.6385 28.688C84.7385 29.238 84.8925 29.8815 84.8265 30.338C84.6505 31.493 82.995 32.4775 81.906 32.7745C82.2531 33.0882 82.5564 33.4471 82.808 33.8415C83.6935 35.2 83.05 36.0195 81.8455 36.0195ZM79.519 32.197C79.4394 32.1896 79.3593 32.2048 79.288 32.241C79.343 32.329 79.7115 32.428 80.388 32.4115C80.1139 32.2874 79.8193 32.2147 79.519 32.197V32.197ZM80.014 28.842C79.2469 29.0444 78.5718 29.5022 78.1 30.14C77.9515 30.371 78.5785 30.69 79.6565 29.3755C79.7907 29.2082 79.9103 29.0297 80.014 28.842V28.842Z"></path><path fill="#550026" d="M84.524 37.862C84.5453 37.6928 84.5291 37.521 84.4765 37.3588C84.4238 37.1966 84.3361 37.048 84.2195 36.9235C84.103 36.7991 83.9604 36.7019 83.802 36.6388C83.6436 36.5757 83.4732 36.5483 83.303 36.5585C82.5935 36.5585 81.8015 36.5585 81.785 36.5585C81.6229 36.5504 81.4611 36.5782 81.3111 36.64C81.1611 36.7017 81.0266 36.7959 80.9173 36.9158C80.808 37.0356 80.7265 37.1781 80.6787 37.3332C80.6309 37.4882 80.6181 37.6519 80.641 37.8125C80.5453 37.8806 80.4616 37.9643 80.3935 38.06C79.94 38.0435 79.4873 38.1087 79.057 38.2525C78.5595 38.3717 78.0989 38.611 77.7153 38.9494C77.3318 39.2879 77.0371 39.7152 76.857 40.194C76.6098 40.0959 76.3371 40.0824 76.0815 40.1555C75.9822 40.0135 75.8529 39.8951 75.7028 39.8086C75.5527 39.7221 75.3854 39.6697 75.2128 39.655C75.0401 39.6403 74.8664 39.6637 74.7038 39.7236C74.5413 39.7835 74.3938 39.8783 74.272 40.0015C74.0403 39.9342 73.7937 39.9381 73.5642 40.0127C73.3348 40.0872 73.133 40.2289 72.985 40.4195C72.8269 40.3947 72.6653 40.4046 72.5115 40.4487C72.3577 40.4928 72.2153 40.5698 72.0944 40.6746C71.9734 40.7793 71.8768 40.9092 71.8111 41.0551C71.7455 41.201 71.7125 41.3595 71.7145 41.5195C71.7145 41.5525 71.6705 42.3445 71.687 43.054C71.6714 43.2252 71.6946 43.3978 71.7548 43.5588C71.8151 43.7198 71.9109 43.8652 72.0351 43.9841C72.1593 44.103 72.3087 44.1924 72.4722 44.2456C72.6357 44.2988 72.8091 44.3145 72.9795 44.2915C73.056 44.4094 73.1555 44.5108 73.272 44.5896C73.3885 44.6684 73.5196 44.723 73.6576 44.7502C73.7955 44.7774 73.9376 44.7766 74.0752 44.7479C74.2129 44.7192 74.3434 44.6631 74.459 44.583C74.6841 44.727 74.954 44.784 75.2182 44.7436C75.4824 44.7031 75.7228 44.5678 75.8945 44.363C76.571 44.6765 77.429 44.2255 77.5445 43.197C77.5445 42.944 77.5775 42.647 77.5885 42.361H81.246C81.9564 42.4105 82.6695 42.4105 83.38 42.361C84.414 42.2895 84.8705 41.426 84.5625 40.755C84.7699 40.5855 84.9084 40.3462 84.9519 40.0819C84.9955 39.8176 84.9411 39.5465 84.799 39.3195C84.9553 39.0896 85.0142 38.8071 84.9626 38.5339C84.9111 38.2607 84.7533 38.0191 84.524 37.862V37.862ZM72.8035 43.78C72.4515 43.78 72.2535 43.428 72.2535 43.0595C72.2535 42.372 72.281 41.58 72.281 41.547C72.2807 41.4067 72.3341 41.2715 72.4302 41.1693C72.5263 41.067 72.6579 41.0054 72.798 40.997C72.8035 41.0355 72.7705 43.5545 72.8035 43.78ZM73.4085 43.8955C73.2875 43.5215 73.315 43.593 73.3535 41.096C73.3514 41.0123 73.3685 40.9293 73.4033 40.8533C73.4382 40.7772 73.4899 40.7101 73.5546 40.6571C73.6193 40.6041 73.6953 40.5665 73.7767 40.5472C73.8581 40.528 73.9429 40.5276 74.0245 40.546C74.0042 40.6343 73.995 40.7249 73.997 40.8155C73.997 43.5655 73.8815 43.681 74.1235 44.209C74.0569 44.2426 73.9837 44.2611 73.9091 44.2632C73.8345 44.2652 73.7604 44.2507 73.6921 44.2208C73.6237 44.1908 73.5629 44.1461 73.5139 44.0899C73.4648 44.0336 73.4288 43.9673 73.4085 43.8955V43.8955ZM75.284 41.25C75.284 41.2995 75.2455 42.5205 75.284 43.23C75.2841 43.5181 75.3703 43.7997 75.5315 44.0385C75.4712 44.1052 75.3956 44.1561 75.3111 44.1868C75.2266 44.2175 75.1359 44.227 75.0469 44.2145C74.9579 44.202 74.8733 44.1679 74.8006 44.1152C74.7278 44.0625 74.669 43.9927 74.6295 43.912C74.5085 43.637 74.5415 43.461 74.5745 40.799C74.5699 40.6686 74.6076 40.5403 74.6819 40.4331C74.7563 40.3259 74.8632 40.2456 74.9869 40.2041C75.1106 40.1627 75.2444 40.1624 75.3683 40.2031C75.4922 40.2439 75.5996 40.3237 75.6745 40.4305C75.5528 40.5297 75.4547 40.6547 75.3872 40.7964C75.3197 40.9381 75.2844 41.093 75.284 41.25V41.25ZM77 43.175C76.9175 44.1595 75.8395 44.2035 75.812 43.2135V41.25C75.8071 41.1499 75.8296 41.0504 75.8771 40.9622C75.9245 40.874 75.9952 40.8005 76.0815 40.7495C76.2005 40.6813 76.338 40.6525 76.4744 40.6673C76.6107 40.6821 76.7389 40.7398 76.8405 40.832C76.9561 40.9683 77.0168 41.1428 77.011 41.3215C77.0403 41.9391 77.0367 42.5578 77 43.175V43.175ZM81.796 37.125C81.796 37.125 82.599 37.092 83.2865 37.125C83.732 37.125 83.963 37.389 83.9905 37.675C83.6385 37.62 81.2405 37.675 81.202 37.675C81.2003 37.5985 81.2145 37.5225 81.2439 37.4518C81.2732 37.3811 81.3169 37.3173 81.3723 37.2645C81.4277 37.2117 81.4935 37.1711 81.5655 37.1451C81.6375 37.1192 81.7141 37.1086 81.7905 37.114L81.796 37.125ZM77.5995 41.844C77.6592 41.4078 77.5762 40.9641 77.363 40.579C77.605 39.3525 79.046 38.654 80.179 38.621C80.1569 38.7865 80.1681 38.9548 80.212 39.116C80.0865 39.2355 79.9889 39.3812 79.9262 39.5427C79.8636 39.7043 79.8373 39.8777 79.8494 40.0505C79.8615 40.2234 79.9116 40.3914 79.9962 40.5427C80.0807 40.6939 80.1976 40.8246 80.3385 40.9255C80.2499 41.2328 80.2855 41.5626 80.4375 41.844H77.5995ZM83.347 41.844C82.675 41.8919 82.0004 41.8919 81.3285 41.844C81.1829 41.8158 81.0529 41.7347 80.9637 41.6163C80.8744 41.4979 80.8322 41.3506 80.8452 41.2029C80.8582 41.0552 80.9255 40.9175 81.034 40.8165C81.1426 40.7155 81.2847 40.6583 81.433 40.656H83.4295C83.5792 40.6666 83.7252 40.7078 83.8585 40.777C84.3095 41.0575 84.15 41.8 83.3415 41.833L83.347 41.844ZM84.2215 40.3645C83.743 40.0235 83.1765 40.1225 81.4385 40.1115C81.2856 40.1061 81.1332 40.1327 80.9912 40.1895C80.8491 40.2463 80.7205 40.3321 80.6135 40.4415C80.5171 40.3641 80.447 40.2589 80.4127 40.1402C80.3785 40.0215 80.3817 39.895 80.4221 39.7782C80.4624 39.6614 80.5378 39.56 80.6381 39.4877C80.7383 39.4154 80.8584 39.3759 80.982 39.3745C81.037 39.3745 83.6055 39.3745 83.875 39.3745C83.9886 39.3751 84.0992 39.411 84.1917 39.4771C84.2841 39.5432 84.3538 39.6363 84.3912 39.7436C84.4286 39.8509 84.4318 39.9671 84.4004 40.0763C84.369 40.1856 84.3046 40.2824 84.216 40.3535L84.2215 40.3645ZM84.381 38.9895C84.18 38.8866 83.9578 38.832 83.732 38.83C80.795 38.786 80.894 38.83 80.718 38.83C80.7054 38.6992 80.7342 38.5679 80.8003 38.4544C80.8665 38.3409 80.9665 38.251 81.0865 38.1975C81.1592 38.1847 81.2337 38.1847 81.3065 38.1975C83.842 38.1975 83.8585 38.1645 84.106 38.2745C84.1724 38.2999 84.2328 38.339 84.2831 38.3892C84.3334 38.4395 84.3726 38.4998 84.398 38.5663C84.4234 38.6327 84.4346 38.7038 84.4307 38.7748C84.4268 38.8458 84.408 38.9152 84.3755 38.9785L84.381 38.9895Z"></path><path fill="#550026" d="M78.1 63.3325C78.0638 63.3291 78.0287 63.3185 77.9966 63.3014C77.9646 63.2843 77.9362 63.261 77.9132 63.2329C77.8902 63.2047 77.873 63.1723 77.8625 63.1375C77.8521 63.1027 77.8487 63.0661 77.8525 63.03C77.8608 62.9575 77.8971 62.8911 77.9536 62.8449C78.01 62.7987 78.0823 62.7763 78.155 62.7825C79.805 62.9475 80.872 62.513 81.004 61.5945C81.0205 61.4833 81.0205 61.3702 81.004 61.259C80.6457 61.3696 80.2623 61.3696 79.904 61.259C78.7655 60.8795 79.266 59.488 80.355 59.6915C80.5681 59.7433 80.7666 59.8431 80.9353 59.9832C81.104 60.1233 81.2385 60.3 81.3285 60.5C81.593 60.3246 81.8035 60.0791 81.9365 59.791C82.0695 59.5028 82.1196 59.1833 82.0814 58.8683C82.0431 58.5532 81.918 58.255 81.72 58.007C81.5219 57.759 81.2588 57.571 80.96 57.464C80.8711 57.7339 80.7276 57.9826 80.5384 58.1946C80.3491 58.4065 80.1182 58.5772 79.86 58.696C78.804 59.125 78.2485 57.9535 79.343 57.1835C79.6982 56.9309 80.1289 56.8068 80.564 56.8315C80.5566 56.5994 80.5021 56.3713 80.4037 56.161C80.3053 55.9508 80.1651 55.7627 79.9917 55.6083C79.8183 55.454 79.6153 55.3365 79.395 55.2631C79.1748 55.1897 78.9419 55.162 78.7105 55.1815C78.8404 55.5617 78.8187 55.9773 78.65 56.342C78.2155 57.2605 77.3355 57.2605 77.0605 56.738C76.7855 56.2155 77.385 55.264 77.957 54.8955C77.7618 54.6194 77.499 54.398 77.1937 54.2525C76.8884 54.1071 76.5509 54.0425 76.2135 54.065C75.9454 54.0837 75.6856 54.1664 75.4559 54.3061C75.2263 54.4458 75.0334 54.6385 74.8935 54.868C75.1272 54.8805 75.3509 54.9673 75.5319 55.1157C75.7129 55.2641 75.8418 55.4663 75.9 55.693C76.109 56.76 75.009 57.1175 74.415 56.3915C74.2163 56.1284 74.1204 55.8018 74.1455 55.473C73.9169 55.5457 73.7081 55.6699 73.535 55.836C72.985 56.386 72.8475 57.244 73.1445 58.3385C73.1535 58.3746 73.1554 58.4121 73.1499 58.449C73.1444 58.4858 73.1317 58.5212 73.1126 58.5531C73.0934 58.585 73.0682 58.6128 73.0383 58.635C73.0084 58.6572 72.9744 58.6732 72.9383 58.6822C72.9022 58.6913 72.8646 58.6931 72.8278 58.6876C72.791 58.6821 72.7556 58.6695 72.7237 58.6503C72.6918 58.6312 72.6639 58.6059 72.6418 58.576C72.6196 58.5461 72.6035 58.5121 72.5945 58.476C72.0445 56.342 73.018 55.0825 74.2445 54.8735C74.899 53.2235 77.3245 52.9705 78.43 54.6645C78.7578 54.6048 79.0948 54.6188 79.4165 54.7056C79.7382 54.7924 80.0366 54.9497 80.2899 55.1661C80.5432 55.3826 80.7451 55.6528 80.881 55.957C81.0169 56.2612 81.0834 56.5919 81.0755 56.925C81.4862 57.0652 81.8478 57.3209 82.1168 57.6614C82.3857 58.002 82.5508 58.4129 82.592 58.8449C82.6332 59.2769 82.5489 59.7116 82.3492 60.0969C82.1495 60.4822 81.8428 60.8017 81.466 61.017C81.774 62.315 80.8005 63.5965 78.1 63.3325ZM80.0965 60.742C80.3389 60.8134 80.5967 60.8134 80.839 60.742C80.3 59.7245 79.354 60.5 80.091 60.742H80.0965ZM80.4155 57.3815C79.4475 57.4365 78.9195 58.4815 79.684 58.1955C80.0205 58.0261 80.28 57.7351 80.41 57.3815H80.4155ZM78.2155 55.4125C78.0344 55.5452 77.8765 55.7069 77.748 55.891C77.5335 56.1935 77.517 56.408 77.561 56.496C77.5738 56.5174 77.5926 56.5346 77.6151 56.5454C77.6376 56.5561 77.6628 56.56 77.6875 56.5565C77.9845 56.551 78.386 56.023 78.221 55.4125H78.2155ZM74.7175 55.4125C74.697 55.5235 74.6985 55.6375 74.7221 55.7479C74.7457 55.8584 74.7909 55.9631 74.855 56.056C74.9001 56.125 74.966 56.1777 75.0432 56.2064C75.1205 56.2351 75.2049 56.2383 75.284 56.2155C75.427 56.1495 75.3995 55.913 75.3775 55.8195C75.35 55.55 75.0035 55.4345 74.723 55.4125H74.7175Z"></path><path fill="#550026" d="M58.894 82.9455C58.762 82.9455 59.5485 83.457 46.948 74.811C46.9066 74.7824 46.8739 74.743 46.8533 74.6971C46.8328 74.6512 46.8252 74.6006 46.8315 74.5507C46.8377 74.5008 46.8575 74.4535 46.8887 74.4141C46.9199 74.3747 46.9614 74.3445 47.0085 74.327L54.1585 71.6045C54.1998 71.5884 54.2443 71.5825 54.2884 71.5872C54.3324 71.592 54.3747 71.6074 54.4115 71.632L65.582 79.145C65.623 79.1694 65.657 79.204 65.6806 79.2454C65.7043 79.2869 65.7167 79.3338 65.7167 79.3815C65.7167 79.4292 65.7043 79.4761 65.6806 79.5176C65.657 79.5591 65.623 79.5937 65.582 79.618C58.5695 83.138 58.993 82.9455 58.894 82.9455ZM47.696 74.6515L58.916 82.3515L64.9 79.3375L54.23 72.1875L47.696 74.6515Z"></path><path fill="#FF81B4" d="M49.797 74.4755L53.35 73.095L51.8815 72.105L48.29 73.447L49.797 74.4755Z"></path><path fill="#550026" d="M49.797 74.7505C49.676 74.7505 49.7695 74.789 48.147 73.678C48.117 73.6574 48.0914 73.6311 48.0716 73.6006C48.0518 73.5701 48.0381 73.536 48.0315 73.5003C48.0249 73.4645 48.0253 73.4278 48.0329 73.3923C48.0404 73.3567 48.0549 73.323 48.0755 73.293C48.0961 73.263 48.1224 73.2374 48.1529 73.2176C48.1833 73.1978 48.2174 73.1841 48.2532 73.1775C48.2889 73.1709 48.3256 73.1713 48.3612 73.1789C48.3968 73.1864 48.4305 73.2009 48.4605 73.2215L49.841 74.1675L53.262 72.8365C53.3306 72.8102 53.4067 72.8123 53.4738 72.8422C53.5408 72.8721 53.5932 72.9274 53.6195 72.996C53.6458 73.0645 53.6437 73.1407 53.6138 73.2078C53.5839 73.2748 53.5286 73.3272 53.46 73.3535C49.588 74.855 49.874 74.7505 49.797 74.7505Z"></path><path fill="#550026" d="M53.9 78.056C53.768 78.056 53.944 78.1495 51.007 76.142C50.9671 76.1128 50.9357 76.0736 50.9158 76.0283C50.896 75.9829 50.8885 75.9332 50.8941 75.8841C50.8997 75.8349 50.9181 75.7881 50.9476 75.7485C50.9771 75.7088 51.0166 75.6776 51.062 75.658L52.294 75.1575C52.3619 75.1299 52.438 75.13 52.5058 75.1578C52.5736 75.1856 52.6279 75.2388 52.657 75.306C52.6704 75.3396 52.6771 75.3755 52.6766 75.4117C52.6761 75.4478 52.6685 75.4835 52.6542 75.5167C52.6399 75.5499 52.6191 75.58 52.5932 75.6052C52.5673 75.6304 52.5366 75.6502 52.503 75.6635L51.744 75.977L53.944 77.4675L57.7115 75.8175L55.605 74.3985L54.538 74.833C54.4702 74.86 54.3944 74.859 54.3274 74.8301C54.2603 74.8012 54.2075 74.7469 54.1805 74.679C54.1535 74.6112 54.1546 74.5354 54.1835 74.4684C54.2124 74.4013 54.2667 74.3485 54.3345 74.3215L55.5335 73.832C55.5757 73.8159 55.6211 73.8099 55.6661 73.8147C55.711 73.8195 55.7542 73.8349 55.792 73.8595L58.4375 75.6415C58.4778 75.6699 58.5099 75.7084 58.5306 75.7531C58.5513 75.7978 58.5598 75.8472 58.5553 75.8962C58.5509 75.9453 58.5336 75.9923 58.5052 76.0326C58.4768 76.0728 58.4383 76.1049 58.3935 76.1255C53.713 78.166 53.999 78.056 53.9 78.056Z"></path><path fill="#FFD04D" d="M52.943 75.768L54.956 74.9375L53.9165 74.239L51.8925 75.053L52.943 75.768Z"></path><path fill="#550026" d="M52.943 76.043C52.8275 76.043 52.8605 76.043 51.7385 75.2785C51.6878 75.2342 51.6551 75.1729 51.6466 75.1062C51.638 75.0394 51.6543 74.9718 51.6923 74.9163C51.7302 74.8607 51.7872 74.821 51.8525 74.8046C51.9178 74.7882 51.9868 74.7964 52.0465 74.8275L52.976 75.46L54.846 74.6845C54.9139 74.6569 54.9899 74.657 55.0577 74.6848C55.1256 74.7125 55.1799 74.7657 55.209 74.833C55.2363 74.9001 55.2361 74.9754 55.2083 75.0423C55.1805 75.1093 55.1274 75.1625 55.0605 75.1905C52.8605 76.098 53.02 76.043 52.943 76.043Z"></path><path fill="#550026" d="M58.3495 81.0865C58.2175 81.0865 58.41 81.191 55.4125 79.1395C55.372 79.1119 55.3397 79.0739 55.3189 79.0296C55.298 78.9852 55.2894 78.9361 55.2939 78.8873C55.2984 78.8386 55.3158 78.7918 55.3444 78.7521C55.373 78.7123 55.4117 78.6808 55.4565 78.661L56.65 78.111C56.7172 78.081 56.7935 78.0786 56.8624 78.1044C56.9313 78.1301 56.9874 78.1819 57.0185 78.2485C57.0483 78.3149 57.0505 78.3904 57.0247 78.4584C56.9989 78.5265 56.9473 78.5815 56.881 78.6115L56.1275 78.9525L58.3715 80.487L62.018 78.7215L59.8565 77.264L58.8335 77.726C58.768 77.7508 58.6956 77.7497 58.6309 77.7229C58.5662 77.6961 58.5142 77.6456 58.4855 77.5818C58.4567 77.518 58.4534 77.4456 58.4761 77.3794C58.4989 77.3132 58.5461 77.2582 58.608 77.2255L59.7685 76.6755C59.8121 76.657 59.8597 76.6498 59.9068 76.6546C59.9539 76.6594 59.9991 76.6761 60.038 76.703L62.722 78.5125C62.7615 78.5396 62.7933 78.5766 62.8141 78.6197C62.8349 78.6628 62.8441 78.7107 62.8408 78.7585C62.8375 78.8063 62.8217 78.8523 62.7951 78.8922C62.7685 78.932 62.7319 78.9642 62.689 78.9855C58.1185 81.235 58.443 81.0865 58.3495 81.0865Z"></path><path fill="#7B80EE" d="M57.299 78.738L59.246 77.8415L58.1955 77.132L56.232 78.012L57.299 78.738Z"></path><path fill="#550026" d="M59.4935 77.7315C59.4635 77.6652 59.4084 77.6135 59.3404 77.5878C59.2723 77.562 59.1969 77.5642 59.1305 77.594L57.3265 78.419L56.386 77.781C56.3256 77.742 56.2526 77.7277 56.182 77.741C56.1114 77.7544 56.0485 77.7942 56.0065 77.8525C55.9856 77.8824 55.971 77.9161 55.9633 77.9517C55.9556 77.9873 55.9551 78.0241 55.9617 78.06C55.9684 78.0958 55.9821 78.1299 56.002 78.1604C56.022 78.1909 56.0478 78.2171 56.078 78.2375L57.178 78.9745C57.229 79.0057 57.2895 79.0175 57.3485 79.0075C57.4035 79.0075 57.9315 78.7545 59.3725 78.0945C59.4044 78.0787 59.4328 78.0568 59.4562 78.03C59.4795 78.0031 59.4973 77.972 59.5086 77.9382C59.5198 77.9045 59.5243 77.8688 59.5217 77.8333C59.5191 77.7979 59.5095 77.7633 59.4935 77.7315V77.7315Z"></path><path fill="#7B80EE" d="M13.244 24.0295C13.211 24.1309 13.1989 24.238 13.2083 24.3442C13.2177 24.4505 13.2485 24.5537 13.2988 24.6478C13.3491 24.7418 13.4178 24.8247 13.501 24.8916C13.5841 24.9584 13.6799 25.0077 13.7825 25.0367C13.8852 25.0656 13.9926 25.0734 14.0984 25.0598C14.2042 25.0462 14.3061 25.0113 14.3981 24.9573C14.4901 24.9033 14.5702 24.8313 14.6337 24.7456C14.6972 24.6599 14.7427 24.5622 14.7675 24.4585C14.8151 24.2595 14.7838 24.0498 14.6802 23.8734C14.5767 23.6969 14.4088 23.5674 14.2119 23.5119C14.0149 23.4565 13.8042 23.4794 13.6237 23.5759C13.4433 23.6724 13.3072 23.8349 13.244 24.0295V24.0295Z"></path><path fill="#FFD04D" d="M2.7775 79.838C2.73561 79.9888 2.73932 80.1485 2.78816 80.2972C2.837 80.4459 2.92878 80.5767 3.05191 80.6733C3.17504 80.7698 3.32401 80.8277 3.48002 80.8397C3.63604 80.8516 3.7921 80.8171 3.92851 80.7405C4.06493 80.6639 4.17559 80.5485 4.24653 80.4091C4.31747 80.2696 4.3455 80.1122 4.3271 79.9569C4.3087 79.8015 4.24468 79.655 4.14313 79.536C4.04158 79.4169 3.90704 79.3307 3.7565 79.288C3.6561 79.2596 3.55108 79.2512 3.44745 79.2635C3.34383 79.2758 3.24365 79.3084 3.15268 79.3595C3.0617 79.4106 2.98173 79.4792 2.91734 79.5613C2.85295 79.6434 2.80543 79.7375 2.7775 79.838V79.838Z"></path><path fill="#FF81B4" d="M105.699 89.463C105.657 89.614 105.66 89.7741 105.709 89.9231C105.758 90.072 105.85 90.2032 105.973 90.2998C106.097 90.3965 106.246 90.4544 106.402 90.4662C106.558 90.478 106.715 90.4431 106.851 90.366C106.988 90.2889 107.098 90.173 107.169 90.0331C107.239 89.8931 107.267 89.7353 107.248 89.5797C107.229 89.4242 107.164 89.2777 107.061 89.1591C106.959 89.0404 106.824 88.9548 106.672 88.913C106.47 88.8573 106.255 88.8838 106.072 88.9869C105.89 89.09 105.755 89.2612 105.699 89.463Z"></path><path fill="#6BD5EC" d="M99.451 40.3865C99.4088 40.5375 99.4122 40.6976 99.4611 40.8465C99.5099 40.9955 99.6018 41.1266 99.7252 41.2233C99.8486 41.32 99.9979 41.3779 100.154 41.3897C100.31 41.4015 100.467 41.3666 100.603 41.2895C100.74 41.2124 100.85 41.0965 100.921 40.9565C100.991 40.8166 101.019 40.6588 101 40.5032C100.981 40.3476 100.916 40.2012 100.813 40.0825C100.711 39.9638 100.576 39.8782 100.424 39.8365C100.222 39.7807 100.007 39.8073 99.8241 39.9104C99.6416 40.0135 99.5075 40.1847 99.451 40.3865Z"></path><path fill="#FF81B4" d="M54.8075 13.332C54.7656 13.4828 54.7694 13.6426 54.8182 13.7912C54.867 13.9399 54.9588 14.0707 55.0819 14.1673C55.2051 14.2638 55.354 14.3217 55.5101 14.3337C55.6661 14.3457 55.8221 14.3111 55.9585 14.2345C56.095 14.1579 56.2056 14.0425 56.2766 13.9031C56.3475 13.7636 56.3755 13.6063 56.3571 13.4509C56.3387 13.2955 56.2747 13.149 56.1732 13.03C56.0716 12.911 55.9371 12.8247 55.7865 12.782C55.6861 12.7536 55.5811 12.7452 55.4775 12.7575C55.3739 12.7698 55.2737 12.8024 55.1827 12.8535C55.0917 12.9046 55.0118 12.9732 54.9474 13.0553C54.883 13.1374 54.8355 13.2315 54.8075 13.332V13.332Z"></path><path fill="#550026" d="M100.21 96.9595H85.041C88.2695 93.324 88.484 87.9175 84.1555 83.061C82.8251 81.6469 81.9131 79.8915 81.521 77.99C81.5086 77.917 81.4677 77.852 81.4074 77.8092C81.347 77.7664 81.2722 77.7493 81.1992 77.7617C81.1263 77.7741 81.0613 77.815 81.0185 77.8753C80.9757 77.9357 80.9586 78.0105 80.971 78.0835C81.1868 79.2405 81.6138 80.348 82.2305 81.3505C80.5123 80.0724 78.5232 79.2067 76.417 78.8205C70.2405 77.66 65.967 73.403 61.6605 72.8255C59.4605 72.5285 58.1625 73.282 57.475 73.964C57.4242 74.0163 57.3959 74.0863 57.3959 74.1592C57.3959 74.2321 57.4242 74.3021 57.475 74.3545C57.5005 74.3803 57.531 74.4007 57.5645 74.4147C57.598 74.4286 57.6339 74.4358 57.6702 74.4358C57.7065 74.4358 57.7425 74.4286 57.776 74.4147C57.8095 74.4007 57.8399 74.3803 57.8655 74.3545C58.7235 73.502 60.0105 73.161 61.5835 73.37C65.1475 73.8485 68.673 76.978 73.8265 78.6885C72.4105 78.7697 71.0288 79.1558 69.7758 79.8203C68.5228 80.4847 67.4281 81.4119 66.5665 82.5385C65.4005 82.0875 63.701 81.2185 62.524 80.63C62.4583 80.5972 62.3823 80.5918 62.3127 80.615C62.2431 80.6382 62.1855 80.6881 62.1527 80.7537C62.1199 80.8194 62.1145 80.8954 62.1377 80.965C62.1609 81.0346 62.2108 81.0922 62.2765 81.125C65.318 82.654 68.376 84.2875 71.7805 83.9685C71.8534 83.9612 71.9205 83.9252 71.9669 83.8685C72.0133 83.8118 72.0353 83.7389 72.028 83.666C72.0207 83.593 71.9847 83.526 71.928 83.4796C71.8713 83.4332 71.7984 83.4112 71.7255 83.4185C70.1559 83.5315 68.5807 83.2987 67.111 82.7365C68.1906 81.3792 69.6264 80.349 71.258 79.761C72.7237 79.2406 74.2914 79.0729 75.834 79.2715C78.8599 79.7096 81.6459 81.1666 83.732 83.402C83.941 83.6275 84.0675 83.798 84.128 83.8365C87.56 87.835 87.978 93.1865 84.2875 96.9375H68.112C57.585 96.6405 52.4535 88.7315 47.696 86.207C47.6613 86.1869 47.6226 86.1746 47.5826 86.171C47.5427 86.1674 47.5024 86.1726 47.4647 86.1863C47.4269 86.1999 47.3926 86.2216 47.3642 86.2499C47.3357 86.2782 47.3138 86.3123 47.3 86.35C47.2829 86.3817 47.2723 86.4164 47.2689 86.4523C47.2654 86.4881 47.2692 86.5243 47.28 86.5586C47.2907 86.593 47.3083 86.6248 47.3315 86.6523C47.3548 86.6797 47.3834 86.7022 47.4155 86.7185C51.4085 88.8415 55.88 95.073 63.8385 96.965H51.8485C46.2 94.116 43.3125 86.5755 43.3125 83.457C43.3125 79.167 45.782 76.725 50.006 76.857C50.0789 76.857 50.1489 76.828 50.2004 76.7764C50.252 76.7249 50.281 76.6549 50.281 76.582C50.281 76.509 50.252 76.4391 50.2004 76.3875C50.1489 76.336 50.0789 76.307 50.006 76.307C45.606 76.1695 42.746 78.7325 42.746 83.457C42.746 85.3545 44.011 89.5455 46.3155 92.807C44.0385 92.6585 42.2675 94.545 43.3345 96.976H8.24998C8.17704 96.976 8.10709 97.005 8.05552 97.0565C8.00395 97.1081 7.97498 97.1781 7.97498 97.251C7.97498 97.3239 8.00395 97.3939 8.05552 97.4454C8.10709 97.497 8.17704 97.526 8.24998 97.526C59.818 97.526 87.2355 97.526 100.204 97.526C100.277 97.526 100.347 97.497 100.399 97.4454C100.451 97.3939 100.479 97.3239 100.479 97.251C100.482 97.214 100.476 97.1769 100.464 97.142C100.451 97.107 100.432 97.075 100.407 97.0477C100.382 97.0205 100.351 96.9987 100.317 96.9835C100.284 96.9683 100.247 96.9602 100.21 96.9595Z"></path><path fill="#550026" d="M80.6795 74.0245L79.4805 68.948C79.2868 68.142 78.8123 67.4313 78.142 66.9435C77.4717 66.4556 76.6496 66.2225 75.823 66.286L66.374 67.826L56.474 56.1C55.7151 55.0625 54.7391 54.2029 53.614 53.581C51.48 52.349 49.082 50.4295 48.0755 50.743C47.7015 50.853 47.597 51.073 47.575 51.238C47.5035 51.788 48.3285 52.4865 50.0885 53.625C49.9538 53.6602 49.8325 53.7343 49.7396 53.8379C49.6467 53.9416 49.5863 54.0703 49.566 54.208C49.3431 54.1805 49.1169 54.2105 48.909 54.2953C48.701 54.38 48.5182 54.5166 48.378 54.692C48.3262 54.7898 48.3051 54.901 48.3175 55.011C47.5145 55.11 46.7555 55.4895 46.816 56.2815C46.8765 57.0735 48.466 58.5805 49.533 58.1845C49.6244 58.1507 49.7064 58.0956 49.7724 58.0239C49.8384 57.9522 49.8864 57.8659 49.9125 57.772C50.8121 58.4946 51.8855 58.9687 53.0255 59.147C53.922 60.918 59.565 71.566 65.6205 72.699C66.858 72.93 68.8105 72.8585 71.434 72.49C71.4767 73.8813 71.9934 75.2162 72.8987 76.2736C73.804 77.3309 75.0434 78.0471 76.4115 78.3035C76.8372 78.3848 77.2719 78.4088 77.704 78.375C78.1918 78.2987 78.6588 78.1234 79.0763 77.8598C79.4938 77.5963 79.8529 77.2501 80.1316 76.8426C80.4103 76.4351 80.6027 75.9748 80.697 75.4902C80.7912 75.0056 80.7852 74.5068 80.6795 74.0245V74.0245ZM80.1955 75.097C80.1488 75.7808 79.8678 76.4276 79.4 76.9285C78.9322 77.4294 78.306 77.7538 77.627 77.847C77.2588 77.8707 76.8891 77.8467 76.527 77.7755C75.1521 77.5262 73.9255 76.7583 73.1005 75.6305C72.0005 73.9805 72.688 72.3635 73.315 72.281C73.3511 72.2767 73.386 72.2653 73.4177 72.2475C73.4494 72.2296 73.4773 72.2057 73.4998 72.1771C73.5223 72.1485 73.5389 72.1158 73.5487 72.0808C73.5585 72.0457 73.5613 72.0091 73.557 71.973C73.5527 71.9369 73.5413 71.902 73.5235 71.8703C73.5056 71.8386 73.4817 71.8107 73.4531 71.7882C73.4245 71.7658 73.3918 71.7491 73.3568 71.7393C73.3217 71.7295 73.2851 71.7267 73.249 71.731C71.049 72.0335 67.749 72.545 65.736 72.171C59.763 71.071 54.087 60.038 53.46 58.784L52.954 57.882C52.9375 57.8485 52.9143 57.8187 52.8858 57.7944C52.8574 57.7702 52.8243 57.752 52.7886 57.7409C52.7529 57.7299 52.7153 57.7262 52.6781 57.7302C52.641 57.7342 52.605 57.7457 52.5724 57.764C52.5398 57.7824 52.5114 57.8072 52.4887 57.8369C52.466 57.8666 52.4497 57.9007 52.4406 57.9369C52.4315 57.9732 52.4299 58.0109 52.4359 58.0478C52.4419 58.0847 52.4554 58.12 52.4755 58.1515L52.6955 58.542C51.5235 58.2493 50.4544 57.6405 49.6045 56.782C49.3358 56.4939 48.9935 56.2847 48.6145 56.177L48.0645 56.0285C47.9945 56.01 47.92 56.0198 47.8572 56.0558C47.7944 56.0919 47.7483 56.1512 47.729 56.221C47.719 56.2553 47.7159 56.2913 47.7198 56.3268C47.7238 56.3623 47.7349 56.3967 47.7523 56.4279C47.7697 56.4592 47.7931 56.4866 47.8212 56.5087C47.8493 56.5308 47.8816 56.547 47.916 56.5565L48.2075 56.639L48.1635 56.804C48.1438 56.877 48.1539 56.9547 48.1916 57.0202C48.2292 57.0857 48.2913 57.1336 48.3643 57.1533C48.4372 57.173 48.515 57.1629 48.5805 57.1252C48.646 57.0876 48.6938 57.0255 48.7135 56.9525L48.752 56.8095C48.8717 56.8814 48.9857 56.9623 49.093 57.0515L49.1975 57.1505C49.2655 57.2096 49.3191 57.2834 49.3544 57.3663C49.3897 57.4492 49.4056 57.5391 49.401 57.629C49.4007 57.6424 49.3963 57.6553 49.3884 57.6661C49.3806 57.6769 49.3696 57.6851 49.357 57.6895C48.7025 57.9315 47.421 56.793 47.377 56.254C47.333 55.715 48.202 55.55 48.7245 55.5555C49.1594 55.6125 49.5815 55.7427 49.973 55.9405C50.0387 55.9706 50.1137 55.9737 50.1816 55.949C50.2495 55.9243 50.305 55.8738 50.336 55.8085C50.3517 55.7761 50.3607 55.7409 50.3625 55.7049C50.3643 55.669 50.3589 55.633 50.3466 55.5992C50.3343 55.5653 50.3154 55.5343 50.2909 55.5079C50.2664 55.4815 50.2368 55.4603 50.204 55.4455C49.7921 55.2377 49.3506 55.0948 48.895 55.022C48.8903 55.0021 48.8903 54.9814 48.895 54.9615C48.9445 54.8735 49.291 54.736 49.9125 54.7855C50.3066 54.8728 50.6876 55.0114 51.0455 55.198C51.0885 55.2242 51.1381 55.2376 51.1885 55.2365C51.2473 55.2352 51.3042 55.2151 51.3507 55.179C51.3973 55.143 51.431 55.093 51.447 55.0364C51.463 54.9797 51.4605 54.9195 51.4397 54.8644C51.4189 54.8094 51.381 54.7624 51.3315 54.7305C50.9581 54.5264 50.5583 54.3747 50.1435 54.2795C50.1765 54.2135 50.402 54.1035 50.853 54.087C51.3197 54.1123 51.7731 54.2521 52.173 54.494C52.2355 54.5322 52.3103 54.5449 52.382 54.5296C52.4536 54.5142 52.5166 54.472 52.558 54.4115C52.5973 54.3502 52.6107 54.2759 52.5952 54.2047C52.5797 54.1336 52.5367 54.0715 52.4755 54.032C52.0143 53.749 51.4918 53.5811 50.952 53.5425C50.127 52.9925 48.136 51.755 48.1415 51.3425C48.576 50.82 51.535 53.02 53.361 54.0925C54.422 54.6805 55.3432 55.491 56.0615 56.4685L65.7635 67.9635L64.3115 68.1725C64.2386 68.1827 64.1727 68.2215 64.1283 68.2803C64.084 68.3391 64.0648 68.4131 64.075 68.486C64.0852 68.559 64.124 68.6248 64.1828 68.6692C64.2416 68.7136 64.3156 68.7327 64.3885 68.7225L75.9 66.836C76.5947 66.7839 77.2853 66.9804 77.8485 67.3904C78.4117 67.8005 78.8108 68.3974 78.9745 69.0745L80.1735 74.151C80.2368 74.4626 80.2443 74.7829 80.1955 75.097Z"></path><path fill="#550026" d="M39.2095 24.9425C39.138 24.9425 39.941 25.223 27.6595 20.7955C27.591 20.7707 27.5351 20.7197 27.5041 20.6537C27.4732 20.5876 27.4697 20.5121 27.4945 20.4435C27.5205 20.3758 27.5717 20.3209 27.6373 20.2901C27.7029 20.2594 27.7779 20.2552 27.8465 20.2785L39.3195 24.409C39.382 24.4313 39.4344 24.4753 39.4669 24.5332C39.4995 24.591 39.51 24.6586 39.4966 24.7236C39.4832 24.7886 39.4468 24.8465 39.394 24.8868C39.3412 24.927 39.2757 24.9468 39.2095 24.9425Z"></path><path fill="#FF81B4" d="M42.35 28.7925C41.8024 28.7943 41.2648 28.6461 40.7955 28.3639C40.3262 28.0818 39.9432 27.6764 39.688 27.192C39.3965 26.642 38.7255 26.048 37.1745 26.455C36.6274 26.6031 36.0496 26.5936 35.5076 26.4277C34.9657 26.2617 34.4816 25.9461 34.1112 25.5171C33.7408 25.088 33.4991 24.5631 33.414 24.0028C33.3289 23.4424 33.4038 22.8694 33.6301 22.3497C33.8564 21.8301 34.2249 21.3849 34.6932 21.0656C35.1614 20.7462 35.7103 20.5656 36.2767 20.5446C36.8431 20.5235 37.404 20.6629 37.8946 20.9467C38.3852 21.2304 38.7857 21.647 39.05 22.1485C39.3965 22.6985 39.996 23.309 41.47 22.9075C42.0778 22.7309 42.7256 22.7483 43.323 22.9573C43.9205 23.1663 44.4378 23.5565 44.803 24.0735C45.114 24.5234 45.2964 25.0496 45.3307 25.5955C45.365 26.1414 45.2498 26.6863 44.9975 27.1716C44.7452 27.6569 44.3654 28.0643 43.8989 28.3499C43.4324 28.6355 42.8969 28.7885 42.35 28.7925V28.7925ZM41.008 26.4L41.14 26.6255C41.2916 26.844 41.5007 27.0163 41.7441 27.1233C41.9876 27.2303 42.2559 27.2678 42.5194 27.2318C42.7829 27.1957 43.0312 27.0874 43.237 26.9189C43.4427 26.7504 43.5978 26.5283 43.6851 26.2771C43.7724 26.0259 43.7885 25.7554 43.7315 25.4956C43.6746 25.2359 43.5469 24.9969 43.3626 24.8052C43.1783 24.6135 42.9445 24.4766 42.6871 24.4096C42.4298 24.3426 42.1589 24.3481 41.9045 24.4255H41.855C39.523 25.003 38.3075 23.947 37.6915 22.946L37.565 22.726C37.4156 22.5071 37.2088 22.3336 36.9673 22.2246C36.7257 22.1156 36.4588 22.0753 36.1959 22.1081C35.9329 22.141 35.6841 22.2458 35.4768 22.4108C35.2695 22.5759 35.1118 22.795 35.0209 23.0439C34.9301 23.2929 34.9096 23.562 34.9618 23.8219C35.014 24.0817 35.1368 24.322 35.3168 24.5166C35.4967 24.7111 35.7268 24.8522 35.9818 24.9245C36.2368 24.9967 36.5067 24.9972 36.762 24.926H36.795C38.6595 24.4805 40.15 24.981 41.008 26.4Z"></path><path fill="#7B80EE" d="M32.626 84.579C31.559 84.414 30.5525 83.072 30.789 80.927C30.9632 79.8494 31.4824 78.8574 32.2685 78.1C31.6768 77.1201 30.9532 76.2263 30.118 75.4435C28.2205 73.6175 26.268 73.2765 24.387 74.4645C25.168 76.7855 25.487 79.629 24.86 81.5375C23.76 84.876 19.745 83.6165 19.844 79.376C20.0111 77.2929 20.9625 75.3508 22.506 73.942C21.362 71.291 19.3215 68.992 16.3075 69.399C16.2051 69.4178 16.1 69.4159 15.9984 69.3932C15.8967 69.3705 15.8007 69.3276 15.716 69.2671C15.6313 69.2065 15.5597 69.1295 15.5054 69.0407C15.4511 68.9518 15.4153 68.853 15.4 68.75C15.37 68.5444 15.4226 68.3353 15.5463 68.1684C15.6699 68.0015 15.8546 67.8902 16.06 67.859C19.6625 67.309 22.286 69.784 23.76 73.0015C26.1745 71.6155 28.842 72.094 31.163 74.3215C32.0482 75.1565 32.821 76.1031 33.462 77.1375C35.145 76.131 37.675 75.889 39.809 78.595C39.8726 78.6759 39.9196 78.7685 39.9473 78.8675C39.9751 78.9666 39.9831 79.0702 39.9708 79.1723C39.9586 79.2745 39.9263 79.3732 39.8759 79.4629C39.8255 79.5525 39.7579 79.6314 39.677 79.695C39.5961 79.7585 39.5035 79.8055 39.4044 79.8333C39.3054 79.8611 39.2018 79.8691 39.0997 79.8568C38.9975 79.8445 38.8988 79.8123 38.8091 79.7619C38.7194 79.7115 38.6406 79.6439 38.577 79.563C37.2845 77.913 35.706 77.5775 34.177 78.5235C34.7705 79.7884 34.9717 81.2022 34.7545 82.5825C34.463 84.15 33.484 84.7 32.626 84.579ZM32.9945 79.629C32.6572 80.0534 32.4338 80.557 32.3455 81.092C32.2234 81.7162 32.3497 82.3634 32.6975 82.896C32.7403 82.9579 32.8021 83.0043 32.8735 83.028C32.912 83.028 33.132 82.8465 33.2585 82.2305C33.4036 81.3575 33.3144 80.4617 33 79.6345L32.9945 79.629ZM23.0945 75.57C22.1312 76.624 21.54 77.9648 21.4115 79.387C21.373 80.9215 22.077 81.763 22.561 81.8455C23.045 81.928 23.3035 81.235 23.375 81.0205C23.804 79.75 23.694 77.638 23.1 75.5755L23.0945 75.57Z"></path></svg>